  0
SECTION
  2
HEADER
  9
$ACADVER
  1
AC1032
  9
$ACADMAINTVER
 90
4
  9
$DWGCODEPAGE
  3
ANSI_1252
  9
$LASTSAVEDBY
  1
ezdxf
  9
$REQUIREDVERSIONS
160
0
  9
$INSBASE
 10
0.0
 20
0.0
 30
0.0
  9
$EXTMIN
 10
1e+20
 20
1e+20
 30
1e+20
  9
$EXTMAX
 10
-1e+20
 20
-1e+20
 30
-1e+20
  9
$LIMMIN
 10
0.0
 20
0.0
  9
$LIMMAX
 10
420.0
 20
297.0
  9
$ORTHOMODE
 70
0
  9
$REGENMODE
 70
1
  9
$FILLMODE
 70
1
  9
$QTEXTMODE
 70
0
  9
$MIRRTEXT
 70
1
  9
$LTSCALE
 40
1.0
  9
$ATTMODE
 70
1
  9
$TEXTSIZE
 40
2.5
  9
$TRACEWID
 40
1.0
  9
$TEXTSTYLE
  7
OpenSans
  9
$CLAYER
  8
0
  9
$CELTYPE
  6
ByLayer
  9
$CECOLOR
 62
256
  9
$CELTSCALE
 40
1.0
  9
$DISPSILH
 70
0
  9
$DIMSCALE
 40
1.0
  9
$DIMASZ
 40
0.175
  9
$DIMEXO
 40
0.125
  9
$DIMDLI
 40
3.75
  9
$DIMRND
 40
0.0
  9
$DIMDLE
 40
0.0
  9
$DIMEXE
 40
0.375
  9
$DIMTP
 40
0.0
  9
$DIMTM
 40
0.0
  9
$DIMTXT
 40
0.25
  9
$DIMCEN
 40
2.5
  9
$DIMTSZ
 40
0.0
  9
$DIMTOL
 70
0
  9
$DIMLIM
 70
0
  9
$DIMTIH
 70
0
  9
$DIMTOH
 70
0
  9
$DIMSE1
 70
0
  9
$DIMSE2
 70
0
  9
$DIMTAD
 70
1
  9
$DIMZIN
 70
12
  9
$DIMBLK
  1
ARCHTICK
  9
$DIMASO
 70
1
  9
$DIMSHO
 70
1
  9
$DIMPOST
  1

  9
$DIMAPOST
  1

  9
$DIMALT
 70
0
  9
$DIMALTD
 70
3
  9
$DIMALTF
 40
0.03937007874
  9
$DIMLFAC
 40
100.0
  9
$DIMTOFL
 70
1
  9
$DIMTVP
 40
0.0
  9
$DIMTIX
 70
0
  9
$DIMSOXD
 70
0
  9
$DIMSAH
 70
0
  9
$DIMBLK1
  1

  9
$DIMBLK2
  1

  9
$DIMSTYLE
  2
EZDXF
  9
$DIMCLRD
 70
0
  9
$DIMCLRE
 70
0
  9
$DIMCLRT
 70
0
  9
$DIMTFAC
 40
0.5
  9
$DIMGAP
 40
0.1
  9
$DIMJUST
 70
0
  9
$DIMSD1
 70
0
  9
$DIMSD2
 70
0
  9
$DIMTOLJ
 70
0
  9
$DIMTZIN
 70
8
  9
$DIMALTZ
 70
0
  9
$DIMALTTZ
 70
0
  9
$DIMUPT
 70
1
  9
$DIMDEC
 70
2
  9
$DIMTDEC
 70
2
  9
$DIMALTU
 70
2
  9
$DIMALTTD
 70
3
  9
$DIMTXSTY
  7
OpenSansCondensed-Light
  9
$DIMAUNIT
 70
0
  9
$DIMADEC
 70
2
  9
$DIMALTRND
 40
0.0
  9
$DIMAZIN
 70
3
  9
$DIMDSEP
 70
46
  9
$DIMATFIT
 70
3
  9
$DIMFRAC
 70
0
  9
$DIMLDRBLK
  1

  9
$DIMLUNIT
 70
2
  9
$DIMLWD
 70
-2
  9
$DIMLWE
 70
-2
  9
$DIMTMOVE
 70
2
  9
$DIMFXL
 40
1.0
  9
$DIMFXLON
 70
0
  9
$DIMJOGANG
 40
0.785398163397
  9
$DIMTFILL
 70
0
  9
$DIMTFILLCLR
 70
0
  9
$DIMARCSYM
 70
0
  9
$DIMLTYPE
  6

  9
$DIMLTEX1
  6

  9
$DIMLTEX2
  6

  9
$DIMTXTDIRECTION
 70
0
  9
$LUNITS
 70
2
  9
$LUPREC
 70
4
  9
$SKETCHINC
 40
1.0
  9
$FILLETRAD
 40
10.0
  9
$AUNITS
 70
0
  9
$AUPREC
 70
2
  9
$MENU
  1
.
  9
$ELEVATION
 40
0.0
  9
$PELEVATION
 40
0.0
  9
$THICKNESS
 40
0.0
  9
$LIMCHECK
 70
0
  9
$CHAMFERA
 40
0.0
  9
$CHAMFERB
 40
0.0
  9
$CHAMFERC
 40
0.0
  9
$CHAMFERD
 40
0.0
  9
$SKPOLY
 70
0
  9
$TDCREATE
 40
2461232.4111342593
  9
$TDUCREATE
 40
2458532.153996898
  9
$TDUPDATE
 40
2461232.4111342593
  9
$TDUUPDATE
 40
2458532.1544311
  9
$TDINDWG
 40
0.0
  9
$TDUSRTIMER
 40
0.0
  9
$USRTIMER
 70
1
  9
$ANGBASE
 50
0.0
  9
$ANGDIR
 70
0
  9
$PDMODE
 70
0
  9
$PDSIZE
 40
0.0
  9
$PLINEWID
 40
0.0
  9
$SPLFRAME
 70
0
  9
$SPLINETYPE
 70
6
  9
$SPLINESEGS
 70
8
  9
$HANDSEED
  5
137
  9
$SURFTAB1
 70
6
  9
$SURFTAB2
 70
6
  9
$SURFTYPE
 70
6
  9
$SURFU
 70
6
  9
$SURFV
 70
6
  9
$UCSBASE
  2

  9
$UCSNAME
  2

  9
$UCSORG
 10
0.0
 20
0.0
 30
0.0
  9
$UCSXDIR
 10
1.0
 20
0.0
 30
0.0
  9
$UCSYDIR
 10
0.0
 20
1.0
 30
0.0
  9
$UCSORTHOREF
  2

  9
$UCSORTHOVIEW
 70
0
  9
$UCSORGTOP
 10
0.0
 20
0.0
 30
0.0
  9
$UCSORGBOTTOM
 10
0.0
 20
0.0
 30
0.0
  9
$UCSORGLEFT
 10
0.0
 20
0.0
 30
0.0
  9
$UCSORGRIGHT
 10
0.0
 20
0.0
 30
0.0
  9
$UCSORGFRONT
 10
0.0
 20
0.0
 30
0.0
  9
$UCSORGBACK
 10
0.0
 20
0.0
 30
0.0
  9
$PUCSBASE
  2

  9
$PUCSNAME
  2

  9
$PUCSORG
 10
0.0
 20
0.0
 30
0.0
  9
$PUCSXDIR
 10
1.0
 20
0.0
 30
0.0
  9
$PUCSYDIR
 10
0.0
 20
1.0
 30
0.0
  9
$PUCSORTHOREF
  2

  9
$PUCSORTHOVIEW
 70
0
  9
$PUCSORGTOP
 10
0.0
 20
0.0
 30
0.0
  9
$PUCSORGBOTTOM
 10
0.0
 20
0.0
 30
0.0
  9
$PUCSORGLEFT
 10
0.0
 20
0.0
 30
0.0
  9
$PUCSORGRIGHT
 10
0.0
 20
0.0
 30
0.0
  9
$PUCSORGFRONT
 10
0.0
 20
0.0
 30
0.0
  9
$PUCSORGBACK
 10
0.0
 20
0.0
 30
0.0
  9
$USERI1
 70
0
  9
$USERI2
 70
0
  9
$USERI3
 70
0
  9
$USERI4
 70
0
  9
$USERI5
 70
0
  9
$USERR1
 40
0.0
  9
$USERR2
 40
0.0
  9
$USERR3
 40
0.0
  9
$USERR4
 40
0.0
  9
$USERR5
 40
0.0
  9
$WORLDVIEW
 70
1
  9
$SHADEDGE
 70
3
  9
$SHADEDIF
 70
70
  9
$TILEMODE
 70
1
  9
$MAXACTVP
 70
64
  9
$PINSBASE
 10
0.0
 20
0.0
 30
0.0
  9
$PLIMCHECK
 70
0
  9
$PEXTMIN
 10
1e+20
 20
1e+20
 30
1e+20
  9
$PEXTMAX
 10
-1e+20
 20
-1e+20
 30
-1e+20
  9
$PLIMMIN
 10
0.0
 20
0.0
  9
$PLIMMAX
 10
420.0
 20
297.0
  9
$UNITMODE
 70
0
  9
$VISRETAIN
 70
1
  9
$PLINEGEN
 70
0
  9
$PSLTSCALE
 70
1
  9
$TREEDEPTH
 70
3020
  9
$CMLSTYLE
  2
Standard
  9
$CMLJUST
 70
0
  9
$CMLSCALE
 40
20.0
  9
$PROXYGRAPHICS
 70
1
  9
$MEASUREMENT
 70
1
  9
$CELWEIGHT
370
-1
  9
$ENDCAPS
280
0
  9
$JOINSTYLE
280
0
  9
$LWDISPLAY
290
0
  9
$INSUNITS
 70
4
  9
$HYPERLINKBASE
  1

  9
$STYLESHEET
  1

  9
$XEDIT
290
1
  9
$CEPSNTYPE
380
0
  9
$PSTYLEMODE
290
1
  9
$FINGERPRINTGUID
  2
{9BEFE16B-FEA0-4404-AABD-231DBCA036D9}
  9
$VERSIONGUID
  2
{8F42FA9C-94DF-40CD-954F-D7893FA04513}
  9
$EXTNAMES
290
1
  9
$PSVPSCALE
 40
0.0
  9
$OLESTARTUP
290
0
  9
$SORTENTS
280
127
  9
$INDEXCTL
280
0
  9
$HIDETEXT
280
1
  9
$XCLIPFRAME
280
1
  9
$HALOGAP
280
0
  9
$OBSCOLOR
 70
257
  9
$OBSLTYPE
280
0
  9
$INTERSECTIONDISPLAY
280
0
  9
$INTERSECTIONCOLOR
 70
257
  9
$DIMASSOC
280
2
  9
$PROJECTNAME
  1

  9
$CAMERADISPLAY
290
0
  9
$LENSLENGTH
 40
50.0
  9
$CAMERAHEIGHT
 40
0.0
  9
$STEPSPERSEC
 40
24.0
  9
$STEPSIZE
 40
100.0
  9
$3DDWFPREC
 40
2.0
  9
$PSOLWIDTH
 40
0.005
  9
$PSOLHEIGHT
 40
0.08
  9
$LOFTANG1
 40
1.570796326795
  9
$LOFTANG2
 40
1.570796326795
  9
$LOFTMAG1
 40
0.0
  9
$LOFTMAG2
 40
0.0
  9
$LOFTPARAM
 70
7
  9
$LOFTNORMALS
280
1
  9
$LATITUDE
 40
37.795
  9
$LONGITUDE
 40
-122.394
  9
$NORTHDIRECTION
 40
0.0
  9
$TIMEZONE
 70
-8000
  9
$LIGHTGLYPHDISPLAY
280
1
  9
$TILEMODELIGHTSYNCH
280
1
  9
$CMATERIAL
347
20
  9
$SOLIDHIST
280
0
  9
$SHOWHIST
280
1
  9
$DWFFRAME
280
2
  9
$DGNFRAME
280
2
  9
$REALWORLDSCALE
290
1
  9
$INTERFERECOLOR
 62
256
  9
$CSHADOW
280
0
  9
$SHADOWPLANELOCATION
 40
0.0
  0
ENDSEC
  0
SECTION
  2
CLASSES
  0
CLASS
  1
ACDBDICTIONARYWDFLT
  2
AcDbDictionaryWithDefault
  3
ObjectDBX Classes
 90
0
 91
0
280
0
281
0
  0
CLASS
  1
SUN
  2
AcDbSun
  3
SCENEOE
 90
1153
 91
0
280
0
281
0
  0
CLASS
  1
VISUALSTYLE
  2
AcDbVisualStyle
  3
ObjectDBX Classes
 90
4095
 91
0
280
0
281
0
  0
CLASS
  1
MATERIAL
  2
AcDbMaterial
  3
ObjectDBX Classes
 90
1153
 91
0
280
0
281
0
  0
CLASS
  1
SCALE
  2
AcDbScale
  3
ObjectDBX Classes
 90
1153
 91
0
280
0
281
0
  0
CLASS
  1
TABLESTYLE
  2
AcDbTableStyle
  3
ObjectDBX Classes
 90
4095
 91
0
280
0
281
0
  0
CLASS
  1
MLEADERSTYLE
  2
AcDbMLeaderStyle
  3
ACDB_MLEADERSTYLE_CLASS
 90
4095
 91
0
280
0
281
0
  0
CLASS
  1
DICTIONARYVAR
  2
AcDbDictionaryVar
  3
ObjectDBX Classes
 90
0
 91
0
280
0
281
0
  0
CLASS
  1
CELLSTYLEMAP
  2
AcDbCellStyleMap
  3
ObjectDBX Classes
 90
1152
 91
0
280
0
281
0
  0
CLASS
  1
MENTALRAYRENDERSETTINGS
  2
AcDbMentalRayRenderSettings
  3
SCENEOE
 90
1024
 91
0
280
0
281
0
  0
CLASS
  1
ACDBDETAILVIEWSTYLE
  2
AcDbDetailViewStyle
  3
ObjectDBX Classes
 90
1025
 91
0
280
0
281
0
  0
CLASS
  1
ACDBSECTIONVIEWSTYLE
  2
AcDbSectionViewStyle
  3
ObjectDBX Classes
 90
1025
 91
0
280
0
281
0
  0
CLASS
  1
RASTERVARIABLES
  2
AcDbRasterVariables
  3
ISM
 90
0
 91
0
280
0
281
0
  0
CLASS
  1
LAYOUT
  2
AcDbLayout
  3
ObjectDBX Classes
 90
0
 91
0
280
0
281
0
  0
CLASS
  1
ACDBPLACEHOLDER
  2
AcDbPlaceHolder
  3
ObjectDBX Classes
 90
0
 91
0
280
0
281
0
  0
ENDSEC
  0
SECTION
  2
TABLES
  0
TABLE
  2
VPORT
  5
8
330
0
100
AcDbSymbolTable
 70
1
  0
VPORT
  5
133
330
8
100
AcDbSymbolTableRecord
100
AcDbViewportTableRecord
  2
*Active
 70
0
 10
0.0
 20
0.0
 11
1.0
 21
1.0
 12
210.0
 22
126.25
 13
0.0
 23
0.0
 14
0.5
 24
0.5
 15
0.5
 25
0.5
 16
0.0
 26
0.0
 36
1.0
 17
0.0
 27
0.0
 37
0.0
 40
252.5
 41
1.34
 42
50.0
 43
0.0
 44
0.0
 50
0.0
 51
0.0
 71
0
 72
1000
 73
1
 74
3
 75
0
 76
0
 77
0
 78
0
281
0
 65
1
110
0.0
120
0.0
130
0.0
111
1.0
121
0.0
131
0.0
112
0.0
122
1.0
132
0.0
 79
0
146
0.0
  0
ENDTAB
  0
TABLE
  2
LTYPE
  5
2
330
0
100
AcDbSymbolTable
 70
23
  0
LTYPE
  5
24
330
2
100
AcDbSymbolTableRecord
100
AcDbLinetypeTableRecord
  2
ByBlock
 70
0
  3

 72
65
 73
0
 40
0.0
  0
LTYPE
  5
25
330
2
100
AcDbSymbolTableRecord
100
AcDbLinetypeTableRecord
  2
ByLayer
 70
0
  3

 72
65
 73
0
 40
0.0
  0
LTYPE
  5
26
330
2
100
AcDbSymbolTableRecord
100
AcDbLinetypeTableRecord
  2
Continuous
 70
0
  3

 72
65
 73
0
 40
0.0
  0
LTYPE
  5
2F
330
2
100
AcDbSymbolTableRecord
100
AcDbLinetypeTableRecord
  2
CENTER
 70
0
  3
Center ____ _ ____ _ ____ _ ____ _ ____ _ ____
 72
65
 73
4
 40
5.08
 49
3.175
 74
0
 49
-0.635
 74
0
 49
0.635
 74
0
 49
-0.635
 74
0
  0
LTYPE
  5
30
330
2
100
AcDbSymbolTableRecord
100
AcDbLinetypeTableRecord
  2
CENTERX2
 70
0
  3
Center (2x) ________  __  ________  __  ________
 72
65
 73
4
 40
8.89
 49
6.35
 74
0
 49
-0.635
 74
0
 49
1.27
 74
0
 49
-0.635
 74
0
  0
LTYPE
  5
31
330
2
100
AcDbSymbolTableRecord
100
AcDbLinetypeTableRecord
  2
CENTER2
 70
0
  3
Center (.5x) ____ _ ____ _ ____ _ ____ _ ____
 72
65
 73
4
 40
2.54
 49
1.587
 74
0
 49
-0.318
 74
0
 49
0.318
 74
0
 49
-0.318
 74
0
  0
LTYPE
  5
32
330
2
100
AcDbSymbolTableRecord
100
AcDbLinetypeTableRecord
  2
DASHED
 70
0
  3
Dashed __ __ __ __ __ __ __ __ __ __ __ __ __ _
 72
65
 73
2
 40
1.524
 49
1.27
 74
0
 49
-0.254
 74
0
  0
LTYPE
  5
33
330
2
100
AcDbSymbolTableRecord
100
AcDbLinetypeTableRecord
  2
DASHEDX2
 70
0
  3
Dashed (2x) ____  ____  ____  ____  ____  ____
 72
65
 73
2
 40
3.048
 49
2.54
 74
0
 49
-0.508
 74
0
  0
LTYPE
  5
34
330
2
100
AcDbSymbolTableRecord
100
AcDbLinetypeTableRecord
  2
DASHED2
 70
0
  3
Dashed (.5x) _ _ _ _ _ _ _ _ _ _ _ _ _ _
 72
65
 73
2
 40
0.762
 49
0.635
 74
0
 49
-0.127
 74
0
  0
LTYPE
  5
35
330
2
100
AcDbSymbolTableRecord
100
AcDbLinetypeTableRecord
  2
PHANTOM
 70
0
  3
Phantom ______  __  __  ______  __  __  ______
 72
65
 73
6
 40
6.35
 49
3.175
 74
0
 49
-0.635
 74
0
 49
0.635
 74
0
 49
-0.635
 74
0
 49
0.635
 74
0
 49
-0.635
 74
0
  0
LTYPE
  5
36
330
2
100
AcDbSymbolTableRecord
100
AcDbLinetypeTableRecord
  2
PHANTOMX2
 70
0
  3
Phantom (2x)____________    ____    ____    ____________
 72
65
 73
6
 40
10.795
 49
6.35
 74
0
 49
-0.635
 74
0
 49
1.27
 74
0
 49
-0.635
 74
0
 49
1.27
 74
0
 49
-0.635
 74
0
  0
LTYPE
  5
37
330
2
100
AcDbSymbolTableRecord
100
AcDbLinetypeTableRecord
  2
PHANTOM2
 70
0
  3
Phantom (.5x) ___ _ _ ___ _ _ ___ _ _ ___ _ _ ___
 72
65
 73
6
 40
3.175
 49
1.587
 74
0
 49
-0.318
 74
0
 49
0.318
 74
0
 49
-0.318
 74
0
 49
0.318
 74
0
 49
-0.318
 74
0
  0
LTYPE
  5
38
330
2
100
AcDbSymbolTableRecord
100
AcDbLinetypeTableRecord
  2
DASHDOT
 70
0
  3
Dash dot __ . __ . __ . __ . __ . __ . __ . __
 72
65
 73
4
 40
3.556
 49
2.54
 74
0
 49
-0.508
 74
0
 49
0.0
 74
0
 49
-0.508
 74
0
  0
LTYPE
  5
39
330
2
100
AcDbSymbolTableRecord
100
AcDbLinetypeTableRecord
  2
DASHDOTX2
 70
0
  3
Dash dot (2x) ____  .  ____  .  ____  .  ____
 72
65
 73
4
 40
6.096
 49
5.08
 74
0
 49
-0.508
 74
0
 49
0.0
 74
0
 49
-0.508
 74
0
  0
LTYPE
  5
3A
330
2
100
AcDbSymbolTableRecord
100
AcDbLinetypeTableRecord
  2
DASHDOT2
 70
0
  3
Dash dot (.5x) _ . _ . _ . _ . _ . _ . _ . _
 72
65
 73
4
 40
1.778
 49
1.27
 74
0
 49
-0.254
 74
0
 49
0.0
 74
0
 49
-0.254
 74
0
  0
LTYPE
  5
3B
330
2
100
AcDbSymbolTableRecord
100
AcDbLinetypeTableRecord
  2
DOT
 70
0
  3
Dot .  .  .  .  .  .  .  .  .  .  .  .  .  .  .  .
 72
65
 73
2
 40
0.508
 49
0.0
 74
0
 49
-0.508
 74
0
  0
LTYPE
  5
3C
330
2
100
AcDbSymbolTableRecord
100
AcDbLinetypeTableRecord
  2
DOTX2
 70
0
  3
Dot (2x) .    .    .    .    .    .    .    . 
 72
65
 73
2
 40
1.016
 49
0.0
 74
0
 49
-1.016
 74
0
  0
LTYPE
  5
3D
330
2
100
AcDbSymbolTableRecord
100
AcDbLinetypeTableRecord
  2
DOT2
 70
0
  3
Dot (.5) . . . . . . . . . . . . . . . . . . . 
 72
65
 73
2
 40
0.254
 49
0.0
 74
0
 49
-0.254
 74
0
  0
LTYPE
  5
3E
330
2
100
AcDbSymbolTableRecord
100
AcDbLinetypeTableRecord
  2
DIVIDE
 70
0
  3
Divide __ . . __ . . __ . . __ . . __ . . __
 72
65
 73
6
 40
4.064
 49
2.54
 74
0
 49
-0.508
 74
0
 49
0.0
 74
0
 49
-0.508
 74
0
 49
0.0
 74
0
 49
-0.508
 74
0
  0
LTYPE
  5
3F
330
2
100
AcDbSymbolTableRecord
100
AcDbLinetypeTableRecord
  2
DIVIDEX2
 70
0
  3
Divide (2x) ____  . .  ____  . .  ____  . .  ____
 72
65
 73
6
 40
6.604
 49
5.08
 74
0
 49
-0.508
 74
0
 49
0.0
 74
0
 49
-0.508
 74
0
 49
0.0
 74
0
 49
-0.508
 74
0
  0
LTYPE
  5
40
330
2
100
AcDbSymbolTableRecord
100
AcDbLinetypeTableRecord
  2
DIVIDE2
 70
0
  3
Divide(.5x) _ . _ . _ . _ . _ . _ . _ . _
 72
65
 73
6
 40
2.032
 49
1.27
 74
0
 49
-0.254
 74
0
 49
0.0
 74
0
 49
-0.254
 74
0
 49
0.0
 74
0
 49
-0.254
 74
0
  0
LTYPE
  5
8A
330
2
100
AcDbSymbolTableRecord
100
AcDbLinetypeTableRecord
  2
ARC_DASHED
 70
0
  3
ARC dashed
 72
65
 73
2
 40
3.25
 49
2.0
 74
0
 49
-1.25
 74
0
  0
LTYPE
  5
8B
330
2
100
AcDbSymbolTableRecord
100
AcDbLinetypeTableRecord
  2
ARC_DOTTED
 70
0
  3
ARC dotted
 72
65
 73
2
 40
1.625
 49
0.625
 74
0
 49
-1.0
 74
0
  0
ENDTAB
  0
TABLE
  2
LAYER
  5
1
330
0
100
AcDbSymbolTable
 70
17
  0
LAYER
  5
27
330
1
100
AcDbSymbolTableRecord
100
AcDbLayerTableRecord
  2
0
 70
0
 62
7
  6
Continuous
370
-3
390
13
347
21
  0
LAYER
  5
28
330
1
100
AcDbSymbolTableRecord
100
AcDbLayerTableRecord
  2
Defpoints
 70
0
 62
7
  6
Continuous
290
0
370
-3
390
13
347
21
  0
LAYER
  5
8C
330
1
100
AcDbSymbolTableRecord
100
AcDbLayerTableRecord
  2
ARC_BACKGROUND
 70
0
 62
7
420
16777215
  6
Continuous
370
-3
390
13
347
21
  0
LAYER
  5
8D
330
1
100
AcDbSymbolTableRecord
100
AcDbLayerTableRecord
  2
ARC_ZONES
 70
0
 62
7
420
13358561
  6
Continuous
370
-3
390
13
347
21
  0
LAYER
  5
8E
330
1
100
AcDbSymbolTableRecord
100
AcDbLayerTableRecord
  2
ARC_DEVICE_BOXES
 70
0
 62
7
420
9741240
  6
Continuous
370
-3
390
13
347
21
  0
LAYER
  5
8F
330
1
100
AcDbSymbolTableRecord
100
AcDbLayerTableRecord
  2
ARC_NOT_IN_SERVICE
 70
0
 62
7
420
13358561
  6
Continuous
370
-3
390
13
347
21
  0
LAYER
  5
90
330
1
100
AcDbSymbolTableRecord
100
AcDbLayerTableRecord
  2
ARC_ETHERNET
 70
0
 62
7
420
4674921
  6
Continuous
370
-3
390
13
347
21
  0
LAYER
  5
91
330
1
100
AcDbSymbolTableRecord
100
AcDbLayerTableRecord
  2
ARC_RS485
 70
0
 62
7
420
14251782
  6
Continuous
370
-3
390
13
347
21
  0
LAYER
  5
92
330
1
100
AcDbSymbolTableRecord
100
AcDbLayerTableRecord
  2
ARC_VPN
 70
0
 62
7
420
165063
  6
Continuous
370
-3
390
13
347
21
  0
LAYER
  5
93
330
1
100
AcDbSymbolTableRecord
100
AcDbLayerTableRecord
  2
ARC_HARDWIRED_IO
 70
0
 62
7
420
9741240
  6
Continuous
370
-3
390
13
347
21
  0
LAYER
  5
94
330
1
100
AcDbSymbolTableRecord
100
AcDbLayerTableRecord
  2
ARC_CONTROL
 70
0
 62
7
420
366185
  6
Continuous
370
-3
390
13
347
21
  0
LAYER
  5
95
330
1
100
AcDbSymbolTableRecord
100
AcDbLayerTableRecord
  2
ARC_MONITOR
 70
0
 62
7
420
165063
  6
Continuous
370
-3
390
13
347
21
  0
LAYER
  5
96
330
1
100
AcDbSymbolTableRecord
100
AcDbLayerTableRecord
  2
ARC_CONTROL_TEXT
 70
0
 62
7
420
366185
  6
Continuous
370
-3
390
13
347
21
  0
LAYER
  5
97
330
1
100
AcDbSymbolTableRecord
100
AcDbLayerTableRecord
  2
ARC_MONITOR_TEXT
 70
0
 62
7
420
165063
  6
Continuous
370
-3
390
13
347
21
  0
LAYER
  5
98
330
1
100
AcDbSymbolTableRecord
100
AcDbLayerTableRecord
  2
ARC_IP_ADDRESSES
 70
0
 62
7
420
223649
  6
Continuous
370
-3
390
13
347
21
  0
LAYER
  5
99
330
1
100
AcDbSymbolTableRecord
100
AcDbLayerTableRecord
  2
ARC_TEXT
 70
0
 62
7
420
988970
  6
Continuous
370
-3
390
13
347
21
  0
LAYER
  5
9A
330
1
100
AcDbSymbolTableRecord
100
AcDbLayerTableRecord
  2
ARC_MISC
 70
0
 62
7
420
4674921
  6
Continuous
370
-3
390
13
347
21
  0
ENDTAB
  0
TABLE
  2
STYLE
  5
5
330
0
100
AcDbSymbolTable
 70
29
  0
STYLE
  5
29
330
5
100
AcDbSymbolTableRecord
100
AcDbTextStyleTableRecord
  2
Standard
 70
0
 40
0.0
 41
1.0
 50
0.0
 71
0
 42
2.5
  3
txt
  4

  0
STYLE
  5
41
330
5
100
AcDbSymbolTableRecord
100
AcDbTextStyleTableRecord
  2
OpenSans-Light
 70
0
 40
0.0
 41
1.0
 50
0.0
 71
0
 42
2.5
  3
OpenSans-Light.ttf
  4

  0
STYLE
  5
42
330
5
100
AcDbSymbolTableRecord
100
AcDbTextStyleTableRecord
  2
OpenSans-Light-Italic
 70
0
 40
0.0
 41
1.0
 50
0.0
 71
0
 42
2.5
  3
OpenSans-LightItalic.ttf
  4

  0
STYLE
  5
43
330
5
100
AcDbSymbolTableRecord
100
AcDbTextStyleTableRecord
  2
OpenSans
 70
0
 40
0.0
 41
1.0
 50
0.0
 71
0
 42
2.5
  3
OpenSans-Regular.ttf
  4

  0
STYLE
  5
44
330
5
100
AcDbSymbolTableRecord
100
AcDbTextStyleTableRecord
  2
OpenSans-Italic
 70
0
 40
0.0
 41
1.0
 50
0.0
 71
0
 42
2.5
  3
OpenSans-Italic.ttf
  4

  0
STYLE
  5
45
330
5
100
AcDbSymbolTableRecord
100
AcDbTextStyleTableRecord
  2
OpenSans-SemiBold
 70
0
 40
0.0
 41
1.0
 50
0.0
 71
0
 42
2.5
  3
OpenSans-SemiBold.ttf
  4

  0
STYLE
  5
46
330
5
100
AcDbSymbolTableRecord
100
AcDbTextStyleTableRecord
  2
OpenSans-SemiBoldItalic
 70
0
 40
0.0
 41
1.0
 50
0.0
 71
0
 42
2.5
  3
OpenSans-SemiBoldItalic.ttf
  4

  0
STYLE
  5
47
330
5
100
AcDbSymbolTableRecord
100
AcDbTextStyleTableRecord
  2
OpenSans-Bold
 70
0
 40
0.0
 41
1.0
 50
0.0
 71
0
 42
2.5
  3
OpenSans-Bold.ttf
  4

  0
STYLE
  5
48
330
5
100
AcDbSymbolTableRecord
100
AcDbTextStyleTableRecord
  2
OpenSans-BoldItalic
 70
0
 40
0.0
 41
1.0
 50
0.0
 71
0
 42
2.5
  3
OpenSans-BoldItalic.ttf
  4

  0
STYLE
  5
49
330
5
100
AcDbSymbolTableRecord
100
AcDbTextStyleTableRecord
  2
OpenSans-ExtraBold
 70
0
 40
0.0
 41
1.0
 50
0.0
 71
0
 42
2.5
  3
OpenSans-ExtraBold.ttf
  4

  0
STYLE
  5
4A
330
5
100
AcDbSymbolTableRecord
100
AcDbTextStyleTableRecord
  2
OpenSans-ExtraBoldItalic
 70
0
 40
0.0
 41
1.0
 50
0.0
 71
0
 42
2.5
  3
OpenSans-ExtraBoldItalic.ttf
  4

  0
STYLE
  5
4B
330
5
100
AcDbSymbolTableRecord
100
AcDbTextStyleTableRecord
  2
OpenSansCondensed-Bold
 70
0
 40
0.0
 41
1.0
 50
0.0
 71
0
 42
2.5
  3
OpenSansCondensed-Bold.ttf
  4

  0
STYLE
  5
4C
330
5
100
AcDbSymbolTableRecord
100
AcDbTextStyleTableRecord
  2
OpenSansCondensed-Light
 70
0
 40
0.0
 41
1.0
 50
0.0
 71
0
 42
2.5
  3
OpenSansCondensed-Light.ttf
  4

  0
STYLE
  5
4D
330
5
100
AcDbSymbolTableRecord
100
AcDbTextStyleTableRecord
  2
OpenSansCondensed-Italic
 70
0
 40
0.0
 41
1.0
 50
0.0
 71
0
 42
2.5
  3
OpenSansCondensed-LightItalic.ttf
  4

  0
STYLE
  5
4E
330
5
100
AcDbSymbolTableRecord
100
AcDbTextStyleTableRecord
  2
LiberationSans
 70
0
 40
0.0
 41
1.0
 50
0.0
 71
0
 42
2.5
  3
LiberationSans-Regular.ttf
  4

  0
STYLE
  5
4F
330
5
100
AcDbSymbolTableRecord
100
AcDbTextStyleTableRecord
  2
LiberationSans-Bold
 70
0
 40
0.0
 41
1.0
 50
0.0
 71
0
 42
2.5
  3
LiberationSans-Bold.ttf
  4

  0
STYLE
  5
50
330
5
100
AcDbSymbolTableRecord
100
AcDbTextStyleTableRecord
  2
LiberationSans-BoldItalic
 70
0
 40
0.0
 41
1.0
 50
0.0
 71
0
 42
2.5
  3
LiberationSans-BoldItalic.ttf
  4

  0
STYLE
  5
51
330
5
100
AcDbSymbolTableRecord
100
AcDbTextStyleTableRecord
  2
LiberationSans-Italic
 70
0
 40
0.0
 41
1.0
 50
0.0
 71
0
 42
2.5
  3
LiberationSans-Italic.ttf
  4

  0
STYLE
  5
52
330
5
100
AcDbSymbolTableRecord
100
AcDbTextStyleTableRecord
  2
LiberationSerif
 70
0
 40
0.0
 41
1.0
 50
0.0
 71
0
 42
2.5
  3
LiberationSerif-Regular.ttf
  4

  0
STYLE
  5
53
330
5
100
AcDbSymbolTableRecord
100
AcDbTextStyleTableRecord
  2
LiberationSerif-Bold
 70
0
 40
0.0
 41
1.0
 50
0.0
 71
0
 42
2.5
  3
LiberationSerif-Bold.ttf
  4

  0
STYLE
  5
54
330
5
100
AcDbSymbolTableRecord
100
AcDbTextStyleTableRecord
  2
LiberationSerif-BoldItalic
 70
0
 40
0.0
 41
1.0
 50
0.0
 71
0
 42
2.5
  3
LiberationSerif-BoldItalic.ttf
  4

  0
STYLE
  5
55
330
5
100
AcDbSymbolTableRecord
100
AcDbTextStyleTableRecord
  2
LiberationSerif-Italic
 70
0
 40
0.0
 41
1.0
 50
0.0
 71
0
 42
2.5
  3
LiberationSerif-Italic.ttf
  4

  0
STYLE
  5
56
330
5
100
AcDbSymbolTableRecord
100
AcDbTextStyleTableRecord
  2
LiberationMono
 70
0
 40
0.0
 41
1.0
 50
0.0
 71
0
 42
2.5
  3
LiberationMono-Regular.ttf
  4

  0
STYLE
  5
57
330
5
100
AcDbSymbolTableRecord
100
AcDbTextStyleTableRecord
  2
LiberationMono-Bold
 70
0
 40
0.0
 41
1.0
 50
0.0
 71
0
 42
2.5
  3
LiberationMono-Bold.ttf
  4

  0
STYLE
  5
58
330
5
100
AcDbSymbolTableRecord
100
AcDbTextStyleTableRecord
  2
LiberationMono-BoldItalic
 70
0
 40
0.0
 41
1.0
 50
0.0
 71
0
 42
2.5
  3
LiberationMono-BoldItalic.ttf
  4

  0
STYLE
  5
59
330
5
100
AcDbSymbolTableRecord
100
AcDbTextStyleTableRecord
  2
LiberationMono-Italic
 70
0
 40
0.0
 41
1.0
 50
0.0
 71
0
 42
2.5
  3
LiberationMono-Italic.ttf
  4

  0
STYLE
  5
9B
330
5
100
AcDbSymbolTableRecord
100
AcDbTextStyleTableRecord
  2
ARC_REGULAR
 70
0
 40
0.0
 41
1.0
 50
0.0
 71
0
 42
2.5
  3
Arial.ttf
  4

  0
STYLE
  5
9C
330
5
100
AcDbSymbolTableRecord
100
AcDbTextStyleTableRecord
  2
ARC_BOLD
 70
0
 40
0.0
 41
1.0
 50
0.0
 71
0
 42
2.5
  3
Arialbd.ttf
  4

  0
STYLE
  5
9D
330
5
100
AcDbSymbolTableRecord
100
AcDbTextStyleTableRecord
  2
ARC_MONO
 70
0
 40
0.0
 41
1.0
 50
0.0
 71
0
 42
2.5
  3
Menlo.ttc
  4

  0
ENDTAB
  0
TABLE
  2
VIEW
  5
7
330
0
100
AcDbSymbolTable
 70
0
  0
ENDTAB
  0
TABLE
  2
UCS
  5
6
330
0
100
AcDbSymbolTable
 70
0
  0
ENDTAB
  0
TABLE
  2
APPID
  5
3
330
0
100
AcDbSymbolTable
 70
3
  0
APPID
  5
2A
330
3
100
AcDbSymbolTableRecord
100
AcDbRegAppTableRecord
  2
ACAD
 70
0
  0
APPID
  5
134
330
3
100
AcDbSymbolTableRecord
100
AcDbRegAppTableRecord
  2
HATCHBACKGROUNDCOLOR
 70
0
  0
APPID
  5
135
330
3
100
AcDbSymbolTableRecord
100
AcDbRegAppTableRecord
  2
EZDXF
 70
0
  0
ENDTAB
  0
TABLE
  2
DIMSTYLE
  5
4
330
0
100
AcDbSymbolTable
 70
12
100
AcDbDimStyleTable
  0
DIMSTYLE
105
2B
330
4
100
AcDbSymbolTableRecord
100
AcDbDimStyleTableRecord
  2
Standard
 70
0
 40
1.0
 41
2.5
 42
0.625
 43
3.75
 44
1.25
 45
0.0
 46
0.0
 47
0.0
 48
0.0
 49
2.5
140
2.5
141
2.5
142
0.0
143
0.03937007874
144
1.0
145
0.0
146
1.0
147
0.625
148
0.0
 69
0
 70
0
 71
0
 72
0
 73
0
 74
0
 75
0
 76
0
 77
1
 78
8
 79
3
170
0
171
3
172
1
173
0
174
0
175
0
176
0
177
0
178
0
179
2
271
2
272
2
273
2
274
3
275
0
276
0
277
2
278
44
279
0
280
0
281
0
282
0
283
0
284
8
285
0
286
0
288
0
289
3
290
0
371
-2
372
-2
  0
DIMSTYLE
105
73
330
4
100
AcDbSymbolTableRecord
100
AcDbDimStyleTableRecord
  2
EZDXF
 70
0
 40
1.0
 41
0.175
 42
0.125
 43
3.75
 44
0.375
 45
0.0
 46
0.0
 47
0.0
 48
0.0
 49
2.5
140
0.25
141
2.5
142
0.0
143
0.03937007874
144
100.0
145
0.0
146
0.5
147
0.1
148
0.0
 69
0
 70
0
 71
0
 72
0
 73
0
 74
0
 75
0
 76
0
 77
1
 78
12
 79
3
170
0
171
3
172
1
173
0
174
0
175
0
176
0
177
0
178
0
179
2
271
2
272
2
273
2
274
3
275
0
276
0
277
2
278
46
279
2
280
0
281
0
282
0
283
0
284
8
285
0
286
0
288
1
289
3
290
0
340
4C
342
74
371
-2
372
-2
  0
DIMSTYLE
105
7C
330
4
100
AcDbSymbolTableRecord
100
AcDbDimStyleTableRecord
  2
EZ_M_100_H25_CM
 70
0
 40
1.0
 41
0.25
 42
0.125
 43
3.75
 44
0.375
 45
0.0
 46
0.0
 47
0.0
 48
0.0
 49
2.5
140
0.25
141
2.5
142
0.125
143
0.03937007874
144
100.0
145
0.0
146
0.5
147
0.1
148
0.0
 69
0
 70
0
 71
0
 72
0
 73
0
 74
0
 75
0
 76
0
 77
1
 78
12
 79
3
170
0
171
3
172
1
173
0
174
0
175
0
176
0
177
0
178
0
179
2
271
2
272
2
273
2
274
3
275
0
276
0
277
2
278
46
279
2
280
0
281
0
282
0
283
0
284
8
285
0
286
0
288
1
289
3
290
0
340
4C
371
-2
372
-2
  0
DIMSTYLE
105
7D
330
4
100
AcDbSymbolTableRecord
100
AcDbDimStyleTableRecord
  2
EZ_M_50_H25_CM
 70
0
 40
1.0
 41
0.125
 42
0.0625
 43
3.75
 44
0.1875
 45
0.0
 46
0.0
 47
0.0
 48
0.0
 49
2.5
140
0.125
141
2.5
142
0.0625
143
0.03937007874
144
100.0
145
0.0
146
0.5
147
0.05
148
0.0
 69
0
 70
0
 71
0
 72
0
 73
0
 74
0
 75
0
 76
0
 77
1
 78
12
 79
3
170
0
171
3
172
1
173
0
174
0
175
0
176
0
177
0
178
0
179
2
271
2
272
2
273
2
274
3
275
0
276
0
277
2
278
46
279
2
280
0
281
0
282
0
283
0
284
8
285
0
286
0
288
1
289
3
290
0
340
4C
371
-2
372
-2
  0
DIMSTYLE
105
7E
330
4
100
AcDbSymbolTableRecord
100
AcDbDimStyleTableRecord
  2
EZ_M_25_H25_CM
 70
0
 40
1.0
 41
0.0625
 42
0.03125
 43
3.75
 44
0.09375
 45
0.0
 46
0.0
 47
0.0
 48
0.0
 49
2.5
140
0.0625
141
2.5
142
0.03125
143
0.03937007874
144
100.0
145
0.0
146
0.5
147
0.025
148
0.0
 69
0
 70
0
 71
0
 72
0
 73
0
 74
0
 75
0
 76
0
 77
1
 78
12
 79
3
170
0
171
3
172
1
173
0
174
0
175
0
176
0
177
0
178
0
179
2
271
2
272
2
273
2
274
3
275
0
276
0
277
2
278
46
279
2
280
0
281
0
282
0
283
0
284
8
285
0
286
0
288
1
289
3
290
0
340
4C
371
-2
372
-2
  0
DIMSTYLE
105
7F
330
4
100
AcDbSymbolTableRecord
100
AcDbDimStyleTableRecord
  2
EZ_M_20_H25_CM
 70
0
 40
1.0
 41
0.05
 42
0.025
 43
3.75
 44
0.07500000000000001
 45
0.0
 46
0.0
 47
0.0
 48
0.0
 49
2.5
140
0.05
141
2.5
142
0.025
143
0.03937007874
144
100.0
145
0.0
146
0.5
147
0.020000000000000004
148
0.0
 69
0
 70
0
 71
0
 72
0
 73
0
 74
0
 75
0
 76
0
 77
1
 78
12
 79
3
170
0
171
3
172
1
173
0
174
0
175
0
176
0
177
0
178
0
179
2
271
2
272
2
273
2
274
3
275
0
276
0
277
2
278
46
279
2
280
0
281
0
282
0
283
0
284
8
285
0
286
0
288
1
289
3
290
0
340
4C
371
-2
372
-2
  0
DIMSTYLE
105
80
330
4
100
AcDbSymbolTableRecord
100
AcDbDimStyleTableRecord
  2
EZ_M_10_H25_CM
 70
0
 40
1.0
 41
0.025
 42
0.0125
 43
3.75
 44
0.037500000000000006
 45
0.0
 46
0.0
 47
0.0
 48
0.0
 49
2.5
140
0.025
141
2.5
142
0.0125
143
0.03937007874
144
100.0
145
0.0
146
0.5
147
0.010000000000000002
148
0.0
 69
0
 70
0
 71
0
 72
0
 73
0
 74
0
 75
0
 76
0
 77
1
 78
12
 79
3
170
0
171
3
172
1
173
0
174
0
175
0
176
0
177
0
178
0
179
2
271
2
272
2
273
2
274
3
275
0
276
0
277
2
278
46
279
2
280
0
281
0
282
0
283
0
284
8
285
0
286
0
288
1
289
3
290
0
340
4C
371
-2
372
-2
  0
DIMSTYLE
105
81
330
4
100
AcDbSymbolTableRecord
100
AcDbDimStyleTableRecord
  2
EZ_M_5_H25_CM
 70
0
 40
1.0
 41
0.0125
 42
0.00625
 43
3.75
 44
0.018750000000000003
 45
0.0
 46
0.0
 47
0.0
 48
0.0
 49
2.5
140
0.0125
141
2.5
142
0.00625
143
0.03937007874
144
100.0
145
0.0
146
0.5
147
0.005000000000000001
148
0.0
 69
0
 70
0
 71
0
 72
0
 73
0
 74
0
 75
0
 76
0
 77
1
 78
12
 79
3
170
0
171
3
172
1
173
0
174
0
175
0
176
0
177
0
178
0
179
2
271
2
272
2
273
2
274
3
275
0
276
0
277
2
278
46
279
2
280
0
281
0
282
0
283
0
284
8
285
0
286
0
288
1
289
3
290
0
340
4C
371
-2
372
-2
  0
DIMSTYLE
105
82
330
4
100
AcDbSymbolTableRecord
100
AcDbDimStyleTableRecord
  2
EZ_M_1_H25_CM
 70
0
 40
1.0
 41
0.0025
 42
0.00125
 43
3.75
 44
0.00375
 45
0.0
 46
0.0
 47
0.0
 48
0.0
 49
2.5
140
0.0025
141
2.5
142
0.00125
143
0.03937007874
144
100.0
145
0.0
146
0.5
147
0.001
148
0.0
 69
0
 70
0
 71
0
 72
0
 73
0
 74
0
 75
0
 76
0
 77
1
 78
12
 79
3
170
0
171
3
172
1
173
0
174
0
175
0
176
0
177
0
178
0
179
2
271
2
272
2
273
2
274
3
275
0
276
0
277
2
278
46
279
2
280
0
281
0
282
0
283
0
284
8
285
0
286
0
288
1
289
3
290
0
340
4C
371
-2
372
-2
  0
DIMSTYLE
105
83
330
4
100
AcDbSymbolTableRecord
100
AcDbDimStyleTableRecord
  2
EZ_RADIUS
 70
0
 40
1.0
 41
0.25
 42
0.125
 43
3.75
 44
0.375
 45
0.0
 46
0.0
 47
0.0
 48
0.0
 49
2.5
140
0.25
141
0.0
142
0.0
143
0.03937007874
144
100.0
145
0.0
146
0.5
147
0.1
148
0.0
 69
0
 70
0
 71
0
 72
0
 73
0
 74
0
 75
0
 76
0
 77
1
 78
12
 79
3
170
0
171
3
172
0
173
0
174
0
175
0
176
0
177
0
178
0
179
2
271
2
272
2
273
2
274
3
275
0
276
0
277
2
278
46
279
1
280
0
281
0
282
0
283
0
284
8
285
0
286
0
288
1
289
3
290
0
340
4C
342
84
371
-2
372
-2
  0
DIMSTYLE
105
88
330
4
100
AcDbSymbolTableRecord
100
AcDbDimStyleTableRecord
  2
EZ_RADIUS_INSIDE
 70
0
 40
1.0
 41
0.25
 42
0.125
 43
3.75
 44
0.375
 45
0.0
 46
0.0
 47
0.0
 48
0.0
 49
2.5
140
0.25
141
0.0
142
0.0
143
0.03937007874
144
100.0
145
0.0
146
0.5
147
0.1
148
0.0
 69
0
 70
0
 71
0
 72
0
 73
0
 74
0
 75
0
 76
0
 77
0
 78
12
 79
3
170
0
171
3
172
0
173
0
174
1
175
0
176
0
177
0
178
0
179
2
271
2
272
2
273
2
274
3
275
0
276
0
277
2
278
46
279
0
280
0
281
0
282
0
283
0
284
8
285
0
286
0
288
1
289
0
290
0
340
4C
342
84
371
-2
372
-2
  0
DIMSTYLE
105
89
330
4
100
AcDbSymbolTableRecord
100
AcDbDimStyleTableRecord
  2
EZ_CURVED
 70
0
 40
1.0
 41
0.25
 42
0.125
 43
3.75
 44
0.375
 45
0.0
 46
0.0
 47
0.0
 48
0.0
 49
2.5
140
0.25
141
2.5
142
0.0
143
0.03937007874
144
100.0
145
0.0
146
0.5
147
0.1
148
0.0
 69
0
 70
0
 71
0
 72
0
 73
0
 74
0
 75
0
 76
0
 77
1
 78
12
 79
2
 90
2
170
0
171
3
172
1
173
0
174
0
175
0
176
0
177
0
178
0
179
2
271
2
272
2
273
2
274
3
275
0
276
0
277
2
278
46
279
2
280
0
281
0
282
0
283
0
284
8
285
0
286
0
288
1
289
3
290
0
340
4C
371
-2
372
-2
  0
ENDTAB
  0
TABLE
  2
BLOCK_RECORD
  5
9
330
0
100
AcDbSymbolTable
 70
5
  0
BLOCK_RECORD
  5
17
330
9
100
AcDbSymbolTableRecord
100
AcDbBlockTableRecord
  2
*Model_Space
340
1A
 70
0
280
1
281
0
  0
BLOCK_RECORD
  5
1B
330
9
100
AcDbSymbolTableRecord
100
AcDbBlockTableRecord
  2
*Paper_Space
340
1E
 70
0
280
1
281
0
  0
BLOCK_RECORD
  5
74
330
9
100
AcDbSymbolTableRecord
100
AcDbBlockTableRecord
  2
_ARCHTICK
340
0
 70
0
280
1
281
0
  0
BLOCK_RECORD
  5
78
330
9
100
AcDbSymbolTableRecord
100
AcDbBlockTableRecord
  2
_CLOSEDFILLED
340
0
 70
0
280
1
281
0
  0
BLOCK_RECORD
  5
84
330
9
100
AcDbSymbolTableRecord
100
AcDbBlockTableRecord
  2
_CLOSEDBLANK
340
0
 70
0
280
1
281
0
  0
ENDTAB
  0
ENDSEC
  0
SECTION
  2
BLOCKS
  0
BLOCK
  5
18
330
17
100
AcDbEntity
  8
0
100
AcDbBlockBegin
  2
*Model_Space
 70
0
 10
0.0
 20
0.0
 30
0.0
  3
*Model_Space
  1

  0
ENDBLK
  5
19
330
17
100
AcDbEntity
  8
0
100
AcDbBlockEnd
  0
BLOCK
  5
1C
330
1B
100
AcDbEntity
  8
0
100
AcDbBlockBegin
  2
*Paper_Space
 70
0
 10
0.0
 20
0.0
 30
0.0
  3
*Paper_Space
  1

  0
ENDBLK
  5
1D
330
1B
100
AcDbEntity
  8
0
100
AcDbBlockEnd
  0
BLOCK
  5
75
330
74
100
AcDbEntity
  8
0
100
AcDbBlockBegin
  2
_ARCHTICK
 70
0
 10
0.0
 20
0.0
 30
0.0
  3
_ARCHTICK
  1

  0
LWPOLYLINE
  5
77
330
74
100
AcDbEntity
  8
0
  6
BYBLOCK
 62
0
100
AcDbPolyline
 90
2
 70
0
 43
0.15
 10
-0.5
 20
-0.5
 10
0.5
 20
0.5
  0
ENDBLK
  5
76
330
74
100
AcDbEntity
  8
0
100
AcDbBlockEnd
  0
BLOCK
  5
79
330
78
100
AcDbEntity
  8
0
100
AcDbBlockBegin
  2
_CLOSEDFILLED
 70
0
 10
0.0
 20
0.0
 30
0.0
  3
_CLOSEDFILLED
  1

  0
SOLID
  5
7B
330
78
100
AcDbEntity
  8
0
  6
BYBLOCK
 62
0
100
AcDbTrace
 10
-1.0
 20
0.16439898372402537
 30
0.0
 11
0.0
 21
0.0
 31
0.0
 12
-1.0
 22
-0.16439898372402537
 32
0.0
 13
-1.0
 23
-0.16439898372402537
 33
0.0
  0
ENDBLK
  5
7A
330
78
100
AcDbEntity
  8
0
100
AcDbBlockEnd
  0
BLOCK
  5
85
330
84
100
AcDbEntity
  8
0
100
AcDbBlockBegin
  2
_CLOSEDBLANK
 70
0
 10
0.0
 20
0.0
 30
0.0
  3
_CLOSEDBLANK
  1

  0
LWPOLYLINE
  5
87
330
84
100
AcDbEntity
  8
0
  6
BYBLOCK
 62
0
100
AcDbPolyline
 90
3
 70
1
 10
-1.0
 20
0.16439898372402537
 10
0.0
 20
0.0
 10
-1.0
 20
-0.16439898372402537
  0
ENDBLK
  5
86
330
84
100
AcDbEntity
  8
0
100
AcDbBlockEnd
  0
ENDSEC
  0
SECTION
  2
ENTITIES
  0
HATCH
  5
9E
330
17
100
AcDbEntity
  8
ARC_BACKGROUND
 62
7
420
16777215
100
AcDbHatch
 10
0.0
 20
0.0
 30
0.0
210
0.0
220
0.0
230
1.0
  2
SOLID
 70
1
 71
0
 91
1
 92
3
 72
0
 73
1
 93
4
 10
0.0
 20
252.5
 10
420.0
 20
252.5
 10
420.0
 20
0.0
 10
0.0
 20
0.0
 97
0
 75
0
 76
1
 98
0
  0
TEXT
  5
9F
330
17
100
AcDbEntity
  8
ARC_TEXT
420
988970
100
AcDbText
 10
10.0
 20
239.5
 30
0.0
 40
6.5
  1
TEC Totota Minigrid — ARC Communication Architecture
  7
ARC_BOLD
 11
10.0
 21
239.5
 31
0.0
100
AcDbText
  0
TEXT
  5
A0
330
17
100
AcDbEntity
  8
ARC_TEXT
420
4674921
100
AcDbText
 10
10.0
 20
232.5
 30
0.0
 40
2.34
  1
ARC (Ageto Remote Controller) is the single Modbus master of the plant · LAN 192.168.0.0/24 · all endpoints Modbus TCP :502 · Totota Electric Cooperative, Liberia · 2026-07-10
  7
ARC_REGULAR
 11
10.0
 21
232.5
 31
0.0
100
AcDbText
  0
HATCH
  5
A1
330
17
100
AcDbEntity
  8
ARC_ZONES
 62
7
420
15857145
100
AcDbHatch
 10
0.0
 20
0.0
 30
0.0
210
0.0
220
0.0
230
1.0
  2
SOLID
 70
1
 71
0
 91
1
 92
3
 72
0
 73
1
 93
20
 10
407.0
 20
248.0
 10
408.14805029709527
 20
247.77163859753387
 10
409.12132034355966
 20
247.12132034355963
 10
409.77163859753387
 20
246.14805029709527
 10
410.0
 20
245.0
 10
410.0
 20
228.5
 10
409.77163859753387
 20
227.35194970290473
 10
409.12132034355966
 20
226.37867965644037
 10
408.14805029709527
 20
225.72836140246613
 10
407.0
 20
225.5
 10
290.5
 20
225.5
 10
289.35194970290473
 20
225.72836140246613
 10
288.37867965644034
 20
226.37867965644037
 10
287.72836140246613
 20
227.35194970290473
 10
287.5
 20
228.5
 10
287.5
 20
245.0
 10
287.72836140246613
 20
246.14805029709527
 10
288.37867965644034
 20
247.12132034355963
 10
289.35194970290473
 20
247.77163859753387
 10
290.5
 20
248.0
 97
0
 75
0
 76
1
 98
0
  0
LWPOLYLINE
  5
A2
330
17
100
AcDbEntity
  8
ARC_ZONES
  6
CONTINUOUS
370
40
420
13358561
100
AcDbPolyline
 90
20
 70
1
 10
407.0
 20
248.0
 10
408.14805029709527
 20
247.77163859753387
 10
409.12132034355966
 20
247.12132034355963
 10
409.77163859753387
 20
246.14805029709527
 10
410.0
 20
245.0
 10
410.0
 20
228.5
 10
409.77163859753387
 20
227.35194970290473
 10
409.12132034355966
 20
226.37867965644037
 10
408.14805029709527
 20
225.72836140246613
 10
407.0
 20
225.5
 10
290.5
 20
225.5
 10
289.35194970290473
 20
225.72836140246613
 10
288.37867965644034
 20
226.37867965644037
 10
287.72836140246613
 20
227.35194970290473
 10
287.5
 20
228.5
 10
287.5
 20
245.0
 10
287.72836140246613
 20
246.14805029709527
 10
288.37867965644034
 20
247.12132034355963
 10
289.35194970290473
 20
247.77163859753387
 10
290.5
 20
248.0
  0
LWPOLYLINE
  5
A3
330
17
100
AcDbEntity
  8
ARC_ETHERNET
  6
CONTINUOUS
370
50
420
4674921
100
AcDbPolyline
 90
2
 70
0
 10
292.5
 20
244.0
 10
303.75
 20
244.0
  0
TEXT
  5
A4
330
17
100
AcDbEntity
  8
ARC_TEXT
420
4674921
100
AcDbText
 10
306.25
 20
243.0
 30
0.0
 40
2.475
  1
Ethernet (Modbus TCP :502)
  7
ARC_REGULAR
 11
306.25
 21
243.0
 31
0.0
100
AcDbText
  0
LWPOLYLINE
  5
A5
330
17
100
AcDbEntity
  8
ARC_RS485
  6
ARC_DASHED
370
70
420
14251782
100
AcDbPolyline
 90
2
 70
0
 10
292.5
 20
238.75
 10
303.75
 20
238.75
  0
TEXT
  5
A6
330
17
100
AcDbEntity
  8
ARC_TEXT
420
4674921
100
AcDbText
 10
306.25
 20
237.75
 30
0.0
 40
2.475
  1
RS485 serial (Modbus RTU)
  7
ARC_REGULAR
 11
306.25
 21
237.75
 31
0.0
100
AcDbText
  0
LWPOLYLINE
  5
A7
330
17
100
AcDbEntity
  8
ARC_VPN
  6
ARC_DOTTED
370
50
420
165063
100
AcDbPolyline
 90
2
 70
0
 10
292.5
 20
233.5
 10
303.75
 20
233.5
  0
TEXT
  5
A8
330
17
100
AcDbEntity
  8
ARC_TEXT
420
4674921
100
AcDbText
 10
306.25
 20
232.5
 30
0.0
 40
2.475
  1
Internet / VPN
  7
ARC_REGULAR
 11
306.25
 21
232.5
 31
0.0
100
AcDbText
  0
LWPOLYLINE
  5
A9
330
17
100
AcDbEntity
  8
ARC_HARDWIRED_IO
  6
ARC_DOTTED
370
50
420
9741240
100
AcDbPolyline
 90
2
 70
0
 10
292.5
 20
228.25
 10
303.75
 20
228.25
  0
TEXT
  5
AA
330
17
100
AcDbEntity
  8
ARC_TEXT
420
4674921
100
AcDbText
 10
306.25
 20
227.25
 30
0.0
 40
1.9249999999999998
  1
Hardwired I/O (in service, no network)
  7
ARC_REGULAR
 11
306.25
 21
227.25
 31
0.0
100
AcDbText
  0
HATCH
  5
AB
330
17
100
AcDbEntity
  8
ARC_CONTROL
 62
7
420
15398643
100
AcDbHatch
 10
0.0
 20
0.0
 30
0.0
210
0.0
220
0.0
230
1.0
  2
SOLID
 70
1
 71
0
 91
1
 92
3
 72
0
 73
1
 93
20
 10
357.5
 20
245.75
 10
357.88268343236507
 20
245.67387953251128
 10
358.20710678118655
 20
245.45710678118655
 10
358.4238795325113
 20
245.1326834323651
 10
358.5
 20
244.75
 10
358.5
 20
243.25
 10
358.4238795325113
 20
242.8673165676349
 10
358.20710678118655
 20
242.54289321881345
 10
357.88268343236507
 20
242.32612046748872
 10
357.5
 20
242.25
 10
356.0
 20
242.25
 10
355.61731656763493
 20
242.32612046748872
 10
355.29289321881345
 20
242.54289321881345
 10
355.0761204674887
 20
242.8673165676349
 10
355.0
 20
243.25
 10
355.0
 20
244.75
 10
355.0761204674887
 20
245.1326834323651
 10
355.29289321881345
 20
245.45710678118655
 10
355.61731656763493
 20
245.67387953251128
 10
356.0
 20
245.75
 97
0
 75
0
 76
1
 98
0
  0
LWPOLYLINE
  5
AC
330
17
100
AcDbEntity
  8
ARC_CONTROL
  6
CONTINUOUS
370
25
420
366185
100
AcDbPolyline
 90
20
 70
1
 10
357.5
 20
245.75
 10
357.88268343236507
 20
245.67387953251128
 10
358.20710678118655
 20
245.45710678118655
 10
358.4238795325113
 20
245.1326834323651
 10
358.5
 20
244.75
 10
358.5
 20
243.25
 10
358.4238795325113
 20
242.8673165676349
 10
358.20710678118655
 20
242.54289321881345
 10
357.88268343236507
 20
242.32612046748872
 10
357.5
 20
242.25
 10
356.0
 20
242.25
 10
355.61731656763493
 20
242.32612046748872
 10
355.29289321881345
 20
242.54289321881345
 10
355.0761204674887
 20
242.8673165676349
 10
355.0
 20
243.25
 10
355.0
 20
244.75
 10
355.0761204674887
 20
245.1326834323651
 10
355.29289321881345
 20
245.45710678118655
 10
355.61731656763493
 20
245.67387953251128
 10
356.0
 20
245.75
  0
TEXT
  5
AD
330
17
100
AcDbEntity
  8
ARC_TEXT
420
4674921
100
AcDbText
 10
360.5
 20
242.75
 30
0.0
 40
2.475
  1
ARC CONTROLS (read + write)
  7
ARC_REGULAR
 11
360.5
 21
242.75
 31
0.0
100
AcDbText
  0
HATCH
  5
AE
330
17
100
AcDbEntity
  8
ARC_MONITOR
 62
7
420
15398394
100
AcDbHatch
 10
0.0
 20
0.0
 30
0.0
210
0.0
220
0.0
230
1.0
  2
SOLID
 70
1
 71
0
 91
1
 92
3
 72
0
 73
1
 93
20
 10
357.5
 20
238.75
 10
357.88268343236507
 20
238.67387953251128
 10
358.20710678118655
 20
238.45710678118655
 10
358.4238795325113
 20
238.1326834323651
 10
358.5
 20
237.75
 10
358.5
 20
236.25
 10
358.4238795325113
 20
235.8673165676349
 10
358.20710678118655
 20
235.54289321881345
 10
357.88268343236507
 20
235.32612046748872
 10
357.5
 20
235.25
 10
356.0
 20
235.25
 10
355.61731656763493
 20
235.32612046748872
 10
355.29289321881345
 20
235.54289321881345
 10
355.0761204674887
 20
235.8673165676349
 10
355.0
 20
236.25
 10
355.0
 20
237.75
 10
355.0761204674887
 20
238.1326834323651
 10
355.29289321881345
 20
238.45710678118655
 10
355.61731656763493
 20
238.67387953251128
 10
356.0
 20
238.75
 97
0
 75
0
 76
1
 98
0
  0
LWPOLYLINE
  5
AF
330
17
100
AcDbEntity
  8
ARC_MONITOR
  6
CONTINUOUS
370
25
420
165063
100
AcDbPolyline
 90
20
 70
1
 10
357.5
 20
238.75
 10
357.88268343236507
 20
238.67387953251128
 10
358.20710678118655
 20
238.45710678118655
 10
358.4238795325113
 20
238.1326834323651
 10
358.5
 20
237.75
 10
358.5
 20
236.25
 10
358.4238795325113
 20
235.8673165676349
 10
358.20710678118655
 20
235.54289321881345
 10
357.88268343236507
 20
235.32612046748872
 10
357.5
 20
235.25
 10
356.0
 20
235.25
 10
355.61731656763493
 20
235.32612046748872
 10
355.29289321881345
 20
235.54289321881345
 10
355.0761204674887
 20
235.8673165676349
 10
355.0
 20
236.25
 10
355.0
 20
237.75
 10
355.0761204674887
 20
238.1326834323651
 10
355.29289321881345
 20
238.45710678118655
 10
355.61731656763493
 20
238.67387953251128
 10
356.0
 20
238.75
  0
TEXT
  5
B0
330
17
100
AcDbEntity
  8
ARC_TEXT
420
4674921
100
AcDbText
 10
360.5
 20
235.75
 30
0.0
 40
2.475
  1
ARC MONITORS (read only)
  7
ARC_REGULAR
 11
360.5
 21
235.75
 31
0.0
100
AcDbText
  0
HATCH
  5
B1
330
17
100
AcDbEntity
  8
ARC_MISC
 62
7
420
16317180
100
AcDbHatch
 10
0.0
 20
0.0
 30
0.0
210
0.0
220
0.0
230
1.0
  2
SOLID
 70
1
 71
0
 91
1
 92
3
 72
0
 73
1
 93
20
 10
357.5
 20
231.75
 10
357.88268343236507
 20
231.67387953251128
 10
358.20710678118655
 20
231.45710678118655
 10
358.4238795325113
 20
231.1326834323651
 10
358.5
 20
230.75
 10
358.5
 20
229.25
 10
358.4238795325113
 20
228.8673165676349
 10
358.20710678118655
 20
228.54289321881345
 10
357.88268343236507
 20
228.32612046748872
 10
357.5
 20
228.25
 10
356.0
 20
228.25
 10
355.61731656763493
 20
228.32612046748872
 10
355.29289321881345
 20
228.54289321881345
 10
355.0761204674887
 20
228.8673165676349
 10
355.0
 20
229.25
 10
355.0
 20
230.75
 10
355.0761204674887
 20
231.1326834323651
 10
355.29289321881345
 20
231.45710678118655
 10
355.61731656763493
 20
231.67387953251128
 10
356.0
 20
231.75
 97
0
 75
0
 76
1
 98
0
  0
LWPOLYLINE
  5
B2
330
17
100
AcDbEntity
  8
ARC_MISC
  6
ARC_DASHED
370
25
420
13358561
100
AcDbPolyline
 90
20
 70
1
 10
357.5
 20
231.75
 10
357.88268343236507
 20
231.67387953251128
 10
358.20710678118655
 20
231.45710678118655
 10
358.4238795325113
 20
231.1326834323651
 10
358.5
 20
230.75
 10
358.5
 20
229.25
 10
358.4238795325113
 20
228.8673165676349
 10
358.20710678118655
 20
228.54289321881345
 10
357.88268343236507
 20
228.32612046748872
 10
357.5
 20
228.25
 10
356.0
 20
228.25
 10
355.61731656763493
 20
228.32612046748872
 10
355.29289321881345
 20
228.54289321881345
 10
355.0761204674887
 20
228.8673165676349
 10
355.0
 20
229.25
 10
355.0
 20
230.75
 10
355.0761204674887
 20
231.1326834323651
 10
355.29289321881345
 20
231.45710678118655
 10
355.61731656763493
 20
231.67387953251128
 10
356.0
 20
231.75
  0
TEXT
  5
B3
330
17
100
AcDbEntity
  8
ARC_TEXT
420
4674921
100
AcDbText
 10
360.5
 20
228.75
 30
0.0
 40
2.475
  1
Not yet in service
  7
ARC_REGULAR
 11
360.5
 21
228.75
 31
0.0
100
AcDbText
  0
HATCH
  5
B4
330
17
100
AcDbEntity
  8
ARC_ZONES
 62
7
420
15857145
100
AcDbHatch
 10
0.0
 20
0.0
 30
0.0
210
0.0
220
0.0
230
1.0
  2
SOLID
 70
1
 71
0
 91
1
 92
3
 72
0
 73
1
 93
20
 10
406.5
 20
222.5
 10
407.8393920132778
 20
222.2335783637895
 10
408.97487373415294
 20
221.4748737341529
 10
409.7335783637895
 20
220.3393920132778
 10
410.0
 20
219.0
 10
410.0
 20
153.5
 10
409.7335783637895
 20
152.1606079867222
 10
408.97487373415294
 20
151.02512626584706
 10
407.8393920132778
 20
150.2664216362105
 10
406.5
 20
150.0
 10
13.5
 20
150.0
 10
12.160607986722185
 20
150.2664216362105
 10
11.025126265847085
 20
151.02512626584706
 10
10.266421636210497
 20
152.1606079867222
 10
10.0
 20
153.5
 10
10.0
 20
219.0
 10
10.266421636210495
 20
220.3393920132778
 10
11.025126265847083
 20
221.4748737341529
 10
12.160607986722187
 20
222.2335783637895
 10
13.5
 20
222.5
 97
0
 75
0
 76
1
 98
0
  0
LWPOLYLINE
  5
B5
330
17
100
AcDbEntity
  8
ARC_ZONES
  6
CONTINUOUS
370
40
420
13358561
100
AcDbPolyline
 90
20
 70
1
 10
406.5
 20
222.5
 10
407.8393920132778
 20
222.2335783637895
 10
408.97487373415294
 20
221.4748737341529
 10
409.7335783637895
 20
220.3393920132778
 10
410.0
 20
219.0
 10
410.0
 20
153.5
 10
409.7335783637895
 20
152.1606079867222
 10
408.97487373415294
 20
151.02512626584706
 10
407.8393920132778
 20
150.2664216362105
 10
406.5
 20
150.0
 10
13.5
 20
150.0
 10
12.160607986722185
 20
150.2664216362105
 10
11.025126265847085
 20
151.02512626584706
 10
10.266421636210497
 20
152.1606079867222
 10
10.0
 20
153.5
 10
10.0
 20
219.0
 10
10.266421636210495
 20
220.3393920132778
 10
11.025126265847083
 20
221.4748737341529
 10
12.160607986722187
 20
222.2335783637895
 10
13.5
 20
222.5
  0
TEXT
  5
B6
330
17
100
AcDbEntity
  8
ARC_TEXT
420
6583435
100
AcDbText
 10
15.0
 20
215.5
 30
0.0
 40
2.7
  1
CONTROL ROOM
  7
ARC_BOLD
 11
15.0
 21
215.5
 31
0.0
100
AcDbText
  0
HATCH
  5
B7
330
17
100
AcDbEntity
  8
ARC_DEVICE_BOXES
 62
7
420
16777215
100
AcDbHatch
 10
0.0
 20
0.0
 30
0.0
210
0.0
220
0.0
230
1.0
  2
SOLID
 70
1
 71
0
 91
1
 92
3
 72
0
 73
1
 93
20
 10
82.5
 20
210.0
 10
83.45670858091272
 20
209.8096988312782
 10
84.26776695296637
 20
209.26776695296638
 10
84.80969883127821
 20
208.45670858091273
 10
85.0
 20
207.5
 10
85.0
 20
192.5
 10
84.80969883127821
 20
191.54329141908727
 10
84.26776695296637
 20
190.73223304703362
 10
83.45670858091272
 20
190.1903011687218
 10
82.5
 20
190.0
 10
25.0
 20
190.0
 10
24.043291419087275
 20
190.1903011687218
 10
23.23223304703363
 20
190.73223304703362
 10
22.69030116872178
 20
191.54329141908727
 10
22.5
 20
192.5
 10
22.5
 20
207.5
 10
22.69030116872178
 20
208.45670858091273
 10
23.23223304703363
 20
209.26776695296638
 10
24.043291419087275
 20
209.8096988312782
 10
25.0
 20
210.0
 97
0
 75
0
 76
1
 98
0
  0
LWPOLYLINE
  5
B8
330
17
100
AcDbEntity
  8
ARC_DEVICE_BOXES
  6
CONTINUOUS
370
40
420
9741240
100
AcDbPolyline
 90
20
 70
1
 10
82.5
 20
210.0
 10
83.45670858091272
 20
209.8096988312782
 10
84.26776695296637
 20
209.26776695296638
 10
84.80969883127821
 20
208.45670858091273
 10
85.0
 20
207.5
 10
85.0
 20
192.5
 10
84.80969883127821
 20
191.54329141908727
 10
84.26776695296637
 20
190.73223304703362
 10
83.45670858091272
 20
190.1903011687218
 10
82.5
 20
190.0
 10
25.0
 20
190.0
 10
24.043291419087275
 20
190.1903011687218
 10
23.23223304703363
 20
190.73223304703362
 10
22.69030116872178
 20
191.54329141908727
 10
22.5
 20
192.5
 10
22.5
 20
207.5
 10
22.69030116872178
 20
208.45670858091273
 10
23.23223304703363
 20
209.26776695296638
 10
24.043291419087275
 20
209.8096988312782
 10
25.0
 20
210.0
  0
TEXT
  5
B9
330
17
100
AcDbEntity
  8
ARC_TEXT
420
988970
100
AcDbText
 10
27.0
 20
204.0
 30
0.0
 40
3.15
  1
Ageto remote support
  7
ARC_BOLD
 11
27.0
 21
204.0
 31
0.0
100
AcDbText
  0
TEXT
  5
BA
330
17
100
AcDbEntity
  8
ARC_TEXT
420
4674921
100
AcDbText
 10
27.0
 20
199.5
 30
0.0
 40
2.475
  1
Talk2M VPN cloud · eCatcher clients
  7
ARC_REGULAR
 11
27.0
 21
199.5
 31
0.0
100
AcDbText
  0
TEXT
  5
BB
330
17
100
AcDbEntity
  8
ARC_TEXT
420
6583435
100
AcDbText
 10
27.0
 20
195.5
 30
0.0
 40
2.3625000000000003
  1
vendor access into the whole ARC LAN
  7
ARC_REGULAR
 11
27.0
 21
195.5
 31
0.0
100
AcDbText
  0
HATCH
  5
BC
330
17
100
AcDbEntity
  8
ARC_DEVICE_BOXES
 62
7
420
16777215
100
AcDbHatch
 10
0.0
 20
0.0
 30
0.0
210
0.0
220
0.0
230
1.0
  2
SOLID
 70
1
 71
0
 91
1
 92
3
 72
0
 73
1
 93
20
 10
87.5
 20
180.0
 10
88.45670858091272
 20
179.8096988312782
 10
89.26776695296637
 20
179.26776695296638
 10
89.80969883127821
 20
178.45670858091273
 10
90.0
 20
177.5
 10
90.0
 20
159.5
 10
89.80969883127821
 20
158.54329141908727
 10
89.26776695296637
 20
157.73223304703362
 10
88.45670858091272
 20
157.1903011687218
 10
87.5
 20
157.0
 10
35.0
 20
157.0
 10
34.043291419087275
 20
157.1903011687218
 10
33.23223304703363
 20
157.73223304703362
 10
32.69030116872178
 20
158.54329141908727
 10
32.5
 20
159.5
 10
32.5
 20
177.5
 10
32.69030116872178
 20
178.45670858091273
 10
33.23223304703363
 20
179.26776695296638
 10
34.043291419087275
 20
179.8096988312782
 10
35.0
 20
180.0
 97
0
 75
0
 76
1
 98
0
  0
LWPOLYLINE
  5
BD
330
17
100
AcDbEntity
  8
ARC_DEVICE_BOXES
  6
CONTINUOUS
370
40
420
9741240
100
AcDbPolyline
 90
20
 70
1
 10
87.5
 20
180.0
 10
88.45670858091272
 20
179.8096988312782
 10
89.26776695296637
 20
179.26776695296638
 10
89.80969883127821
 20
178.45670858091273
 10
90.0
 20
177.5
 10
90.0
 20
159.5
 10
89.80969883127821
 20
158.54329141908727
 10
89.26776695296637
 20
157.73223304703362
 10
88.45670858091272
 20
157.1903011687218
 10
87.5
 20
157.0
 10
35.0
 20
157.0
 10
34.043291419087275
 20
157.1903011687218
 10
33.23223304703363
 20
157.73223304703362
 10
32.69030116872178
 20
158.54329141908727
 10
32.5
 20
159.5
 10
32.5
 20
177.5
 10
32.69030116872178
 20
178.45670858091273
 10
33.23223304703363
 20
179.26776695296638
 10
34.043291419087275
 20
179.8096988312782
 10
35.0
 20
180.0
  0
TEXT
  5
BE
330
17
100
AcDbEntity
  8
ARC_IP_ADDRESSES
420
223649
100
AcDbText
 10
37.0
 20
174.0
 30
0.0
 40
2.7
  1
.21
  7
ARC_MONO
 11
37.0
 21
174.0
 31
0.0
100
AcDbText
  0
TEXT
  5
BF
330
17
100
AcDbEntity
  8
ARC_TEXT
420
988970
100
AcDbText
 10
46.25
 20
174.0
 30
0.0
 40
3.15
  1
eWon Flexy 205
  7
ARC_BOLD
 11
46.25
 21
174.0
 31
0.0
100
AcDbText
  0
TEXT
  5
C0
330
17
100
AcDbEntity
  8
ARC_TEXT
420
4674921
100
AcDbText
 10
37.0
 20
169.5
 30
0.0
 40
2.475
  1
VPN gateway to Talk2M
  7
ARC_REGULAR
 11
37.0
 21
169.5
 31
0.0
100
AcDbText
  0
TEXT
  5
C1
330
17
100
AcDbEntity
  8
ARC_TEXT
420
4674921
100
AcDbText
 10
37.0
 20
165.5
 30
0.0
 40
2.475
  1
WAN 192.168.1.100
  7
ARC_REGULAR
 11
37.0
 21
165.5
 31
0.0
100
AcDbText
  0
LWPOLYLINE
  5
C2
330
17
100
AcDbEntity
  8
ARC_VPN
  6
ARC_DOTTED
370
50
420
165063
100
AcDbPolyline
 90
2
 70
0
 10
61.25
 20
180.0
 10
61.25
 20
190.0
  0
HATCH
  5
C3
330
17
100
AcDbEntity
  8
ARC_DEVICE_BOXES
 62
7
420
16777215
100
AcDbHatch
 10
0.0
 20
0.0
 30
0.0
210
0.0
220
0.0
230
1.0
  2
SOLID
 70
1
 71
0
 91
1
 92
3
 72
0
 73
1
 93
20
 10
237.0
 20
210.0
 10
238.14805029709527
 20
209.77163859753387
 10
239.12132034355963
 20
209.12132034355966
 10
239.77163859753387
 20
208.14805029709527
 10
240.0
 20
207.0
 10
240.0
 20
180.5
 10
239.77163859753387
 20
179.35194970290473
 10
239.12132034355963
 20
178.37867965644034
 10
238.14805029709527
 20
177.72836140246613
 10
237.0
 20
177.5
 10
143.0
 20
177.5
 10
141.85194970290473
 20
177.72836140246613
 10
140.87867965644037
 20
178.37867965644034
 10
140.22836140246613
 20
179.35194970290473
 10
140.0
 20
180.5
 10
140.0
 20
207.0
 10
140.22836140246613
 20
208.14805029709527
 10
140.87867965644037
 20
209.12132034355966
 10
141.85194970290473
 20
209.77163859753387
 10
143.0
 20
210.0
 97
0
 75
0
 76
1
 98
0
  0
LWPOLYLINE
  5
C4
330
17
100
AcDbEntity
  8
ARC_DEVICE_BOXES
  6
CONTINUOUS
370
40
420
9741240
100
AcDbPolyline
 90
20
 70
1
 10
237.0
 20
210.0
 10
238.14805029709527
 20
209.77163859753387
 10
239.12132034355963
 20
209.12132034355966
 10
239.77163859753387
 20
208.14805029709527
 10
240.0
 20
207.0
 10
240.0
 20
180.5
 10
239.77163859753387
 20
179.35194970290473
 10
239.12132034355963
 20
178.37867965644034
 10
238.14805029709527
 20
177.72836140246613
 10
237.0
 20
177.5
 10
143.0
 20
177.5
 10
141.85194970290473
 20
177.72836140246613
 10
140.87867965644037
 20
178.37867965644034
 10
140.22836140246613
 20
179.35194970290473
 10
140.0
 20
180.5
 10
140.0
 20
207.0
 10
140.22836140246613
 20
208.14805029709527
 10
140.87867965644037
 20
209.12132034355966
 10
141.85194970290473
 20
209.77163859753387
 10
143.0
 20
210.0
  0
TEXT
  5
C5
330
17
100
AcDbEntity
  8
ARC_IP_ADDRESSES
420
223649
100
AcDbText
 10
145.5
 20
202.5
 30
0.0
 40
3.15
  1
.20
  7
ARC_MONO
 11
145.5
 21
202.5
 31
0.0
100
AcDbText
  0
TEXT
  5
C6
330
17
100
AcDbEntity
  8
ARC_TEXT
420
988970
100
AcDbText
 10
156.25
 20
202.5
 30
0.0
 40
3.825
  1
Ageto Remote Controller (ARC)
  7
ARC_BOLD
 11
156.25
 21
202.5
 31
0.0
100
AcDbText
  0
TEXT
  5
C7
330
17
100
AcDbEntity
  8
ARC_TEXT
420
4674921
100
AcDbText
 10
145.5
 20
197.0
 30
0.0
 40
2.475
  1
Moxa MC-1112 IPC · continuous polling + dispatch loop
  7
ARC_REGULAR
 11
145.5
 21
197.0
 31
0.0
100
AcDbText
  0
TEXT
  5
C8
330
17
100
AcDbEntity
  8
ARC_TEXT
420
4674921
100
AcDbText
 10
145.5
 20
193.0
 30
0.0
 40
2.475
  1
balances PV / BESS / genset against the site load
  7
ARC_REGULAR
 11
145.5
 21
193.0
 31
0.0
100
AcDbText
  0
HATCH
  5
C9
330
17
100
AcDbEntity
  8
ARC_CONTROL
 62
7
420
15595764
100
AcDbHatch
 10
0.0
 20
0.0
 30
0.0
210
0.0
220
0.0
230
1.0
  2
SOLID
 70
1
 71
0
 91
1
 92
3
 72
0
 73
1
 93
20
 10
201.25
 20
189.5
 10
201.9196960066389
 20
189.36678918189475
 10
202.48743686707647
 20
188.98743686707647
 10
202.86678918189475
 20
188.4196960066389
 10
203.0
 20
187.75
 10
203.0
 20
184.75
 10
202.86678918189475
 20
184.0803039933611
 10
202.48743686707647
 20
183.51256313292356
 10
201.9196960066389
 20
183.13321081810525
 10
201.25
 20
183.0
 10
147.25
 20
183.0
 10
146.5803039933611
 20
183.13321081810525
 10
146.01256313292353
 20
183.51256313292356
 10
145.63321081810525
 20
184.0803039933611
 10
145.5
 20
184.75
 10
145.5
 20
187.75
 10
145.63321081810525
 20
188.4196960066389
 10
146.01256313292353
 20
188.98743686707647
 10
146.5803039933611
 20
189.36678918189475
 10
147.25
 20
189.5
 97
0
 75
0
 76
1
 98
0
  0
LWPOLYLINE
  5
CA
330
17
100
AcDbEntity
  8
ARC_CONTROL
  6
CONTINUOUS
370
25
420
10606535
100
AcDbPolyline
 90
20
 70
1
 10
201.25
 20
189.5
 10
201.9196960066389
 20
189.36678918189475
 10
202.48743686707647
 20
188.98743686707647
 10
202.86678918189475
 20
188.4196960066389
 10
203.0
 20
187.75
 10
203.0
 20
184.75
 10
202.86678918189475
 20
184.0803039933611
 10
202.48743686707647
 20
183.51256313292356
 10
201.9196960066389
 20
183.13321081810525
 10
201.25
 20
183.0
 10
147.25
 20
183.0
 10
146.5803039933611
 20
183.13321081810525
 10
146.01256313292353
 20
183.51256313292356
 10
145.63321081810525
 20
184.0803039933611
 10
145.5
 20
184.75
 10
145.5
 20
187.75
 10
145.63321081810525
 20
188.4196960066389
 10
146.01256313292353
 20
188.98743686707647
 10
146.5803039933611
 20
189.36678918189475
 10
147.25
 20
189.5
  0
HATCH
  5
CB
330
17
100
AcDbEntity
  8
ARC_CONTROL
 62
7
420
366185
100
AcDbHatch
 10
0.0
 20
0.0
 30
0.0
210
0.0
220
0.0
230
1.0
  2
SOLID
 70
1
 71
0
 91
1
 92
3
 72
0
 73
1
 93
24
 10
150.25
 20
186.25
 10
150.21592582628907
 20
185.99118095489746
 10
150.11602540378445
 20
185.75
 10
149.95710678118655
 20
185.54289321881345
 10
149.75
 20
185.38397459621558
 10
149.5088190451025
 20
185.28407417371093
 10
149.25
 20
185.25
 10
148.9911809548975
 20
185.28407417371093
 10
148.75
 20
185.38397459621558
 10
148.54289321881345
 20
185.54289321881345
 10
148.38397459621555
 20
185.75
 10
148.28407417371093
 20
185.99118095489746
 10
148.25
 20
186.25
 10
148.28407417371093
 20
186.50881904510254
 10
148.38397459621555
 20
186.75
 10
148.54289321881345
 20
186.95710678118655
 10
148.75
 20
187.11602540378442
 10
148.9911809548975
 20
187.21592582628907
 10
149.25
 20
187.25
 10
149.5088190451025
 20
187.21592582628907
 10
149.75
 20
187.11602540378442
 10
149.95710678118655
 20
186.95710678118655
 10
150.11602540378445
 20
186.75
 10
150.21592582628907
 20
186.50881904510254
 97
0
 75
0
 76
1
 98
0
  0
TEXT
  5
CC
330
17
100
AcDbEntity
  8
ARC_CONTROL_TEXT
420
366185
100
AcDbText
 10
152.0
 20
185.25
 30
0.0
 40
2.5875
  1
PRIMARY & ONLY MODBUS MASTER
  7
ARC_BOLD
 11
152.0
 21
185.25
 31
0.0
100
AcDbText
  0
HATCH
  5
CD
330
17
100
AcDbEntity
  8
ARC_DEVICE_BOXES
 62
7
420
16777215
100
AcDbHatch
 10
0.0
 20
0.0
 30
0.0
210
0.0
220
0.0
230
1.0
  2
SOLID
 70
1
 71
0
 91
1
 92
3
 72
0
 73
1
 93
20
 10
347.5
 20
202.5
 10
348.45670858091273
 20
202.3096988312782
 10
349.2677669529664
 20
201.76776695296638
 10
349.80969883127824
 20
200.95670858091273
 10
350.0
 20
200.0
 10
350.0
 20
185.0
 10
349.80969883127824
 20
184.04329141908727
 10
349.2677669529664
 20
183.23223304703362
 10
348.45670858091273
 20
182.6903011687218
 10
347.5
 20
182.5
 10
282.5
 20
182.5
 10
281.54329141908727
 20
182.6903011687218
 10
280.7322330470336
 20
183.23223304703362
 10
280.19030116872176
 20
184.04329141908727
 10
280.0
 20
185.0
 10
280.0
 20
200.0
 10
280.19030116872176
 20
200.95670858091273
 10
280.7322330470336
 20
201.76776695296638
 10
281.54329141908727
 20
202.3096988312782
 10
282.5
 20
202.5
 97
0
 75
0
 76
1
 98
0
  0
LWPOLYLINE
  5
CE
330
17
100
AcDbEntity
  8
ARC_DEVICE_BOXES
  6
CONTINUOUS
370
40
420
9741240
100
AcDbPolyline
 90
20
 70
1
 10
347.5
 20
202.5
 10
348.45670858091273
 20
202.3096988312782
 10
349.2677669529664
 20
201.76776695296638
 10
349.80969883127824
 20
200.95670858091273
 10
350.0
 20
200.0
 10
350.0
 20
185.0
 10
349.80969883127824
 20
184.04329141908727
 10
349.2677669529664
 20
183.23223304703362
 10
348.45670858091273
 20
182.6903011687218
 10
347.5
 20
182.5
 10
282.5
 20
182.5
 10
281.54329141908727
 20
182.6903011687218
 10
280.7322330470336
 20
183.23223304703362
 10
280.19030116872176
 20
184.04329141908727
 10
280.0
 20
185.0
 10
280.0
 20
200.0
 10
280.19030116872176
 20
200.95670858091273
 10
280.7322330470336
 20
201.76776695296638
 10
281.54329141908727
 20
202.3096988312782
 10
282.5
 20
202.5
  0
TEXT
  5
CF
330
17
100
AcDbEntity
  8
ARC_TEXT
420
988970
100
AcDbText
 10
285.0
 20
196.0
 30
0.0
 40
3.15
  1
Moxa Ethernet switch — ARC panel
  7
ARC_BOLD
 11
285.0
 21
196.0
 31
0.0
100
AcDbText
  0
TEXT
  5
D0
330
17
100
AcDbEntity
  8
ARC_TEXT
420
4674921
100
AcDbText
 10
285.0
 20
191.5
 30
0.0
 40
2.475
  1
LAN core · all field links terminate here
  7
ARC_REGULAR
 11
285.0
 21
191.5
 31
0.0
100
AcDbText
  0
TEXT
  5
D1
330
17
100
AcDbEntity
  8
ARC_TEXT
420
6583435
100
AcDbText
 10
285.0
 20
187.5
 30
0.0
 40
2.3625000000000003
  1
(+ SDS-3008-T added for commissioning access)
  7
ARC_REGULAR
 11
285.0
 21
187.5
 31
0.0
100
AcDbText
  0
LWPOLYLINE
  5
D2
330
17
100
AcDbEntity
  8
ARC_ETHERNET
  6
CONTINUOUS
370
50
420
4674921
100
AcDbPolyline
 90
2
 70
0
 10
240.0
 20
193.75
 10
280.0
 20
193.75
  0
LWPOLYLINE
  5
D3
330
17
100
AcDbEntity
  8
ARC_ETHERNET
  6
CONTINUOUS
370
50
420
4674921
100
AcDbPolyline
 90
4
 70
0
 10
61.25
 20
157.0
 10
61.25
 20
147.5
 10
295.0
 20
147.5
 10
295.0
 20
182.5
  0
HATCH
  5
D4
330
17
100
AcDbEntity
  8
ARC_MISC
 62
7
420
4674921
100
AcDbHatch
 10
0.0
 20
0.0
 30
0.0
210
0.0
220
0.0
230
1.0
  2
SOLID
 70
1
 71
0
 91
1
 92
3
 72
0
 73
1
 93
24
 10
62.25
 20
157.0
 10
62.215925826289066
 20
156.74118095489746
 10
62.11602540378444
 20
156.5
 10
61.957106781186546
 20
156.29289321881345
 10
61.75
 20
156.13397459621558
 10
61.50881904510252
 20
156.03407417371093
 10
61.25
 20
156.0
 10
60.99118095489748
 20
156.03407417371093
 10
60.75
 20
156.13397459621558
 10
60.542893218813454
 20
156.29289321881345
 10
60.38397459621556
 20
156.5
 10
60.284074173710934
 20
156.74118095489746
 10
60.25
 20
157.0
 10
60.284074173710934
 20
157.25881904510254
 10
60.38397459621556
 20
157.5
 10
60.542893218813454
 20
157.70710678118655
 10
60.75
 20
157.86602540378442
 10
60.99118095489748
 20
157.96592582628907
 10
61.25
 20
158.0
 10
61.50881904510252
 20
157.96592582628907
 10
61.75
 20
157.86602540378442
 10
61.957106781186546
 20
157.70710678118655
 10
62.11602540378444
 20
157.5
 10
62.215925826289066
 20
157.25881904510254
 97
0
 75
0
 76
1
 98
0
  0
HATCH
  5
D5
330
17
100
AcDbEntity
  8
ARC_ZONES
 62
7
420
15857145
100
AcDbHatch
 10
0.0
 20
0.0
 30
0.0
210
0.0
220
0.0
230
1.0
  2
SOLID
 70
1
 71
0
 91
1
 92
3
 72
0
 73
1
 93
20
 10
406.5
 20
120.0
 10
407.8393920132778
 20
119.73357836378949
 10
408.97487373415294
 20
118.97487373415291
 10
409.7335783637895
 20
117.8393920132778
 10
410.0
 20
116.5
 10
410.0
 20
13.5
 10
409.7335783637895
 20
12.160607986722198
 10
408.97487373415294
 20
11.025126265847092
 10
407.8393920132778
 20
10.26642163621051
 10
406.5
 20
10.0
 10
13.5
 20
10.0
 10
12.160607986722185
 20
10.26642163621051
 10
11.025126265847085
 20
11.025126265847092
 10
10.266421636210497
 20
12.160607986722198
 10
10.0
 20
13.5
 10
10.0
 20
116.5
 10
10.266421636210495
 20
117.8393920132778
 10
11.025126265847083
 20
118.97487373415291
 10
12.160607986722187
 20
119.73357836378949
 10
13.5
 20
120.0
 97
0
 75
0
 76
1
 98
0
  0
LWPOLYLINE
  5
D6
330
17
100
AcDbEntity
  8
ARC_ZONES
  6
CONTINUOUS
370
40
420
13358561
100
AcDbPolyline
 90
20
 70
1
 10
406.5
 20
120.0
 10
407.8393920132778
 20
119.73357836378949
 10
408.97487373415294
 20
118.97487373415291
 10
409.7335783637895
 20
117.8393920132778
 10
410.0
 20
116.5
 10
410.0
 20
13.5
 10
409.7335783637895
 20
12.160607986722198
 10
408.97487373415294
 20
11.025126265847092
 10
407.8393920132778
 20
10.26642163621051
 10
406.5
 20
10.0
 10
13.5
 20
10.0
 10
12.160607986722185
 20
10.26642163621051
 10
11.025126265847085
 20
11.025126265847092
 10
10.266421636210497
 20
12.160607986722198
 10
10.0
 20
13.5
 10
10.0
 20
116.5
 10
10.266421636210495
 20
117.8393920132778
 10
11.025126265847083
 20
118.97487373415291
 10
12.160607986722187
 20
119.73357836378949
 10
13.5
 20
120.0
  0
TEXT
  5
D7
330
17
100
AcDbEntity
  8
ARC_TEXT
420
6583435
100
AcDbText
 10
15.0
 20
113.0
 30
0.0
 40
2.7
  1
FIELD ENDPOINTS (AS ARC SEES THEM)
  7
ARC_BOLD
 11
15.0
 21
113.0
 31
0.0
100
AcDbText
  0
LWPOLYLINE
  5
D8
330
17
100
AcDbEntity
  8
ARC_ETHERNET
  6
CONTINUOUS
370
50
420
4674921
100
AcDbPolyline
 90
4
 70
0
 10
300.0
 20
182.5
 10
300.0
 20
142.5
 10
65.0
 20
142.5
 10
65.0
 20
98.5
  0
LWPOLYLINE
  5
D9
330
17
100
AcDbEntity
  8
ARC_ETHERNET
  6
CONTINUOUS
370
50
420
4674921
100
AcDbPolyline
 90
4
 70
0
 10
307.5
 20
182.5
 10
307.5
 20
137.5
 10
165.0
 20
137.5
 10
165.0
 20
98.5
  0
LWPOLYLINE
  5
DA
330
17
100
AcDbEntity
  8
ARC_ETHERNET
  6
CONTINUOUS
370
50
420
4674921
100
AcDbPolyline
 90
4
 70
0
 10
315.0
 20
182.5
 10
315.0
 20
132.5
 10
265.0
 20
132.5
 10
265.0
 20
98.5
  0
LWPOLYLINE
  5
DB
330
17
100
AcDbEntity
  8
ARC_ETHERNET
  6
CONTINUOUS
370
50
420
4674921
100
AcDbPolyline
 90
4
 70
0
 10
322.5
 20
182.5
 10
322.5
 20
127.5
 10
362.5
 20
127.5
 10
362.5
 20
98.5
  0
HATCH
  5
DC
330
17
100
AcDbEntity
  8
ARC_MISC
 62
7
420
4674921
100
AcDbHatch
 10
0.0
 20
0.0
 30
0.0
210
0.0
220
0.0
230
1.0
  2
SOLID
 70
1
 71
0
 91
1
 92
3
 72
0
 73
1
 93
24
 10
66.0
 20
98.5
 10
65.96592582628907
 20
98.24118095489749
 10
65.86602540378443
 20
98.0
 10
65.70710678118655
 20
97.79289321881345
 10
65.5
 20
97.63397459621555
 10
65.25881904510253
 20
97.53407417371093
 10
65.0
 20
97.5
 10
64.74118095489747
 20
97.53407417371093
 10
64.5
 20
97.63397459621555
 10
64.29289321881345
 20
97.79289321881345
 10
64.13397459621557
 20
98.0
 10
64.03407417371093
 20
98.24118095489749
 10
64.0
 20
98.5
 10
64.03407417371093
 20
98.75881904510251
 10
64.13397459621557
 20
99.0
 10
64.29289321881345
 20
99.20710678118655
 10
64.5
 20
99.36602540378445
 10
64.74118095489747
 20
99.46592582628907
 10
65.0
 20
99.5
 10
65.25881904510253
 20
99.46592582628907
 10
65.5
 20
99.36602540378445
 10
65.70710678118655
 20
99.20710678118655
 10
65.86602540378443
 20
99.0
 10
65.96592582628907
 20
98.75881904510251
 97
0
 75
0
 76
1
 98
0
  0
HATCH
  5
DD
330
17
100
AcDbEntity
  8
ARC_MISC
 62
7
420
4674921
100
AcDbHatch
 10
0.0
 20
0.0
 30
0.0
210
0.0
220
0.0
230
1.0
  2
SOLID
 70
1
 71
0
 91
1
 92
3
 72
0
 73
1
 93
24
 10
166.0
 20
98.5
 10
165.96592582628907
 20
98.24118095489749
 10
165.86602540378445
 20
98.0
 10
165.70710678118655
 20
97.79289321881345
 10
165.5
 20
97.63397459621555
 10
165.2588190451025
 20
97.53407417371093
 10
165.0
 20
97.5
 10
164.7411809548975
 20
97.53407417371093
 10
164.5
 20
97.63397459621555
 10
164.29289321881345
 20
97.79289321881345
 10
164.13397459621555
 20
98.0
 10
164.03407417371093
 20
98.24118095489749
 10
164.0
 20
98.5
 10
164.03407417371093
 20
98.75881904510251
 10
164.13397459621555
 20
99.0
 10
164.29289321881345
 20
99.20710678118655
 10
164.5
 20
99.36602540378445
 10
164.7411809548975
 20
99.46592582628907
 10
165.0
 20
99.5
 10
165.2588190451025
 20
99.46592582628907
 10
165.5
 20
99.36602540378445
 10
165.70710678118655
 20
99.20710678118655
 10
165.86602540378445
 20
99.0
 10
165.96592582628907
 20
98.75881904510251
 97
0
 75
0
 76
1
 98
0
  0
HATCH
  5
DE
330
17
100
AcDbEntity
  8
ARC_MISC
 62
7
420
4674921
100
AcDbHatch
 10
0.0
 20
0.0
 30
0.0
210
0.0
220
0.0
230
1.0
  2
SOLID
 70
1
 71
0
 91
1
 92
3
 72
0
 73
1
 93
24
 10
266.0
 20
98.5
 10
265.9659258262891
 20
98.24118095489749
 10
265.8660254037844
 20
98.0
 10
265.70710678118655
 20
97.79289321881345
 10
265.5
 20
97.63397459621555
 10
265.25881904510254
 20
97.53407417371093
 10
265.0
 20
97.5
 10
264.74118095489746
 20
97.53407417371093
 10
264.5
 20
97.63397459621555
 10
264.29289321881345
 20
97.79289321881345
 10
264.1339745962156
 20
98.0
 10
264.0340741737109
 20
98.24118095489749
 10
264.0
 20
98.5
 10
264.0340741737109
 20
98.75881904510251
 10
264.1339745962156
 20
99.0
 10
264.29289321881345
 20
99.20710678118655
 10
264.5
 20
99.36602540378445
 10
264.74118095489746
 20
99.46592582628907
 10
265.0
 20
99.5
 10
265.25881904510254
 20
99.46592582628907
 10
265.5
 20
99.36602540378445
 10
265.70710678118655
 20
99.20710678118655
 10
265.8660254037844
 20
99.0
 10
265.9659258262891
 20
98.75881904510251
 97
0
 75
0
 76
1
 98
0
  0
HATCH
  5
DF
330
17
100
AcDbEntity
  8
ARC_MISC
 62
7
420
4674921
100
AcDbHatch
 10
0.0
 20
0.0
 30
0.0
210
0.0
220
0.0
230
1.0
  2
SOLID
 70
1
 71
0
 91
1
 92
3
 72
0
 73
1
 93
24
 10
363.5
 20
98.5
 10
363.4659258262891
 20
98.24118095489749
 10
363.3660254037844
 20
98.0
 10
363.20710678118655
 20
97.79289321881345
 10
363.0
 20
97.63397459621555
 10
362.75881904510254
 20
97.53407417371093
 10
362.5
 20
97.5
 10
362.24118095489746
 20
97.53407417371093
 10
362.0
 20
97.63397459621555
 10
361.79289321881345
 20
97.79289321881345
 10
361.6339745962156
 20
98.0
 10
361.5340741737109
 20
98.24118095489749
 10
361.5
 20
98.5
 10
361.5340741737109
 20
98.75881904510251
 10
361.6339745962156
 20
99.0
 10
361.79289321881345
 20
99.20710678118655
 10
362.0
 20
99.36602540378445
 10
362.24118095489746
 20
99.46592582628907
 10
362.5
 20
99.5
 10
362.75881904510254
 20
99.46592582628907
 10
363.0
 20
99.36602540378445
 10
363.20710678118655
 20
99.20710678118655
 10
363.3660254037844
 20
99.0
 10
363.4659258262891
 20
98.75881904510251
 97
0
 75
0
 76
1
 98
0
  0
TEXT
  5
E0
330
17
100
AcDbEntity
  8
ARC_TEXT
420
6583435
100
AcDbText
 10
75.0
 20
144.5
 30
0.0
 40
2.25
  1
Modbus TCP :502
  7
ARC_MONO
 11
75.0
 21
144.5
 31
0.0
100
AcDbText
  0
HATCH
  5
E1
330
17
100
AcDbEntity
  8
ARC_CONTROL
 62
7
420
15004909
100
AcDbHatch
 10
0.0
 20
0.0
 30
0.0
210
0.0
220
0.0
230
1.0
  2
SOLID
 70
1
 71
0
 91
1
 92
3
 72
0
 73
1
 93
20
 10
110.5
 20
109.5
 10
111.26536686473018
 20
109.34775906502259
 10
111.91421356237309
 20
108.9142135623731
 10
112.34775906502257
 20
108.26536686473017
 10
112.5
 20
107.5
 10
112.5
 20
104.0
 10
112.34775906502257
 20
103.23463313526983
 10
111.91421356237309
 20
102.5857864376269
 10
111.26536686473018
 20
102.15224093497741
 10
110.5
 20
102.0
 10
19.5
 20
102.0
 10
18.73463313526982
 20
102.15224093497741
 10
18.085786437626904
 20
102.5857864376269
 10
17.652240934977428
 20
103.23463313526983
 10
17.5
 20
104.0
 10
17.5
 20
107.5
 10
17.652240934977428
 20
108.26536686473017
 10
18.085786437626904
 20
108.9142135623731
 10
18.73463313526982
 20
109.34775906502259
 10
19.5
 20
109.5
 97
0
 75
0
 76
1
 98
0
  0
LWPOLYLINE
  5
E2
330
17
100
AcDbEntity
  8
ARC_CONTROL
  6
CONTINUOUS
370
25
420
11656912
100
AcDbPolyline
 90
20
 70
1
 10
110.5
 20
109.5
 10
111.26536686473018
 20
109.34775906502259
 10
111.91421356237309
 20
108.9142135623731
 10
112.34775906502257
 20
108.26536686473017
 10
112.5
 20
107.5
 10
112.5
 20
104.0
 10
112.34775906502257
 20
103.23463313526983
 10
111.91421356237309
 20
102.5857864376269
 10
111.26536686473018
 20
102.15224093497741
 10
110.5
 20
102.0
 10
19.5
 20
102.0
 10
18.73463313526982
 20
102.15224093497741
 10
18.085786437626904
 20
102.5857864376269
 10
17.652240934977428
 20
103.23463313526983
 10
17.5
 20
104.0
 10
17.5
 20
107.5
 10
17.652240934977428
 20
108.26536686473017
 10
18.085786437626904
 20
108.9142135623731
 10
18.73463313526982
 20
109.34775906502259
 10
19.5
 20
109.5
  0
TEXT
  5
E3
330
17
100
AcDbEntity
  8
ARC_CONTROL_TEXT
420
366185
100
AcDbText
 10
21.0
 20
104.5
 30
0.0
 40
2.44375
  1
BATTERY INVERTERS — ARC CONTROLS (read + write)
  7
ARC_BOLD
 11
21.0
 21
104.5
 31
0.0
100
AcDbText
  0
HATCH
  5
E4
330
17
100
AcDbEntity
  8
ARC_DEVICE_BOXES
 62
7
420
16777215
100
AcDbHatch
 10
0.0
 20
0.0
 30
0.0
210
0.0
220
0.0
230
1.0
  2
SOLID
 70
1
 71
0
 91
1
 92
3
 72
0
 73
1
 93
20
 10
110.0
 20
98.5
 10
110.95670858091272
 20
98.30969883127821
 10
111.76776695296637
 20
97.76776695296635
 10
112.30969883127821
 20
96.95670858091273
 10
112.5
 20
96.0
 10
112.5
 20
82.0
 10
112.30969883127821
 20
81.04329141908727
 10
111.76776695296637
 20
80.23223304703365
 10
110.95670858091272
 20
79.69030116872179
 10
110.0
 20
79.5
 10
20.0
 20
79.5
 10
19.043291419087275
 20
79.69030116872179
 10
18.23223304703363
 20
80.23223304703362
 10
17.69030116872178
 20
81.04329141908727
 10
17.5
 20
82.0
 10
17.5
 20
96.0
 10
17.69030116872178
 20
96.95670858091273
 10
18.23223304703363
 20
97.76776695296635
 10
19.043291419087275
 20
98.30969883127821
 10
20.0
 20
98.5
 97
0
 75
0
 76
1
 98
0
  0
LWPOLYLINE
  5
E5
330
17
100
AcDbEntity
  8
ARC_DEVICE_BOXES
  6
CONTINUOUS
370
40
420
9741240
100
AcDbPolyline
 90
20
 70
1
 10
110.0
 20
98.5
 10
110.95670858091272
 20
98.30969883127821
 10
111.76776695296637
 20
97.76776695296635
 10
112.30969883127821
 20
96.95670858091273
 10
112.5
 20
96.0
 10
112.5
 20
82.0
 10
112.30969883127821
 20
81.04329141908727
 10
111.76776695296637
 20
80.23223304703365
 10
110.95670858091272
 20
79.69030116872179
 10
110.0
 20
79.5
 10
20.0
 20
79.5
 10
19.043291419087275
 20
79.69030116872179
 10
18.23223304703363
 20
80.23223304703362
 10
17.69030116872178
 20
81.04329141908727
 10
17.5
 20
82.0
 10
17.5
 20
96.0
 10
17.69030116872178
 20
96.95670858091273
 10
18.23223304703363
 20
97.76776695296635
 10
19.043291419087275
 20
98.30969883127821
 10
20.0
 20
98.5
  0
TEXT
  5
E6
330
17
100
AcDbEntity
  8
ARC_IP_ADDRESSES
420
223649
100
AcDbText
 10
22.0
 20
92.5
 30
0.0
 40
2.7
  1
.41
  7
ARC_MONO
 11
22.0
 21
92.5
 31
0.0
100
AcDbText
  0
TEXT
  5
E7
330
17
100
AcDbEntity
  8
ARC_TEXT
420
988970
100
AcDbText
 10
31.5
 20
92.5
 30
0.0
 40
3.15
  1
USR-TCP232-410s RS485↔TCP
  7
ARC_BOLD
 11
31.5
 21
92.5
 31
0.0
100
AcDbText
  0
TEXT
  5
E8
330
17
100
AcDbEntity
  8
ARC_TEXT
420
4674921
100
AcDbText
 10
22.0
 20
88.0
 30
0.0
 40
2.475
  1
Modbus TCP :502 → RTU 57600 8N1 · half-duplex
  7
ARC_REGULAR
 11
22.0
 21
88.0
 31
0.0
100
AcDbText
  0
TEXT
  5
E9
330
17
100
AcDbEntity
  8
ARC_TEXT
420
4674921
100
AcDbText
 10
22.0
 20
84.0
 30
0.0
 40
2.475
  1
ONE multidrop bus — ARC is its only master
  7
ARC_REGULAR
 11
22.0
 21
84.0
 31
0.0
100
AcDbText
  0
HATCH
  5
EA
330
17
100
AcDbEntity
  8
ARC_DEVICE_BOXES
 62
7
420
16777215
100
AcDbHatch
 10
0.0
 20
0.0
 30
0.0
210
0.0
220
0.0
230
1.0
  2
SOLID
 70
1
 71
0
 91
1
 92
3
 72
0
 73
1
 93
20
 10
60.0
 20
69.5
 10
60.956708580912725
 20
69.30969883127821
 10
61.76776695296637
 20
68.76776695296635
 10
62.30969883127822
 20
67.95670858091273
 10
62.5
 20
67.0
 10
62.5
 20
54.0
 10
62.30969883127822
 20
53.04329141908727
 10
61.76776695296637
 20
52.232233047033645
 10
60.956708580912725
 20
51.69030116872179
 10
60.0
 20
51.5
 10
20.0
 20
51.5
 10
19.043291419087275
 20
51.69030116872179
 10
18.23223304703363
 20
52.23223304703362
 10
17.69030116872178
 20
53.04329141908727
 10
17.5
 20
54.0
 10
17.5
 20
67.0
 10
17.69030116872178
 20
67.95670858091273
 10
18.23223304703363
 20
68.76776695296635
 10
19.043291419087275
 20
69.30969883127821
 10
20.0
 20
69.5
 97
0
 75
0
 76
1
 98
0
  0
LWPOLYLINE
  5
EB
330
17
100
AcDbEntity
  8
ARC_DEVICE_BOXES
  6
CONTINUOUS
370
40
420
9741240
100
AcDbPolyline
 90
20
 70
1
 10
60.0
 20
69.5
 10
60.956708580912725
 20
69.30969883127821
 10
61.76776695296637
 20
68.76776695296635
 10
62.30969883127822
 20
67.95670858091273
 10
62.5
 20
67.0
 10
62.5
 20
54.0
 10
62.30969883127822
 20
53.04329141908727
 10
61.76776695296637
 20
52.232233047033645
 10
60.956708580912725
 20
51.69030116872179
 10
60.0
 20
51.5
 10
20.0
 20
51.5
 10
19.043291419087275
 20
51.69030116872179
 10
18.23223304703363
 20
52.23223304703362
 10
17.69030116872178
 20
53.04329141908727
 10
17.5
 20
54.0
 10
17.5
 20
67.0
 10
17.69030116872178
 20
67.95670858091273
 10
18.23223304703363
 20
68.76776695296635
 10
19.043291419087275
 20
69.30969883127821
 10
20.0
 20
69.5
  0
TEXT
  5
EC
330
17
100
AcDbEntity
  8
ARC_TEXT
420
988970
100
AcDbText
 10
21.0
 20
64.0
 30
0.0
 40
2.9250000000000003
  1
OzTek #1 · id 1
  7
ARC_BOLD
 11
21.0
 21
64.0
 31
0.0
100
AcDbText
  0
TEXT
  5
ED
330
17
100
AcDbEntity
  8
ARC_TEXT
420
4674921
100
AcDbText
 10
21.0
 20
59.75
 30
0.0
 40
2.475
  1
OZPCS-RS40 40 kVA
  7
ARC_REGULAR
 11
21.0
 21
59.75
 31
0.0
100
AcDbText
  0
TEXT
  5
EE
330
17
100
AcDbEntity
  8
ARC_TEXT
420
6583435
100
AcDbText
 10
21.0
 20
56.0
 30
0.0
 40
2.3625000000000003
  1
heartbeat · start/stop · limits
  7
ARC_REGULAR
 11
21.0
 21
56.0
 31
0.0
100
AcDbText
  0
HATCH
  5
EF
330
17
100
AcDbEntity
  8
ARC_DEVICE_BOXES
 62
7
420
16777215
100
AcDbHatch
 10
0.0
 20
0.0
 30
0.0
210
0.0
220
0.0
230
1.0
  2
SOLID
 70
1
 71
0
 91
1
 92
3
 72
0
 73
1
 93
20
 10
110.0
 20
69.5
 10
110.95670858091272
 20
69.30969883127821
 10
111.76776695296637
 20
68.76776695296635
 10
112.30969883127821
 20
67.95670858091273
 10
112.5
 20
67.0
 10
112.5
 20
54.0
 10
112.30969883127821
 20
53.04329141908727
 10
111.76776695296637
 20
52.232233047033645
 10
110.95670858091272
 20
51.69030116872179
 10
110.0
 20
51.5
 10
70.0
 20
51.5
 10
69.04329141908728
 20
51.69030116872179
 10
68.23223304703363
 20
52.23223304703362
 10
67.69030116872179
 20
53.04329141908727
 10
67.5
 20
54.0
 10
67.5
 20
67.0
 10
67.69030116872179
 20
67.95670858091273
 10
68.23223304703363
 20
68.76776695296635
 10
69.04329141908728
 20
69.30969883127821
 10
70.0
 20
69.5
 97
0
 75
0
 76
1
 98
0
  0
LWPOLYLINE
  5
F0
330
17
100
AcDbEntity
  8
ARC_DEVICE_BOXES
  6
CONTINUOUS
370
40
420
9741240
100
AcDbPolyline
 90
20
 70
1
 10
110.0
 20
69.5
 10
110.95670858091272
 20
69.30969883127821
 10
111.76776695296637
 20
68.76776695296635
 10
112.30969883127821
 20
67.95670858091273
 10
112.5
 20
67.0
 10
112.5
 20
54.0
 10
112.30969883127821
 20
53.04329141908727
 10
111.76776695296637
 20
52.232233047033645
 10
110.95670858091272
 20
51.69030116872179
 10
110.0
 20
51.5
 10
70.0
 20
51.5
 10
69.04329141908728
 20
51.69030116872179
 10
68.23223304703363
 20
52.23223304703362
 10
67.69030116872179
 20
53.04329141908727
 10
67.5
 20
54.0
 10
67.5
 20
67.0
 10
67.69030116872179
 20
67.95670858091273
 10
68.23223304703363
 20
68.76776695296635
 10
69.04329141908728
 20
69.30969883127821
 10
70.0
 20
69.5
  0
TEXT
  5
F1
330
17
100
AcDbEntity
  8
ARC_TEXT
420
988970
100
AcDbText
 10
71.0
 20
64.0
 30
0.0
 40
2.9250000000000003
  1
OzTek #2 · id 2
  7
ARC_BOLD
 11
71.0
 21
64.0
 31
0.0
100
AcDbText
  0
TEXT
  5
F2
330
17
100
AcDbEntity
  8
ARC_TEXT
420
4674921
100
AcDbText
 10
71.0
 20
59.75
 30
0.0
 40
2.475
  1
OZPCS-RS40 40 kVA
  7
ARC_REGULAR
 11
71.0
 21
59.75
 31
0.0
100
AcDbText
  0
TEXT
  5
F3
330
17
100
AcDbEntity
  8
ARC_TEXT
420
6583435
100
AcDbText
 10
71.0
 20
56.0
 30
0.0
 40
2.3625000000000003
  1
heartbeat · start/stop · limits
  7
ARC_REGULAR
 11
71.0
 21
56.0
 31
0.0
100
AcDbText
  0
HATCH
  5
F4
330
17
100
AcDbEntity
  8
ARC_NOT_IN_SERVICE
 62
7
420
16317180
100
AcDbHatch
 10
0.0
 20
0.0
 30
0.0
210
0.0
220
0.0
230
1.0
  2
SOLID
 70
1
 71
0
 91
1
 92
3
 72
0
 73
1
 93
20
 10
85.0
 20
46.5
 10
85.95670858091272
 20
46.30969883127821
 10
86.76776695296637
 20
45.767766952966355
 10
87.30969883127821
 20
44.95670858091273
 10
87.5
 20
44.0
 10
87.5
 20
34.0
 10
87.30969883127821
 20
33.04329141908727
 10
86.76776695296637
 20
32.232233047033645
 10
85.95670858091272
 20
31.69030116872179
 10
85.0
 20
31.5
 10
45.0
 20
31.5
 10
44.043291419087275
 20
31.69030116872179
 10
43.23223304703363
 20
32.23223304703362
 10
42.69030116872178
 20
33.04329141908727
 10
42.5
 20
34.0
 10
42.5
 20
44.0
 10
42.69030116872178
 20
44.95670858091273
 10
43.23223304703363
 20
45.767766952966355
 10
44.043291419087275
 20
46.30969883127821
 10
45.0
 20
46.5
 97
0
 75
0
 76
1
 98
0
  0
LWPOLYLINE
  5
F5
330
17
100
AcDbEntity
  8
ARC_NOT_IN_SERVICE
  6
ARC_DASHED
370
30
420
13358561
100
AcDbPolyline
 90
20
 70
1
 10
85.0
 20
46.5
 10
85.95670858091272
 20
46.30969883127821
 10
86.76776695296637
 20
45.767766952966355
 10
87.30969883127821
 20
44.95670858091273
 10
87.5
 20
44.0
 10
87.5
 20
34.0
 10
87.30969883127821
 20
33.04329141908727
 10
86.76776695296637
 20
32.232233047033645
 10
85.95670858091272
 20
31.69030116872179
 10
85.0
 20
31.5
 10
45.0
 20
31.5
 10
44.043291419087275
 20
31.69030116872179
 10
43.23223304703363
 20
32.23223304703362
 10
42.69030116872178
 20
33.04329141908727
 10
42.5
 20
34.0
 10
42.5
 20
44.0
 10
42.69030116872178
 20
44.95670858091273
 10
43.23223304703363
 20
45.767766952966355
 10
44.043291419087275
 20
46.30969883127821
 10
45.0
 20
46.5
  0
TEXT
  5
F6
330
17
100
AcDbEntity
  8
ARC_TEXT
420
6583435
100
AcDbText
 10
46.0
 20
41.0
 30
0.0
 40
2.9250000000000003
  1
OzTek #3 · id 3
  7
ARC_BOLD
 11
46.0
 21
41.0
 31
0.0
100
AcDbText
  0
TEXT
  5
F7
330
17
100
AcDbEntity
  8
ARC_TEXT
420
6583435
100
AcDbText
 10
46.0
 20
36.75
 30
0.0
 40
2.3625000000000003
  1
BATT#3 — not wired yet
  7
ARC_REGULAR
 11
46.0
 21
36.75
 31
0.0
100
AcDbText
  0
LWPOLYLINE
  5
F8
330
17
100
AcDbEntity
  8
ARC_RS485
  6
ARC_DASHED
370
70
420
14251782
100
AcDbPolyline
 90
2
 70
0
 10
65.0
 20
79.5
 10
65.0
 20
73.5
  0
LWPOLYLINE
  5
F9
330
17
100
AcDbEntity
  8
ARC_RS485
  6
ARC_DASHED
370
70
420
14251782
100
AcDbPolyline
 90
2
 70
0
 10
30.0
 20
73.5
 10
100.0
 20
73.5
  0
LWPOLYLINE
  5
FA
330
17
100
AcDbEntity
  8
ARC_RS485
  6
ARC_DASHED
370
70
420
14251782
100
AcDbPolyline
 90
2
 70
0
 10
40.0
 20
73.5
 10
40.0
 20
69.5
  0
LWPOLYLINE
  5
FB
330
17
100
AcDbEntity
  8
ARC_RS485
  6
ARC_DASHED
370
70
420
14251782
100
AcDbPolyline
 90
2
 70
0
 10
90.0
 20
73.5
 10
90.0
 20
69.5
  0
LWPOLYLINE
  5
FC
330
17
100
AcDbEntity
  8
ARC_RS485
  6
ARC_DASHED
370
70
420
14251782
100
AcDbPolyline
 90
2
 70
0
 10
65.0
 20
73.5
 10
65.0
 20
46.5
  0
HATCH
  5
FD
330
17
100
AcDbEntity
  8
ARC_CONTROL
 62
7
420
15004909
100
AcDbHatch
 10
0.0
 20
0.0
 30
0.0
210
0.0
220
0.0
230
1.0
  2
SOLID
 70
1
 71
0
 91
1
 92
3
 72
0
 73
1
 93
20
 10
208.0
 20
109.5
 10
208.76536686473017
 20
109.34775906502259
 10
209.4142135623731
 20
108.9142135623731
 10
209.8477590650226
 20
108.26536686473017
 10
210.0
 20
107.5
 10
210.0
 20
104.0
 10
209.8477590650226
 20
103.23463313526983
 10
209.4142135623731
 20
102.5857864376269
 10
208.76536686473017
 20
102.15224093497741
 10
208.0
 20
102.0
 10
122.0
 20
102.0
 10
121.23463313526982
 20
102.15224093497741
 10
120.58578643762691
 20
102.5857864376269
 10
120.15224093497743
 20
103.23463313526983
 10
120.0
 20
104.0
 10
120.0
 20
107.5
 10
120.15224093497743
 20
108.26536686473017
 10
120.58578643762691
 20
108.9142135623731
 10
121.23463313526982
 20
109.34775906502259
 10
122.0
 20
109.5
 97
0
 75
0
 76
1
 98
0
  0
LWPOLYLINE
  5
FE
330
17
100
AcDbEntity
  8
ARC_CONTROL
  6
CONTINUOUS
370
25
420
11656912
100
AcDbPolyline
 90
20
 70
1
 10
208.0
 20
109.5
 10
208.76536686473017
 20
109.34775906502259
 10
209.4142135623731
 20
108.9142135623731
 10
209.8477590650226
 20
108.26536686473017
 10
210.0
 20
107.5
 10
210.0
 20
104.0
 10
209.8477590650226
 20
103.23463313526983
 10
209.4142135623731
 20
102.5857864376269
 10
208.76536686473017
 20
102.15224093497741
 10
208.0
 20
102.0
 10
122.0
 20
102.0
 10
121.23463313526982
 20
102.15224093497741
 10
120.58578643762691
 20
102.5857864376269
 10
120.15224093497743
 20
103.23463313526983
 10
120.0
 20
104.0
 10
120.0
 20
107.5
 10
120.15224093497743
 20
108.26536686473017
 10
120.58578643762691
 20
108.9142135623731
 10
121.23463313526982
 20
109.34775906502259
 10
122.0
 20
109.5
  0
TEXT
  5
FF
330
17
100
AcDbEntity
  8
ARC_CONTROL_TEXT
420
366185
100
AcDbText
 10
123.5
 20
104.5
 30
0.0
 40
2.44375
  1
SOLAR PV — ARC CONTROLS (monitor + curtailment)
  7
ARC_BOLD
 11
123.5
 21
104.5
 31
0.0
100
AcDbText
  0
HATCH
  5
100
330
17
100
AcDbEntity
  8
ARC_DEVICE_BOXES
 62
7
420
16777215
100
AcDbHatch
 10
0.0
 20
0.0
 30
0.0
210
0.0
220
0.0
230
1.0
  2
SOLID
 70
1
 71
0
 91
1
 92
3
 72
0
 73
1
 93
20
 10
207.5
 20
98.5
 10
208.45670858091273
 20
98.30969883127821
 10
209.26776695296638
 20
97.76776695296635
 10
209.8096988312782
 20
96.95670858091273
 10
210.0
 20
96.0
 10
210.0
 20
85.0
 10
209.8096988312782
 20
84.04329141908727
 10
209.26776695296638
 20
83.23223304703365
 10
208.45670858091273
 20
82.69030116872179
 10
207.5
 20
82.5
 10
122.5
 20
82.5
 10
121.54329141908728
 20
82.69030116872179
 10
120.73223304703363
 20
83.23223304703362
 10
120.19030116872179
 20
84.04329141908727
 10
120.0
 20
85.0
 10
120.0
 20
96.0
 10
120.19030116872179
 20
96.95670858091273
 10
120.73223304703363
 20
97.76776695296635
 10
121.54329141908728
 20
98.30969883127821
 10
122.5
 20
98.5
 97
0
 75
0
 76
1
 98
0
  0
LWPOLYLINE
  5
101
330
17
100
AcDbEntity
  8
ARC_DEVICE_BOXES
  6
CONTINUOUS
370
40
420
9741240
100
AcDbPolyline
 90
20
 70
1
 10
207.5
 20
98.5
 10
208.45670858091273
 20
98.30969883127821
 10
209.26776695296638
 20
97.76776695296635
 10
209.8096988312782
 20
96.95670858091273
 10
210.0
 20
96.0
 10
210.0
 20
85.0
 10
209.8096988312782
 20
84.04329141908727
 10
209.26776695296638
 20
83.23223304703365
 10
208.45670858091273
 20
82.69030116872179
 10
207.5
 20
82.5
 10
122.5
 20
82.5
 10
121.54329141908728
 20
82.69030116872179
 10
120.73223304703363
 20
83.23223304703362
 10
120.19030116872179
 20
84.04329141908727
 10
120.0
 20
85.0
 10
120.0
 20
96.0
 10
120.19030116872179
 20
96.95670858091273
 10
120.73223304703363
 20
97.76776695296635
 10
121.54329141908728
 20
98.30969883127821
 10
122.5
 20
98.5
  0
TEXT
  5
102
330
17
100
AcDbEntity
  8
ARC_IP_ADDRESSES
420
223649
100
AcDbText
 10
124.5
 20
92.5
 30
0.0
 40
2.7
  1
.51
  7
ARC_MONO
 11
124.5
 21
92.5
 31
0.0
100
AcDbText
  0
TEXT
  5
103
330
17
100
AcDbEntity
  8
ARC_TEXT
420
988970
100
AcDbText
 10
134.0
 20
92.5
 30
0.0
 40
3.15
  1
SMA STP 25000TL-30 — PV1 · unit 3
  7
ARC_BOLD
 11
134.0
 21
92.5
 31
0.0
100
AcDbText
  0
TEXT
  5
104
330
17
100
AcDbEntity
  8
ARC_TEXT
420
4674921
100
AcDbText
 10
124.5
 20
88.0
 30
0.0
 40
2.475
  1
SMA-native registers · power-limit setpoints
  7
ARC_REGULAR
 11
124.5
 21
88.0
 31
0.0
100
AcDbText
  0
HATCH
  5
105
330
17
100
AcDbEntity
  8
ARC_DEVICE_BOXES
 62
7
420
16777215
100
AcDbHatch
 10
0.0
 20
0.0
 30
0.0
210
0.0
220
0.0
230
1.0
  2
SOLID
 70
1
 71
0
 91
1
 92
3
 72
0
 73
1
 93
20
 10
207.5
 20
78.5
 10
208.45670858091273
 20
78.30969883127821
 10
209.26776695296638
 20
77.76776695296635
 10
209.8096988312782
 20
76.95670858091273
 10
210.0
 20
76.0
 10
210.0
 20
65.0
 10
209.8096988312782
 20
64.04329141908727
 10
209.26776695296638
 20
63.232233047033645
 10
208.45670858091273
 20
62.69030116872179
 10
207.5
 20
62.5
 10
122.5
 20
62.5
 10
121.54329141908728
 20
62.69030116872179
 10
120.73223304703363
 20
63.23223304703362
 10
120.19030116872179
 20
64.04329141908727
 10
120.0
 20
65.0
 10
120.0
 20
76.0
 10
120.19030116872179
 20
76.95670858091273
 10
120.73223304703363
 20
77.76776695296635
 10
121.54329141908728
 20
78.30969883127821
 10
122.5
 20
78.5
 97
0
 75
0
 76
1
 98
0
  0
LWPOLYLINE
  5
106
330
17
100
AcDbEntity
  8
ARC_DEVICE_BOXES
  6
CONTINUOUS
370
40
420
9741240
100
AcDbPolyline
 90
20
 70
1
 10
207.5
 20
78.5
 10
208.45670858091273
 20
78.30969883127821
 10
209.26776695296638
 20
77.76776695296635
 10
209.8096988312782
 20
76.95670858091273
 10
210.0
 20
76.0
 10
210.0
 20
65.0
 10
209.8096988312782
 20
64.04329141908727
 10
209.26776695296638
 20
63.232233047033645
 10
208.45670858091273
 20
62.69030116872179
 10
207.5
 20
62.5
 10
122.5
 20
62.5
 10
121.54329141908728
 20
62.69030116872179
 10
120.73223304703363
 20
63.23223304703362
 10
120.19030116872179
 20
64.04329141908727
 10
120.0
 20
65.0
 10
120.0
 20
76.0
 10
120.19030116872179
 20
76.95670858091273
 10
120.73223304703363
 20
77.76776695296635
 10
121.54329141908728
 20
78.30969883127821
 10
122.5
 20
78.5
  0
TEXT
  5
107
330
17
100
AcDbEntity
  8
ARC_IP_ADDRESSES
420
223649
100
AcDbText
 10
124.5
 20
72.5
 30
0.0
 40
2.7
  1
.52
  7
ARC_MONO
 11
124.5
 21
72.5
 31
0.0
100
AcDbText
  0
TEXT
  5
108
330
17
100
AcDbEntity
  8
ARC_TEXT
420
988970
100
AcDbText
 10
134.0
 20
72.5
 30
0.0
 40
3.15
  1
SMA STP 25000TL-30 — PV2 · unit 3
  7
ARC_BOLD
 11
134.0
 21
72.5
 31
0.0
100
AcDbText
  0
TEXT
  5
109
330
17
100
AcDbEntity
  8
ARC_TEXT
420
4674921
100
AcDbText
 10
124.5
 20
68.0
 30
0.0
 40
2.475
  1
SMA-native registers · power-limit setpoints
  7
ARC_REGULAR
 11
124.5
 21
68.0
 31
0.0
100
AcDbText
  0
HATCH
  5
10A
330
17
100
AcDbEntity
  8
ARC_DEVICE_BOXES
 62
7
420
16777215
100
AcDbHatch
 10
0.0
 20
0.0
 30
0.0
210
0.0
220
0.0
230
1.0
  2
SOLID
 70
1
 71
0
 91
1
 92
3
 72
0
 73
1
 93
20
 10
207.5
 20
58.5
 10
208.45670858091273
 20
58.30969883127821
 10
209.26776695296638
 20
57.767766952966355
 10
209.8096988312782
 20
56.95670858091273
 10
210.0
 20
56.0
 10
210.0
 20
45.0
 10
209.8096988312782
 20
44.04329141908727
 10
209.26776695296638
 20
43.232233047033645
 10
208.45670858091273
 20
42.69030116872179
 10
207.5
 20
42.5
 10
122.5
 20
42.5
 10
121.54329141908728
 20
42.69030116872179
 10
120.73223304703363
 20
43.23223304703362
 10
120.19030116872179
 20
44.04329141908727
 10
120.0
 20
45.0
 10
120.0
 20
56.0
 10
120.19030116872179
 20
56.95670858091273
 10
120.73223304703363
 20
57.767766952966355
 10
121.54329141908728
 20
58.30969883127821
 10
122.5
 20
58.5
 97
0
 75
0
 76
1
 98
0
  0
LWPOLYLINE
  5
10B
330
17
100
AcDbEntity
  8
ARC_DEVICE_BOXES
  6
CONTINUOUS
370
40
420
9741240
100
AcDbPolyline
 90
20
 70
1
 10
207.5
 20
58.5
 10
208.45670858091273
 20
58.30969883127821
 10
209.26776695296638
 20
57.767766952966355
 10
209.8096988312782
 20
56.95670858091273
 10
210.0
 20
56.0
 10
210.0
 20
45.0
 10
209.8096988312782
 20
44.04329141908727
 10
209.26776695296638
 20
43.232233047033645
 10
208.45670858091273
 20
42.69030116872179
 10
207.5
 20
42.5
 10
122.5
 20
42.5
 10
121.54329141908728
 20
42.69030116872179
 10
120.73223304703363
 20
43.23223304703362
 10
120.19030116872179
 20
44.04329141908727
 10
120.0
 20
45.0
 10
120.0
 20
56.0
 10
120.19030116872179
 20
56.95670858091273
 10
120.73223304703363
 20
57.767766952966355
 10
121.54329141908728
 20
58.30969883127821
 10
122.5
 20
58.5
  0
TEXT
  5
10C
330
17
100
AcDbEntity
  8
ARC_IP_ADDRESSES
420
223649
100
AcDbText
 10
124.5
 20
52.5
 30
0.0
 40
2.7
  1
.53
  7
ARC_MONO
 11
124.5
 21
52.5
 31
0.0
100
AcDbText
  0
TEXT
  5
10D
330
17
100
AcDbEntity
  8
ARC_TEXT
420
988970
100
AcDbText
 10
134.0
 20
52.5
 30
0.0
 40
3.15
  1
SMA STP 25000TL-30 — PV3 · unit 3
  7
ARC_BOLD
 11
134.0
 21
52.5
 31
0.0
100
AcDbText
  0
TEXT
  5
10E
330
17
100
AcDbEntity
  8
ARC_TEXT
420
4674921
100
AcDbText
 10
124.5
 20
48.0
 30
0.0
 40
2.475
  1
SMA-native registers · power-limit setpoints
  7
ARC_REGULAR
 11
124.5
 21
48.0
 31
0.0
100
AcDbText
  0
TEXT
  5
10F
330
17
100
AcDbEntity
  8
ARC_TEXT
420
6583435
100
AcDbText
 10
120.0
 20
35.5
 30
0.0
 40
2.3625000000000003
  1
three independent TCP endpoints — the shared unit id (3) is fine,
  7
ARC_REGULAR
 11
120.0
 21
35.5
 31
0.0
100
AcDbText
  0
TEXT
  5
110
330
17
100
AcDbEntity
  8
ARC_TEXT
420
6583435
100
AcDbText
 10
120.0
 20
31.75
 30
0.0
 40
2.3625000000000003
  1
the IP address disambiguates each inverter
  7
ARC_REGULAR
 11
120.0
 21
31.75
 31
0.0
100
AcDbText
  0
HATCH
  5
111
330
17
100
AcDbEntity
  8
ARC_CONTROL
 62
7
420
15004909
100
AcDbHatch
 10
0.0
 20
0.0
 30
0.0
210
0.0
220
0.0
230
1.0
  2
SOLID
 70
1
 71
0
 91
1
 92
3
 72
0
 73
1
 93
20
 10
308.0
 20
109.5
 10
308.7653668647302
 20
109.34775906502259
 10
309.4142135623731
 20
108.9142135623731
 10
309.84775906502256
 20
108.26536686473017
 10
310.0
 20
107.5
 10
310.0
 20
104.0
 10
309.84775906502256
 20
103.23463313526983
 10
309.4142135623731
 20
102.5857864376269
 10
308.7653668647302
 20
102.15224093497741
 10
308.0
 20
102.0
 10
222.0
 20
102.0
 10
221.23463313526983
 20
102.15224093497741
 10
220.5857864376269
 20
102.5857864376269
 10
220.1522409349774
 20
103.23463313526983
 10
220.0
 20
104.0
 10
220.0
 20
107.5
 10
220.1522409349774
 20
108.26536686473017
 10
220.5857864376269
 20
108.9142135623731
 10
221.23463313526983
 20
109.34775906502259
 10
222.0
 20
109.5
 97
0
 75
0
 76
1
 98
0
  0
LWPOLYLINE
  5
112
330
17
100
AcDbEntity
  8
ARC_CONTROL
  6
CONTINUOUS
370
25
420
11656912
100
AcDbPolyline
 90
20
 70
1
 10
308.0
 20
109.5
 10
308.7653668647302
 20
109.34775906502259
 10
309.4142135623731
 20
108.9142135623731
 10
309.84775906502256
 20
108.26536686473017
 10
310.0
 20
107.5
 10
310.0
 20
104.0
 10
309.84775906502256
 20
103.23463313526983
 10
309.4142135623731
 20
102.5857864376269
 10
308.7653668647302
 20
102.15224093497741
 10
308.0
 20
102.0
 10
222.0
 20
102.0
 10
221.23463313526983
 20
102.15224093497741
 10
220.5857864376269
 20
102.5857864376269
 10
220.1522409349774
 20
103.23463313526983
 10
220.0
 20
104.0
 10
220.0
 20
107.5
 10
220.1522409349774
 20
108.26536686473017
 10
220.5857864376269
 20
108.9142135623731
 10
221.23463313526983
 20
109.34775906502259
 10
222.0
 20
109.5
  0
TEXT
  5
113
330
17
100
AcDbEntity
  8
ARC_CONTROL_TEXT
420
366185
100
AcDbText
 10
223.5
 20
104.5
 30
0.0
 40
2.44375
  1
GENSET — ARC MONITORS + DISPATCHES
  7
ARC_BOLD
 11
223.5
 21
104.5
 31
0.0
100
AcDbText
  0
HATCH
  5
114
330
17
100
AcDbEntity
  8
ARC_DEVICE_BOXES
 62
7
420
16777215
100
AcDbHatch
 10
0.0
 20
0.0
 30
0.0
210
0.0
220
0.0
230
1.0
  2
SOLID
 70
1
 71
0
 91
1
 92
3
 72
0
 73
1
 93
20
 10
307.5
 20
98.5
 10
308.45670858091273
 20
98.30969883127821
 10
309.2677669529664
 20
97.76776695296635
 10
309.80969883127824
 20
96.95670858091273
 10
310.0
 20
96.0
 10
310.0
 20
82.0
 10
309.80969883127824
 20
81.04329141908727
 10
309.2677669529664
 20
80.23223304703365
 10
308.45670858091273
 20
79.69030116872179
 10
307.5
 20
79.5
 10
222.5
 20
79.5
 10
221.54329141908727
 20
79.69030116872179
 10
220.73223304703365
 20
80.23223304703362
 10
220.1903011687218
 20
81.04329141908727
 10
220.0
 20
82.0
 10
220.0
 20
96.0
 10
220.1903011687218
 20
96.95670858091273
 10
220.73223304703362
 20
97.76776695296635
 10
221.54329141908727
 20
98.30969883127821
 10
222.5
 20
98.5
 97
0
 75
0
 76
1
 98
0
  0
LWPOLYLINE
  5
115
330
17
100
AcDbEntity
  8
ARC_DEVICE_BOXES
  6
CONTINUOUS
370
40
420
9741240
100
AcDbPolyline
 90
20
 70
1
 10
307.5
 20
98.5
 10
308.45670858091273
 20
98.30969883127821
 10
309.2677669529664
 20
97.76776695296635
 10
309.80969883127824
 20
96.95670858091273
 10
310.0
 20
96.0
 10
310.0
 20
82.0
 10
309.80969883127824
 20
81.04329141908727
 10
309.2677669529664
 20
80.23223304703365
 10
308.45670858091273
 20
79.69030116872179
 10
307.5
 20
79.5
 10
222.5
 20
79.5
 10
221.54329141908727
 20
79.69030116872179
 10
220.73223304703365
 20
80.23223304703362
 10
220.1903011687218
 20
81.04329141908727
 10
220.0
 20
82.0
 10
220.0
 20
96.0
 10
220.1903011687218
 20
96.95670858091273
 10
220.73223304703362
 20
97.76776695296635
 10
221.54329141908727
 20
98.30969883127821
 10
222.5
 20
98.5
  0
TEXT
  5
116
330
17
100
AcDbEntity
  8
ARC_IP_ADDRESSES
420
223649
100
AcDbText
 10
224.5
 20
92.5
 30
0.0
 40
2.7
  1
.71
  7
ARC_MONO
 11
224.5
 21
92.5
 31
0.0
100
AcDbText
  0
TEXT
  5
117
330
17
100
AcDbEntity
  8
ARC_TEXT
420
988970
100
AcDbText
 10
234.0
 20
92.5
 30
0.0
 40
3.15
  1
DSE8610 MKII controller · unit 1
  7
ARC_BOLD
 11
234.0
 21
92.5
 31
0.0
100
AcDbText
  0
TEXT
  5
118
330
17
100
AcDbEntity
  8
ARC_TEXT
420
4674921
100
AcDbText
 10
224.5
 20
88.0
 30
0.0
 40
2.475
  1
reads GenComm pages 4/6/7 (+ alarms page 8)
  7
ARC_REGULAR
 11
224.5
 21
88.0
 31
0.0
100
AcDbText
  0
TEXT
  5
119
330
17
100
AcDbEntity
  8
ARC_TEXT
420
4674921
100
AcDbText
 10
224.5
 20
84.0
 30
0.0
 40
2.475
  1
start/stop dispatch via GenComm control keys
  7
ARC_REGULAR
 11
224.5
 21
84.0
 31
0.0
100
AcDbText
  0
HATCH
  5
11A
330
17
100
AcDbEntity
  8
ARC_DEVICE_BOXES
 62
7
420
16777215
100
AcDbHatch
 10
0.0
 20
0.0
 30
0.0
210
0.0
220
0.0
230
1.0
  2
SOLID
 70
1
 71
0
 91
1
 92
3
 72
0
 73
1
 93
20
 10
307.5
 20
69.5
 10
308.45670858091273
 20
69.30969883127821
 10
309.2677669529664
 20
68.76776695296635
 10
309.80969883127824
 20
67.95670858091273
 10
310.0
 20
67.0
 10
310.0
 20
58.0
 10
309.80969883127824
 20
57.04329141908727
 10
309.2677669529664
 20
56.232233047033645
 10
308.45670858091273
 20
55.69030116872179
 10
307.5
 20
55.5
 10
222.5
 20
55.5
 10
221.54329141908727
 20
55.69030116872179
 10
220.73223304703365
 20
56.23223304703362
 10
220.1903011687218
 20
57.04329141908727
 10
220.0
 20
58.0
 10
220.0
 20
67.0
 10
220.1903011687218
 20
67.95670858091273
 10
220.73223304703362
 20
68.76776695296635
 10
221.54329141908727
 20
69.30969883127821
 10
222.5
 20
69.5
 97
0
 75
0
 76
1
 98
0
  0
LWPOLYLINE
  5
11B
330
17
100
AcDbEntity
  8
ARC_DEVICE_BOXES
  6
CONTINUOUS
370
40
420
9741240
100
AcDbPolyline
 90
20
 70
1
 10
307.5
 20
69.5
 10
308.45670858091273
 20
69.30969883127821
 10
309.2677669529664
 20
68.76776695296635
 10
309.80969883127824
 20
67.95670858091273
 10
310.0
 20
67.0
 10
310.0
 20
58.0
 10
309.80969883127824
 20
57.04329141908727
 10
309.2677669529664
 20
56.232233047033645
 10
308.45670858091273
 20
55.69030116872179
 10
307.5
 20
55.5
 10
222.5
 20
55.5
 10
221.54329141908727
 20
55.69030116872179
 10
220.73223304703365
 20
56.23223304703362
 10
220.1903011687218
 20
57.04329141908727
 10
220.0
 20
58.0
 10
220.0
 20
67.0
 10
220.1903011687218
 20
67.95670858091273
 10
220.73223304703362
 20
68.76776695296635
 10
221.54329141908727
 20
69.30969883127821
 10
222.5
 20
69.5
  0
TEXT
  5
11C
330
17
100
AcDbEntity
  8
ARC_TEXT
420
988970
100
AcDbText
 10
224.5
 20
64.0
 30
0.0
 40
2.9250000000000003
  1
Perkins 135 kVA prime genset — IN SERVICE
  7
ARC_BOLD
 11
224.5
 21
64.0
 31
0.0
100
AcDbText
  0
TEXT
  5
11D
330
17
100
AcDbEntity
  8
ARC_TEXT
420
4674921
100
AcDbText
 10
224.5
 20
59.5
 30
0.0
 40
2.145
  1
engine hardwired to the DSE controller (sensors/starter — no network)
  7
ARC_REGULAR
 11
224.5
 21
59.5
 31
0.0
100
AcDbText
  0
LWPOLYLINE
  5
11E
330
17
100
AcDbEntity
  8
ARC_HARDWIRED_IO
  6
ARC_DOTTED
370
50
420
9741240
100
AcDbPolyline
 90
2
 70
0
 10
265.0
 20
79.5
 10
265.0
 20
69.5
  0
TEXT
  5
11F
330
17
100
AcDbEntity
  8
ARC_TEXT
420
6583435
100
AcDbText
 10
268.0
 20
73.5
 30
0.0
 40
2.25
  1
hardwired I/O
  7
ARC_MONO
 11
268.0
 21
73.5
 31
0.0
100
AcDbText
  0
HATCH
  5
120
330
17
100
AcDbEntity
  8
ARC_MONITOR
 62
7
420
15003897
100
AcDbHatch
 10
0.0
 20
0.0
 30
0.0
210
0.0
220
0.0
230
1.0
  2
SOLID
 70
1
 71
0
 91
1
 92
3
 72
0
 73
1
 93
20
 10
405.5
 20
109.5
 10
406.2653668647302
 20
109.34775906502259
 10
406.9142135623731
 20
108.9142135623731
 10
407.34775906502256
 20
108.26536686473017
 10
407.5
 20
107.5
 10
407.5
 20
104.0
 10
407.34775906502256
 20
103.23463313526983
 10
406.9142135623731
 20
102.5857864376269
 10
406.2653668647302
 20
102.15224093497741
 10
405.5
 20
102.0
 10
319.5
 20
102.0
 10
318.7346331352698
 20
102.15224093497741
 10
318.0857864376269
 20
102.5857864376269
 10
317.65224093497744
 20
103.23463313526983
 10
317.5
 20
104.0
 10
317.5
 20
107.5
 10
317.65224093497744
 20
108.26536686473017
 10
318.0857864376269
 20
108.9142135623731
 10
318.7346331352698
 20
109.34775906502259
 10
319.5
 20
109.5
 97
0
 75
0
 76
1
 98
0
  0
LWPOLYLINE
  5
121
330
17
100
AcDbEntity
  8
ARC_MONITOR
  6
CONTINUOUS
370
25
420
11589869
100
AcDbPolyline
 90
20
 70
1
 10
405.5
 20
109.5
 10
406.2653668647302
 20
109.34775906502259
 10
406.9142135623731
 20
108.9142135623731
 10
407.34775906502256
 20
108.26536686473017
 10
407.5
 20
107.5
 10
407.5
 20
104.0
 10
407.34775906502256
 20
103.23463313526983
 10
406.9142135623731
 20
102.5857864376269
 10
406.2653668647302
 20
102.15224093497741
 10
405.5
 20
102.0
 10
319.5
 20
102.0
 10
318.7346331352698
 20
102.15224093497741
 10
318.0857864376269
 20
102.5857864376269
 10
317.65224093497744
 20
103.23463313526983
 10
317.5
 20
104.0
 10
317.5
 20
107.5
 10
317.65224093497744
 20
108.26536686473017
 10
318.0857864376269
 20
108.9142135623731
 10
318.7346331352698
 20
109.34775906502259
 10
319.5
 20
109.5
  0
TEXT
  5
122
330
17
100
AcDbEntity
  8
ARC_MONITOR_TEXT
420
165063
100
AcDbText
 10
321.0
 20
104.5
 30
0.0
 40
2.44375
  1
BATTERY — ARC MONITORS ONLY (no control)
  7
ARC_BOLD
 11
321.0
 21
104.5
 31
0.0
100
AcDbText
  0
HATCH
  5
123
330
17
100
AcDbEntity
  8
ARC_DEVICE_BOXES
 62
7
420
16777215
100
AcDbHatch
 10
0.0
 20
0.0
 30
0.0
210
0.0
220
0.0
230
1.0
  2
SOLID
 70
1
 71
0
 91
1
 92
3
 72
0
 73
1
 93
20
 10
405.0
 20
98.5
 10
405.95670858091273
 20
98.30969883127821
 10
406.7677669529664
 20
97.76776695296635
 10
407.30969883127824
 20
96.95670858091273
 10
407.5
 20
96.0
 10
407.5
 20
82.0
 10
407.30969883127824
 20
81.04329141908727
 10
406.7677669529664
 20
80.23223304703365
 10
405.95670858091273
 20
79.69030116872179
 10
405.0
 20
79.5
 10
320.0
 20
79.5
 10
319.04329141908727
 20
79.69030116872179
 10
318.2322330470336
 20
80.23223304703362
 10
317.69030116872176
 20
81.04329141908727
 10
317.5
 20
82.0
 10
317.5
 20
96.0
 10
317.69030116872176
 20
96.95670858091273
 10
318.2322330470336
 20
97.76776695296635
 10
319.04329141908727
 20
98.30969883127821
 10
320.0
 20
98.5
 97
0
 75
0
 76
1
 98
0
  0
LWPOLYLINE
  5
124
330
17
100
AcDbEntity
  8
ARC_DEVICE_BOXES
  6
CONTINUOUS
370
40
420
9741240
100
AcDbPolyline
 90
20
 70
1
 10
405.0
 20
98.5
 10
405.95670858091273
 20
98.30969883127821
 10
406.7677669529664
 20
97.76776695296635
 10
407.30969883127824
 20
96.95670858091273
 10
407.5
 20
96.0
 10
407.5
 20
82.0
 10
407.30969883127824
 20
81.04329141908727
 10
406.7677669529664
 20
80.23223304703365
 10
405.95670858091273
 20
79.69030116872179
 10
405.0
 20
79.5
 10
320.0
 20
79.5
 10
319.04329141908727
 20
79.69030116872179
 10
318.2322330470336
 20
80.23223304703362
 10
317.69030116872176
 20
81.04329141908727
 10
317.5
 20
82.0
 10
317.5
 20
96.0
 10
317.69030116872176
 20
96.95670858091273
 10
318.2322330470336
 20
97.76776695296635
 10
319.04329141908727
 20
98.30969883127821
 10
320.0
 20
98.5
  0
TEXT
  5
125
330
17
100
AcDbEntity
  8
ARC_IP_ADDRESSES
420
223649
100
AcDbText
 10
322.0
 20
92.5
 30
0.0
 40
2.7
  1
.31
  7
ARC_MONO
 11
322.0
 21
92.5
 31
0.0
100
AcDbText
  0
TEXT
  5
126
330
17
100
AcDbEntity
  8
ARC_TEXT
420
988970
100
AcDbText
 10
331.5
 20
92.5
 30
0.0
 40
3.15
  1
RS485↔TCP converter · unit 1
  7
ARC_BOLD
 11
331.5
 21
92.5
 31
0.0
100
AcDbText
  0
TEXT
  5
127
330
17
100
AcDbEntity
  8
ARC_TEXT
420
4674921
100
AcDbText
 10
322.0
 20
88.0
 30
0.0
 40
2.475
  1
Pylontech Modbus map V1.38 · FC03/04 reads
  7
ARC_REGULAR
 11
322.0
 21
88.0
 31
0.0
100
AcDbText
  0
TEXT
  5
128
330
17
100
AcDbEntity
  8
ARC_TEXT
420
4674921
100
AcDbText
 10
322.0
 20
84.0
 30
0.0
 40
2.475
  1
ARC has no relay / charge control of the battery
  7
ARC_REGULAR
 11
322.0
 21
84.0
 31
0.0
100
AcDbText
  0
HATCH
  5
129
330
17
100
AcDbEntity
  8
ARC_DEVICE_BOXES
 62
7
420
16777215
100
AcDbHatch
 10
0.0
 20
0.0
 30
0.0
210
0.0
220
0.0
230
1.0
  2
SOLID
 70
1
 71
0
 91
1
 92
3
 72
0
 73
1
 93
20
 10
405.0
 20
69.5
 10
405.95670858091273
 20
69.30969883127821
 10
406.7677669529664
 20
68.76776695296635
 10
407.30969883127824
 20
67.95670858091273
 10
407.5
 20
67.0
 10
407.5
 20
58.0
 10
407.30969883127824
 20
57.04329141908727
 10
406.7677669529664
 20
56.232233047033645
 10
405.95670858091273
 20
55.69030116872179
 10
405.0
 20
55.5
 10
320.0
 20
55.5
 10
319.04329141908727
 20
55.69030116872179
 10
318.2322330470336
 20
56.23223304703362
 10
317.69030116872176
 20
57.04329141908727
 10
317.5
 20
58.0
 10
317.5
 20
67.0
 10
317.69030116872176
 20
67.95670858091273
 10
318.2322330470336
 20
68.76776695296635
 10
319.04329141908727
 20
69.30969883127821
 10
320.0
 20
69.5
 97
0
 75
0
 76
1
 98
0
  0
LWPOLYLINE
  5
12A
330
17
100
AcDbEntity
  8
ARC_DEVICE_BOXES
  6
CONTINUOUS
370
40
420
9741240
100
AcDbPolyline
 90
20
 70
1
 10
405.0
 20
69.5
 10
405.95670858091273
 20
69.30969883127821
 10
406.7677669529664
 20
68.76776695296635
 10
407.30969883127824
 20
67.95670858091273
 10
407.5
 20
67.0
 10
407.5
 20
58.0
 10
407.30969883127824
 20
57.04329141908727
 10
406.7677669529664
 20
56.232233047033645
 10
405.95670858091273
 20
55.69030116872179
 10
405.0
 20
55.5
 10
320.0
 20
55.5
 10
319.04329141908727
 20
55.69030116872179
 10
318.2322330470336
 20
56.23223304703362
 10
317.69030116872176
 20
57.04329141908727
 10
317.5
 20
58.0
 10
317.5
 20
67.0
 10
317.69030116872176
 20
67.95670858091273
 10
318.2322330470336
 20
68.76776695296635
 10
319.04329141908727
 20
69.30969883127821
 10
320.0
 20
69.5
  0
TEXT
  5
12B
330
17
100
AcDbEntity
  8
ARC_TEXT
420
988970
100
AcDbText
 10
322.0
 20
64.0
 30
0.0
 40
3.15
  1
Pylontech MBMS (level-3 controller)
  7
ARC_BOLD
 11
322.0
 21
64.0
 31
0.0
100
AcDbText
  0
TEXT
  5
12C
330
17
100
AcDbEntity
  8
ARC_TEXT
420
4674921
100
AcDbText
 10
322.0
 20
59.5
 30
0.0
 40
2.475
  1
protections + relay decisions are autonomous
  7
ARC_REGULAR
 11
322.0
 21
59.5
 31
0.0
100
AcDbText
  0
HATCH
  5
12D
330
17
100
AcDbEntity
  8
ARC_DEVICE_BOXES
 62
7
420
16777215
100
AcDbHatch
 10
0.0
 20
0.0
 30
0.0
210
0.0
220
0.0
230
1.0
  2
SOLID
 70
1
 71
0
 91
1
 92
3
 72
0
 73
1
 93
20
 10
405.0
 20
46.5
 10
405.95670858091273
 20
46.30969883127821
 10
406.7677669529664
 20
45.767766952966355
 10
407.30969883127824
 20
44.95670858091273
 10
407.5
 20
44.0
 10
407.5
 20
34.0
 10
407.30969883127824
 20
33.04329141908727
 10
406.7677669529664
 20
32.232233047033645
 10
405.95670858091273
 20
31.69030116872179
 10
405.0
 20
31.5
 10
320.0
 20
31.5
 10
319.04329141908727
 20
31.69030116872179
 10
318.2322330470336
 20
32.23223304703362
 10
317.69030116872176
 20
33.04329141908727
 10
317.5
 20
34.0
 10
317.5
 20
44.0
 10
317.69030116872176
 20
44.95670858091273
 10
318.2322330470336
 20
45.767766952966355
 10
319.04329141908727
 20
46.30969883127821
 10
320.0
 20
46.5
 97
0
 75
0
 76
1
 98
0
  0
LWPOLYLINE
  5
12E
330
17
100
AcDbEntity
  8
ARC_DEVICE_BOXES
  6
CONTINUOUS
370
40
420
9741240
100
AcDbPolyline
 90
20
 70
1
 10
405.0
 20
46.5
 10
405.95670858091273
 20
46.30969883127821
 10
406.7677669529664
 20
45.767766952966355
 10
407.30969883127824
 20
44.95670858091273
 10
407.5
 20
44.0
 10
407.5
 20
34.0
 10
407.30969883127824
 20
33.04329141908727
 10
406.7677669529664
 20
32.232233047033645
 10
405.95670858091273
 20
31.69030116872179
 10
405.0
 20
31.5
 10
320.0
 20
31.5
 10
319.04329141908727
 20
31.69030116872179
 10
318.2322330470336
 20
32.23223304703362
 10
317.69030116872176
 20
33.04329141908727
 10
317.5
 20
34.0
 10
317.5
 20
44.0
 10
317.69030116872176
 20
44.95670858091273
 10
318.2322330470336
 20
45.767766952966355
 10
319.04329141908727
 20
46.30969883127821
 10
320.0
 20
46.5
  0
TEXT
  5
12F
330
17
100
AcDbEntity
  8
ARC_TEXT
420
988970
100
AcDbText
 10
322.0
 20
41.0
 30
0.0
 40
3.15
  1
6 × Force-H3 strings · ~745 V DC
  7
ARC_BOLD
 11
322.0
 21
41.0
 31
0.0
100
AcDbText
  0
TEXT
  5
130
330
17
100
AcDbEntity
  8
ARC_TEXT
420
4674921
100
AcDbText
 10
322.0
 20
36.5
 30
0.0
 40
2.475
  1
internal Link-bus daisy chain → HV combiner
  7
ARC_REGULAR
 11
322.0
 21
36.5
 31
0.0
100
AcDbText
  0
LWPOLYLINE
  5
131
330
17
100
AcDbEntity
  8
ARC_RS485
  6
ARC_DASHED
370
70
420
14251782
100
AcDbPolyline
 90
2
 70
0
 10
362.5
 20
79.5
 10
362.5
 20
69.5
  0
LWPOLYLINE
  5
132
330
17
100
AcDbEntity
  8
ARC_RS485
  6
ARC_DASHED
370
70
420
14251782
100
AcDbPolyline
 90
2
 70
0
 10
362.5
 20
55.5
 10
362.5
 20
46.5
  0
ENDSEC
  0
SECTION
  2
OBJECTS
  0
DICTIONARY
  5
A
330
0
100
AcDbDictionary
281
1
  3
ACAD_COLOR
350
B
  3
ACAD_GROUP
350
C
  3
ACAD_LAYOUT
350
D
  3
ACAD_MATERIAL
350
E
  3
ACAD_MLEADERSTYLE
350
F
  3
ACAD_MLINESTYLE
350
10
  3
ACAD_PLOTSETTINGS
350
11
  3
ACAD_PLOTSTYLENAME
350
12
  3
ACAD_SCALELIST
350
14
  3
ACAD_TABLESTYLE
350
15
  3
ACAD_VISUALSTYLE
350
16
  3
EZDXF_META
350
2D
  0
DICTIONARY
  5
B
330
A
100
AcDbDictionary
281
1
  0
DICTIONARY
  5
C
330
A
100
AcDbDictionary
281
1
  0
DICTIONARY
  5
D
330
A
100
AcDbDictionary
281
1
  3
Model
350
1A
  3
Layout1
350
1E
  0
DICTIONARY
  5
E
330
A
100
AcDbDictionary
281
1
  3
ByBlock
350
1F
  3
ByLayer
350
20
  3
Global
350
21
  0
DICTIONARY
  5
F
330
A
100
AcDbDictionary
281
1
  3
Standard
350
2C
  0
DICTIONARY
  5
10
330
A
100
AcDbDictionary
281
1
  3
Standard
350
22
  0
DICTIONARY
  5
11
330
A
100
AcDbDictionary
281
1
  0
ACDBDICTIONARYWDFLT
  5
12
330
A
100
AcDbDictionary
281
1
  3
Normal
350
13
100
AcDbDictionaryWithDefault
340
13
  0
ACDBPLACEHOLDER
  5
13
330
12
  0
DICTIONARY
  5
14
330
A
100
AcDbDictionary
281
1
  0
DICTIONARY
  5
15
330
A
100
AcDbDictionary
281
1
  0
DICTIONARY
  5
16
330
A
100
AcDbDictionary
281
1
  3
2dWireframe
350
5A
  3
Basic
350
5B
  3
Brighten
350
5C
  3
ColorChange
350
5D
  3
Conceptual
350
5E
  3
Dim
350
5F
  3
EdgeColorOff
350
60
  3
Facepattern
350
61
  3
Flat
350
62
  3
FlatWithEdges
350
63
  3
Gouraud
350
64
  3
GouraudWithEdges
350
65
  3
Hidden
350
66
  3
JitterOff
350
67
  3
Linepattern
350
68
  3
Modeling
350
69
  3
OverhangOff
350
6A
  3
Realistic
350
6B
  3
Shaded
350
6C
  3
Shaded with edges
350
6D
  3
Shades of Gray
350
6E
  3
Sketchy
350
6F
  3
Thicken
350
70
  3
Wireframe
350
71
  3
X-Ray
350
72
  0
LAYOUT
  5
1A
330
D
100
AcDbPlotSettings
  1

  4
A3
  6

 40
7.5
 41
20.0
 42
7.5
 43
20.0
 44
420.0
 45
297.0
 46
0.0
 47
0.0
 48
0.0
 49
0.0
140
0.0
141
0.0
142
1.0
143
1.0
 70
1024
 72
1
 73
0
 74
5
  7

 75
16
 76
0
 77
2
 78
300
147
1.0
148
0.0
149
0.0
100
AcDbLayout
  1
Model
 70
1
 71
0
 10
0.0
 20
0.0
 11
420.0
 21
297.0
 12
0.0
 22
0.0
 32
0.0
 14
1e+20
 24
1e+20
 34
1e+20
 15
-1e+20
 25
-1e+20
 35
-1e+20
146
0.0
 13
0.0
 23
0.0
 33
0.0
 16
1.0
 26
0.0
 36
0.0
 17
0.0
 27
1.0
 37
0.0
 76
1
330
17
  0
LAYOUT
  5
1E
330
D
100
AcDbPlotSettings
  1

  4
A3
  6

 40
7.5
 41
20.0
 42
7.5
 43
20.0
 44
420.0
 45
297.0
 46
0.0
 47
0.0
 48
0.0
 49
0.0
140
0.0
141
0.0
142
1.0
143
1.0
 70
0
 72
1
 73
0
 74
5
  7

 75
16
 76
0
 77
2
 78
300
147
1.0
148
0.0
149
0.0
100
AcDbLayout
  1
Layout1
 70
1
 71
1
 10
0.0
 20
0.0
 11
420.0
 21
297.0
 12
0.0
 22
0.0
 32
0.0
 14
1e+20
 24
1e+20
 34
1e+20
 15
-1e+20
 25
-1e+20
 35
-1e+20
146
0.0
 13
0.0
 23
0.0
 33
0.0
 16
1.0
 26
0.0
 36
0.0
 17
0.0
 27
1.0
 37
0.0
 76
1
330
1B
  0
MATERIAL
  5
1F
102
{ACAD_REACTORS
330
E
102
}
330
E
100
AcDbMaterial
  1
ByBlock
  2

 70
0
 40
1.0
 71
1
 41
1.0
 91
-1023410177
 42
1.0
 72
1
  3

 73
1
 74
1
 75
1
 44
0.5
 73
0
 45
1.0
 46
1.0
 77
1
  4

 78
1
 79
1
170
1
 48
1.0
171
1
  6

172
1
173
1
174
1
140
1.0
141
1.0
175
1
  7

176
1
177
1
178
1
143
1.0
179
1
  8

270
1
271
1
272
1
145
1.0
146
1.0
273
1
  9

274
1
275
1
276
1
 42
1.0
 72
1
  3

 73
1
 74
1
 75
1
 94
63
  0
MATERIAL
  5
20
102
{ACAD_REACTORS
330
E
102
}
330
E
100
AcDbMaterial
  1
ByLayer
  2

 70
0
 40
1.0
 71
1
 41
1.0
 91
-1023410177
 42
1.0
 72
1
  3

 73
1
 74
1
 75
1
 44
0.5
 73
0
 45
1.0
 46
1.0
 77
1
  4

 78
1
 79
1
170
1
 48
1.0
171
1
  6

172
1
173
1
174
1
140
1.0
141
1.0
175
1
  7

176
1
177
1
178
1
143
1.0
179
1
  8

270
1
271
1
272
1
145
1.0
146
1.0
273
1
  9

274
1
275
1
276
1
 42
1.0
 72
1
  3

 73
1
 74
1
 75
1
 94
63
  0
MATERIAL
  5
21
102
{ACAD_REACTORS
330
E
102
}
330
E
100
AcDbMaterial
  1
Global
  2

 70
0
 40
1.0
 71
1
 41
1.0
 91
-1023410177
 42
1.0
 72
1
  3

 73
1
 74
1
 75
1
 44
0.5
 73
0
 45
1.0
 46
1.0
 77
1
  4

 78
1
 79
1
170
1
 48
1.0
171
1
  6

172
1
173
1
174
1
140
1.0
141
1.0
175
1
  7

176
1
177
1
178
1
143
1.0
179
1
  8

270
1
271
1
272
1
145
1.0
146
1.0
273
1
  9

274
1
275
1
276
1
 42
1.0
 72
1
  3

 73
1
 74
1
 75
1
 94
63
  0
MLINESTYLE
  5
22
102
{ACAD_REACTORS
330
10
102
}
330
10
100
AcDbMlineStyle
  2
Standard
 70
0
  3

 62
256
 51
90.0
 52
90.0
 71
2
 49
0.5
 62
256
  6
BYLAYER
 49
-0.5
 62
256
  6
BYLAYER
  0
MLEADERSTYLE
  5
2C
102
{ACAD_REACTORS
330
F
102
}
330
F
100
AcDbMLeaderStyle
179
2
170
2
171
1
172
0
 90
2
 40
0.0
 41
0.0
173
1
 91
-1056964608
 92
-2
290
1
 42
2.0
291
1
 43
8.0
  3
Standard
 44
4.0
300

342
29
174
1
175
1
176
0
178
1
 93
-1056964608
 45
4.0
292
0
297
0
 46
4.0
 94
-1056964608
 47
1.0
 49
1.0
140
1.0
294
1
141
0.0
177
0
142
1.0
295
0
296
0
143
3.75
271
0
272
9
273
9
  0
DICTIONARY
  5
2D
330
A
100
AcDbDictionary
280
1
281
1
  3
CREATED_BY_EZDXF
350
2E
  3
WRITTEN_BY_EZDXF
350
136
  0
DICTIONARYVAR
  5
2E
330
2D
100
DictionaryVariables
280
0
  1
1.4.4 @ 2026-07-10T09:52:02.810763+00:00
  0
VISUALSTYLE
  5
5A
102
{ACAD_REACTORS
330
16
102
}
330
16
100
AcDbVisualStyle
  2
2dWireframe
 70
4
177
3
291
0
 70
58
 90
2
176
1
 90
2
176
1
 90
0
176
1
 90
0
176
1
 40
0.6
176
1
 40
30.0
176
1
 62
7
420
16777215
176
1
 90
1
176
1
 90
4
176
1
 62
7
176
1
 62
257
176
1
 90
1
176
1
 90
1
176
1
 40
1.0
176
1
 90
8
176
1
 62
7
176
1
 40
1.0
176
1
 90
1
176
1
 90
6
176
1
 90
2
176
1
 62
7
176
1
 90
5
176
1
 90
0
176
1
 90
0
176
1
290
0
176
1
 90
1
176
1
 40
0.0
176
1
 90
0
176
1
290
1
176
1
290
1
176
1
290
0
176
1
290
0
176
1
290
0
176
1
290
0
176
1
290
0
176
1
290
0
176
1
290
0
176
1
 90
50
176
1
 40
0.0
176
1
 40
1.0
176
1
 90
0
176
1
 62
18
420
0
176
1
 90
50
176
1
 90
3
176
1
 62
5
420
255
176
1
290
0
176
1
 90
50
176
1
 90
50
176
1
 90
50
176
1
290
0
176
1
 90
50
176
1
 62
256
176
0
 40
1.0
176
0
 90
2
176
1
  1
strokes_ogs.tif
176
1
290
0
176
1
 40
1.0
176
1
 40
1.0
176
1
  0
VISUALSTYLE
  5
5B
102
{ACAD_REACTORS
330
16
102
}
330
16
100
AcDbVisualStyle
  2
Basic
 70
7
177
3
291
1
 70
58
 90
2
176
1
 90
2
176
1
 90
0
176
1
 90
1
176
1
 40
0.6
176
1
 40
30.0
176
1
 62
7
420
16777215
176
1
 90
1
176
1
 90
4
176
1
 62
7
176
1
 62
257
176
1
 90
1
176
1
 90
1
176
1
 40
1.0
176
1
 90
8
176
1
 62
7
176
1
 40
1.0
176
1
 90
1
176
1
 90
6
176
1
 90
2
176
1
 62
7
176
1
 90
5
176
1
 90
0
176
1
 90
0
176
1
290
0
176
1
 90
1
176
1
 40
0.0
176
1
 90
0
176
1
290
0
176
1
290
1
176
1
290
1
176
1
290
0
176
1
290
0
176
1
290
0
176
1
290
0
176
1
290
0
176
1
290
0
176
1
 90
50
176
1
 40
0.0
176
1
 40
1.0
176
1
 90
0
176
1
 62
18
420
0
176
1
 90
50
176
1
 90
3
176
1
 62
5
420
255
176
1
290
0
176
1
 90
50
176
1
 90
50
176
1
 90
50
176
1
290
0
176
1
 90
50
176
1
 62
256
176
0
 40
1.0
176
0
 90
2
176
1
  1
strokes_ogs.tif
176
1
290
0
176
1
 40
1.0
176
1
 40
1.0
176
1
  0
VISUALSTYLE
  5
5C
102
{ACAD_REACTORS
330
16
102
}
330
16
100
AcDbVisualStyle
  2
Brighten
 70
12
177
3
291
1
 70
58
 90
2
176
1
 90
2
176
1
 90
0
176
1
 90
2
176
1
 40
0.6
176
1
 40
30.0
176
1
 62
7
420
16777215
176
1
 90
1
176
1
 90
4
176
1
 62
7
176
1
 62
257
176
1
 90
1
176
1
 90
1
176
1
 40
1.0
176
1
 90
8
176
1
 62
7
176
1
 40
1.0
176
1
 90
1
176
1
 90
6
176
1
 90
2
176
1
 62
7
176
1
 90
5
176
1
 90
0
176
1
 90
0
176
1
290
0
176
1
 90
1
176
1
 40
0.0
176
1
 90
0
176
1
290
0
176
1
290
1
176
1
290
1
176
1
290
0
176
1
290
0
176
1
290
0
176
1
290
0
176
1
290
0
176
1
290
0
176
1
 90
50
176
1
 40
0.0
176
1
 40
1.0
176
1
 90
0
176
1
 62
18
420
0
176
1
 90
50
176
1
 90
3
176
1
 62
5
420
255
176
1
290
0
176
1
 90
50
176
1
 90
50
176
1
 90
50
176
1
290
0
176
1
 90
50
176
1
 62
256
176
0
 40
1.0
176
0
 90
2
176
1
  1
strokes_ogs.tif
176
1
290
0
176
1
 40
1.0
176
1
 40
1.0
176
1
  0
VISUALSTYLE
  5
5D
102
{ACAD_REACTORS
330
16
102
}
330
16
100
AcDbVisualStyle
  2
ColorChange
 70
16
177
3
291
1
 70
58
 90
2
176
1
 90
2
176
1
 90
0
176
1
 90
2
176
1
 40
0.6
176
1
 40
30.0
176
1
 62
7
420
16777215
176
1
 90
1
176
1
 90
4
176
1
 62
7
176
1
 62
257
176
1
 90
1
176
1
 90
1
176
1
 40
1.0
176
1
 90
8
176
1
 62
7
176
1
 40
1.0
176
1
 90
1
176
1
 90
6
176
1
 90
2
176
1
 62
7
176
1
 90
5
176
1
 90
0
176
1
 90
0
176
1
290
0
176
1
 90
1
176
1
 40
0.0
176
1
 90
0
176
1
290
0
176
1
290
1
176
1
290
1
176
1
290
0
176
1
290
0
176
1
290
0
176
1
290
0
176
1
290
0
176
1
290
0
176
1
 90
50
176
1
 40
0.0
176
1
 40
1.0
176
1
 90
0
176
1
 62
18
420
0
176
1
 90
50
176
1
 90
3
176
1
 62
5
420
255
176
1
290
0
176
1
 90
50
176
1
 90
50
176
1
 90
50
176
1
290
0
176
1
 90
50
176
1
 62
256
176
0
 40
1.0
176
0
 90
2
176
1
  1
strokes_ogs.tif
176
1
290
0
176
1
 40
1.0
176
1
 40
1.0
176
1
  0
VISUALSTYLE
  5
5E
102
{ACAD_REACTORS
330
16
102
}
330
16
100
AcDbVisualStyle
  2
Conceptual
 70
9
177
3
291
0
 70
58
 90
2
176
1
 90
2
176
1
 90
0
176
1
 90
3
176
1
 40
0.6
176
1
 40
30.0
176
1
 62
7
420
16777215
176
1
 90
1
176
1
 90
4
176
1
 62
7
176
1
 62
257
176
1
 90
1
176
1
 90
1
176
1
 40
1.0
176
1
 90
8
176
1
 62
7
176
1
 40
1.0
176
1
 90
1
176
1
 90
6
176
1
 90
2
176
1
 62
7
176
1
 90
5
176
1
 90
0
176
1
 90
0
176
1
290
0
176
1
 90
1
176
1
 40
0.0
176
1
 90
0
176
1
290
0
176
1
290
1
176
1
290
1
176
1
290
0
176
1
290
0
176
1
290
0
176
1
290
0
176
1
290
0
176
1
290
0
176
1
 90
50
176
1
 40
0.0
176
1
 40
1.0
176
1
 90
0
176
1
 62
18
420
0
176
1
 90
50
176
1
 90
3
176
1
 62
5
420
255
176
1
290
0
176
1
 90
50
176
1
 90
50
176
1
 90
50
176
1
290
0
176
1
 90
50
176
1
 62
256
176
0
 40
1.0
176
0
 90
2
176
1
  1
strokes_ogs.tif
176
1
290
0
176
1
 40
1.0
176
1
 40
1.0
176
1
  0
VISUALSTYLE
  5
5F
102
{ACAD_REACTORS
330
16
102
}
330
16
100
AcDbVisualStyle
  2
Dim
 70
11
177
3
291
1
 70
58
 90
2
176
1
 90
2
176
1
 90
0
176
1
 90
2
176
1
 40
0.6
176
1
 40
30.0
176
1
 62
7
420
16777215
176
1
 90
1
176
1
 90
4
176
1
 62
7
176
1
 62
257
176
1
 90
1
176
1
 90
1
176
1
 40
1.0
176
1
 90
8
176
1
 62
7
176
1
 40
1.0
176
1
 90
1
176
1
 90
6
176
1
 90
2
176
1
 62
7
176
1
 90
5
176
1
 90
0
176
1
 90
0
176
1
290
0
176
1
 90
1
176
1
 40
0.0
176
1
 90
0
176
1
290
0
176
1
290
1
176
1
290
1
176
1
290
0
176
1
290
0
176
1
290
0
176
1
290
0
176
1
290
0
176
1
290
0
176
1
 90
50
176
1
 40
0.0
176
1
 40
1.0
176
1
 90
0
176
1
 62
18
420
0
176
1
 90
50
176
1
 90
3
176
1
 62
5
420
255
176
1
290
0
176
1
 90
50
176
1
 90
50
176
1
 90
50
176
1
290
0
176
1
 90
50
176
1
 62
256
176
0
 40
1.0
176
0
 90
2
176
1
  1
strokes_ogs.tif
176
1
290
0
176
1
 40
1.0
176
1
 40
1.0
176
1
  0
VISUALSTYLE
  5
60
102
{ACAD_REACTORS
330
16
102
}
330
16
100
AcDbVisualStyle
  2
EdgeColorOff
 70
22
177
3
291
1
 70
58
 90
2
176
1
 90
2
176
1
 90
0
176
1
 90
2
176
1
 40
0.6
176
1
 40
30.0
176
1
 62
7
420
16777215
176
1
 90
1
176
1
 90
4
176
1
 62
7
176
1
 62
257
176
1
 90
1
176
1
 90
1
176
1
 40
1.0
176
1
 90
8
176
1
 62
7
176
1
 40
1.0
176
1
 90
1
176
1
 90
6
176
1
 90
2
176
1
 62
7
176
1
 90
5
176
1
 90
0
176
1
 90
0
176
1
290
0
176
1
 90
1
176
1
 40
0.0
176
1
 90
0
176
1
290
0
176
1
290
1
176
1
290
1
176
1
290
0
176
1
290
0
176
1
290
0
176
1
290
0
176
1
290
0
176
1
290
0
176
1
 90
50
176
1
 40
0.0
176
1
 40
1.0
176
1
 90
0
176
1
 62
18
420
0
176
1
 90
50
176
1
 90
3
176
1
 62
5
420
255
176
1
290
0
176
1
 90
50
176
1
 90
50
176
1
 90
50
176
1
290
0
176
1
 90
50
176
1
 62
256
176
0
 40
1.0
176
0
 90
2
176
1
  1
strokes_ogs.tif
176
1
290
0
176
1
 40
1.0
176
1
 40
1.0
176
1
  0
VISUALSTYLE
  5
61
102
{ACAD_REACTORS
330
16
102
}
330
16
100
AcDbVisualStyle
  2
Facepattern
 70
15
177
3
291
1
 70
58
 90
2
176
1
 90
2
176
1
 90
0
176
1
 90
2
176
1
 40
0.6
176
1
 40
30.0
176
1
 62
7
420
16777215
176
1
 90
1
176
1
 90
4
176
1
 62
7
176
1
 62
257
176
1
 90
1
176
1
 90
1
176
1
 40
1.0
176
1
 90
8
176
1
 62
7
176
1
 40
1.0
176
1
 90
1
176
1
 90
6
176
1
 90
2
176
1
 62
7
176
1
 90
5
176
1
 90
0
176
1
 90
0
176
1
290
0
176
1
 90
1
176
1
 40
0.0
176
1
 90
0
176
1
290
0
176
1
290
1
176
1
290
1
176
1
290
0
176
1
290
0
176
1
290
0
176
1
290
0
176
1
290
0
176
1
290
0
176
1
 90
50
176
1
 40
0.0
176
1
 40
1.0
176
1
 90
0
176
1
 62
18
420
0
176
1
 90
50
176
1
 90
3
176
1
 62
5
420
255
176
1
290
0
176
1
 90
50
176
1
 90
50
176
1
 90
50
176
1
290
0
176
1
 90
50
176
1
 62
256
176
0
 40
1.0
176
0
 90
2
176
1
  1
strokes_ogs.tif
176
1
290
0
176
1
 40
1.0
176
1
 40
1.0
176
1
  0
VISUALSTYLE
  5
62
102
{ACAD_REACTORS
330
16
102
}
330
16
100
AcDbVisualStyle
  2
Flat
 70
0
177
3
291
1
 70
58
 90
2
176
1
 90
2
176
1
 90
0
176
1
 90
2
176
1
 40
0.6
176
1
 40
30.0
176
1
 62
7
420
16777215
176
1
 90
1
176
1
 90
4
176
1
 62
7
176
1
 62
257
176
1
 90
1
176
1
 90
1
176
1
 40
1.0
176
1
 90
8
176
1
 62
7
176
1
 40
1.0
176
1
 90
1
176
1
 90
6
176
1
 90
2
176
1
 62
7
176
1
 90
5
176
1
 90
0
176
1
 90
0
176
1
290
0
176
1
 90
1
176
1
 40
0.0
176
1
 90
0
176
1
290
0
176
1
290
1
176
1
290
1
176
1
290
0
176
1
290
0
176
1
290
0
176
1
290
0
176
1
290
0
176
1
290
0
176
1
 90
50
176
1
 40
0.0
176
1
 40
1.0
176
1
 90
0
176
1
 62
18
420
0
176
1
 90
50
176
1
 90
3
176
1
 62
5
420
255
176
1
290
0
176
1
 90
50
176
1
 90
50
176
1
 90
50
176
1
290
0
176
1
 90
50
176
1
 62
256
176
0
 40
1.0
176
0
 90
2
176
1
  1
strokes_ogs.tif
176
1
290
0
176
1
 40
1.0
176
1
 40
1.0
176
1
  0
VISUALSTYLE
  5
63
102
{ACAD_REACTORS
330
16
102
}
330
16
100
AcDbVisualStyle
  2
FlatWithEdges
 70
1
177
3
291
1
 70
58
 90
2
176
1
 90
2
176
1
 90
0
176
1
 90
2
176
1
 40
0.6
176
1
 40
30.0
176
1
 62
7
420
16777215
176
1
 90
1
176
1
 90
4
176
1
 62
7
176
1
 62
257
176
1
 90
1
176
1
 90
1
176
1
 40
1.0
176
1
 90
8
176
1
 62
7
176
1
 40
1.0
176
1
 90
1
176
1
 90
6
176
1
 90
2
176
1
 62
7
176
1
 90
5
176
1
 90
0
176
1
 90
0
176
1
290
0
176
1
 90
1
176
1
 40
0.0
176
1
 90
0
176
1
290
0
176
1
290
1
176
1
290
1
176
1
290
0
176
1
290
0
176
1
290
0
176
1
290
0
176
1
290
0
176
1
290
0
176
1
 90
50
176
1
 40
0.0
176
1
 40
1.0
176
1
 90
0
176
1
 62
18
420
0
176
1
 90
50
176
1
 90
3
176
1
 62
5
420
255
176
1
290
0
176
1
 90
50
176
1
 90
50
176
1
 90
50
176
1
290
0
176
1
 90
50
176
1
 62
256
176
0
 40
1.0
176
0
 90
2
176
1
  1
strokes_ogs.tif
176
1
290
0
176
1
 40
1.0
176
1
 40
1.0
176
1
  0
VISUALSTYLE
  5
64
102
{ACAD_REACTORS
330
16
102
}
330
16
100
AcDbVisualStyle
  2
Gouraud
 70
2
177
3
291
1
 70
58
 90
2
176
1
 90
2
176
1
 90
0
176
1
 90
2
176
1
 40
0.6
176
1
 40
30.0
176
1
 62
7
420
16777215
176
1
 90
1
176
1
 90
4
176
1
 62
7
176
1
 62
257
176
1
 90
1
176
1
 90
1
176
1
 40
1.0
176
1
 90
8
176
1
 62
7
176
1
 40
1.0
176
1
 90
1
176
1
 90
6
176
1
 90
2
176
1
 62
7
176
1
 90
5
176
1
 90
0
176
1
 90
0
176
1
290
0
176
1
 90
1
176
1
 40
0.0
176
1
 90
0
176
1
290
0
176
1
290
1
176
1
290
1
176
1
290
0
176
1
290
0
176
1
290
0
176
1
290
0
176
1
290
0
176
1
290
0
176
1
 90
50
176
1
 40
0.0
176
1
 40
1.0
176
1
 90
0
176
1
 62
18
420
0
176
1
 90
50
176
1
 90
3
176
1
 62
5
420
255
176
1
290
0
176
1
 90
50
176
1
 90
50
176
1
 90
50
176
1
290
0
176
1
 90
50
176
1
 62
256
176
0
 40
1.0
176
0
 90
2
176
1
  1
strokes_ogs.tif
176
1
290
0
176
1
 40
1.0
176
1
 40
1.0
176
1
  0
VISUALSTYLE
  5
65
102
{ACAD_REACTORS
330
16
102
}
330
16
100
AcDbVisualStyle
  2
GouraudWithEdges
 70
3
177
3
291
1
 70
58
 90
2
176
1
 90
2
176
1
 90
0
176
1
 90
2
176
1
 40
0.6
176
1
 40
30.0
176
1
 62
7
420
16777215
176
1
 90
1
176
1
 90
4
176
1
 62
7
176
1
 62
257
176
1
 90
1
176
1
 90
1
176
1
 40
1.0
176
1
 90
8
176
1
 62
7
176
1
 40
1.0
176
1
 90
1
176
1
 90
6
176
1
 90
2
176
1
 62
7
176
1
 90
5
176
1
 90
0
176
1
 90
0
176
1
290
0
176
1
 90
1
176
1
 40
0.0
176
1
 90
0
176
1
290
0
176
1
290
1
176
1
290
1
176
1
290
0
176
1
290
0
176
1
290
0
176
1
290
0
176
1
290
0
176
1
290
0
176
1
 90
50
176
1
 40
0.0
176
1
 40
1.0
176
1
 90
0
176
1
 62
18
420
0
176
1
 90
50
176
1
 90
3
176
1
 62
5
420
255
176
1
290
0
176
1
 90
50
176
1
 90
50
176
1
 90
50
176
1
290
0
176
1
 90
50
176
1
 62
256
176
0
 40
1.0
176
0
 90
2
176
1
  1
strokes_ogs.tif
176
1
290
0
176
1
 40
1.0
176
1
 40
1.0
176
1
  0
VISUALSTYLE
  5
66
102
{ACAD_REACTORS
330
16
102
}
330
16
100
AcDbVisualStyle
  2
Hidden
 70
6
177
3
291
0
 70
58
 90
2
176
1
 90
2
176
1
 90
0
176
1
 90
1
176
1
 40
0.6
176
1
 40
30.0
176
1
 62
7
420
16777215
176
1
 90
1
176
1
 90
4
176
1
 62
7
176
1
 62
257
176
1
 90
1
176
1
 90
1
176
1
 40
1.0
176
1
 90
8
176
1
 62
7
176
1
 40
1.0
176
1
 90
1
176
1
 90
6
176
1
 90
2
176
1
 62
7
176
1
 90
5
176
1
 90
0
176
1
 90
0
176
1
290
0
176
1
 90
1
176
1
 40
0.0
176
1
 90
0
176
1
290
0
176
1
290
1
176
1
290
1
176
1
290
0
176
1
290
0
176
1
290
0
176
1
290
0
176
1
290
0
176
1
290
0
176
1
 90
50
176
1
 40
0.0
176
1
 40
1.0
176
1
 90
0
176
1
 62
18
420
0
176
1
 90
50
176
1
 90
3
176
1
 62
5
420
255
176
1
290
0
176
1
 90
50
176
1
 90
50
176
1
 90
50
176
1
290
0
176
1
 90
50
176
1
 62
256
176
0
 40
1.0
176
0
 90
2
176
1
  1
strokes_ogs.tif
176
1
290
0
176
1
 40
1.0
176
1
 40
1.0
176
1
  0
VISUALSTYLE
  5
67
102
{ACAD_REACTORS
330
16
102
}
330
16
100
AcDbVisualStyle
  2
JitterOff
 70
20
177
3
291
1
 70
58
 90
2
176
1
 90
2
176
1
 90
0
176
1
 90
2
176
1
 40
0.6
176
1
 40
30.0
176
1
 62
7
420
16777215
176
1
 90
1
176
1
 90
4
176
1
 62
7
176
1
 62
257
176
1
 90
1
176
1
 90
1
176
1
 40
1.0
176
1
 90
8
176
1
 62
7
176
1
 40
1.0
176
1
 90
1
176
1
 90
6
176
1
 90
2
176
1
 62
7
176
1
 90
5
176
1
 90
0
176
1
 90
0
176
1
290
0
176
1
 90
1
176
1
 40
0.0
176
1
 90
0
176
1
290
0
176
1
290
1
176
1
290
1
176
1
290
0
176
1
290
0
176
1
290
0
176
1
290
0
176
1
290
0
176
1
290
0
176
1
 90
50
176
1
 40
0.0
176
1
 40
1.0
176
1
 90
0
176
1
 62
18
420
0
176
1
 90
50
176
1
 90
3
176
1
 62
5
420
255
176
1
290
0
176
1
 90
50
176
1
 90
50
176
1
 90
50
176
1
290
0
176
1
 90
50
176
1
 62
256
176
0
 40
1.0
176
0
 90
2
176
1
  1
strokes_ogs.tif
176
1
290
0
176
1
 40
1.0
176
1
 40
1.0
176
1
  0
VISUALSTYLE
  5
68
102
{ACAD_REACTORS
330
16
102
}
330
16
100
AcDbVisualStyle
  2
Linepattern
 70
14
177
3
291
1
 70
58
 90
2
176
1
 90
2
176
1
 90
0
176
1
 90
2
176
1
 40
0.6
176
1
 40
30.0
176
1
 62
7
420
16777215
176
1
 90
1
176
1
 90
4
176
1
 62
7
176
1
 62
257
176
1
 90
1
176
1
 90
1
176
1
 40
1.0
176
1
 90
8
176
1
 62
7
176
1
 40
1.0
176
1
 90
1
176
1
 90
6
176
1
 90
2
176
1
 62
7
176
1
 90
5
176
1
 90
0
176
1
 90
0
176
1
290
0
176
1
 90
1
176
1
 40
0.0
176
1
 90
0
176
1
290
0
176
1
290
1
176
1
290
1
176
1
290
0
176
1
290
0
176
1
290
0
176
1
290
0
176
1
290
0
176
1
290
0
176
1
 90
50
176
1
 40
0.0
176
1
 40
1.0
176
1
 90
0
176
1
 62
18
420
0
176
1
 90
50
176
1
 90
3
176
1
 62
5
420
255
176
1
290
0
176
1
 90
50
176
1
 90
50
176
1
 90
50
176
1
290
0
176
1
 90
50
176
1
 62
256
176
0
 40
1.0
176
0
 90
2
176
1
  1
strokes_ogs.tif
176
1
290
0
176
1
 40
1.0
176
1
 40
1.0
176
1
  0
VISUALSTYLE
  5
69
102
{ACAD_REACTORS
330
16
102
}
330
16
100
AcDbVisualStyle
  2
Modeling
 70
10
177
3
291
0
 70
58
 90
2
176
1
 90
2
176
1
 90
0
176
1
 90
2
176
1
 40
0.6
176
1
 40
30.0
176
1
 62
7
420
16777215
176
1
 90
1
176
1
 90
4
176
1
 62
7
176
1
 62
257
176
1
 90
1
176
1
 90
1
176
1
 40
1.0
176
1
 90
8
176
1
 62
7
176
1
 40
1.0
176
1
 90
1
176
1
 90
6
176
1
 90
2
176
1
 62
7
176
1
 90
5
176
1
 90
0
176
1
 90
0
176
1
290
0
176
1
 90
1
176
1
 40
0.0
176
1
 90
0
176
1
290
0
176
1
290
1
176
1
290
1
176
1
290
0
176
1
290
0
176
1
290
0
176
1
290
0
176
1
290
0
176
1
290
0
176
1
 90
50
176
1
 40
0.0
176
1
 40
1.0
176
1
 90
0
176
1
 62
18
420
0
176
1
 90
50
176
1
 90
3
176
1
 62
5
420
255
176
1
290
0
176
1
 90
50
176
1
 90
50
176
1
 90
50
176
1
290
0
176
1
 90
50
176
1
 62
256
176
0
 40
1.0
176
0
 90
2
176
1
  1
strokes_ogs.tif
176
1
290
0
176
1
 40
1.0
176
1
 40
1.0
176
1
  0
VISUALSTYLE
  5
6A
102
{ACAD_REACTORS
330
16
102
}
330
16
100
AcDbVisualStyle
  2
OverhangOff
 70
21
177
3
291
1
 70
58
 90
2
176
1
 90
2
176
1
 90
0
176
1
 90
2
176
1
 40
0.6
176
1
 40
30.0
176
1
 62
7
420
16777215
176
1
 90
1
176
1
 90
4
176
1
 62
7
176
1
 62
257
176
1
 90
1
176
1
 90
1
176
1
 40
1.0
176
1
 90
8
176
1
 62
7
176
1
 40
1.0
176
1
 90
1
176
1
 90
6
176
1
 90
2
176
1
 62
7
176
1
 90
5
176
1
 90
0
176
1
 90
0
176
1
290
0
176
1
 90
1
176
1
 40
0.0
176
1
 90
0
176
1
290
0
176
1
290
1
176
1
290
1
176
1
290
0
176
1
290
0
176
1
290
0
176
1
290
0
176
1
290
0
176
1
290
0
176
1
 90
50
176
1
 40
0.0
176
1
 40
1.0
176
1
 90
0
176
1
 62
18
420
0
176
1
 90
50
176
1
 90
3
176
1
 62
5
420
255
176
1
290
0
176
1
 90
50
176
1
 90
50
176
1
 90
50
176
1
290
0
176
1
 90
50
176
1
 62
256
176
0
 40
1.0
176
0
 90
2
176
1
  1
strokes_ogs.tif
176
1
290
0
176
1
 40
1.0
176
1
 40
1.0
176
1
  0
VISUALSTYLE
  5
6B
102
{ACAD_REACTORS
330
16
102
}
330
16
100
AcDbVisualStyle
  2
Realistic
 70
8
177
3
291
0
 70
58
 90
2
176
1
 90
2
176
1
 90
0
176
1
 90
2
176
1
 40
0.6
176
1
 40
30.0
176
1
 62
7
420
16777215
176
1
 90
1
176
1
 90
4
176
1
 62
7
176
1
 62
257
176
1
 90
1
176
1
 90
1
176
1
 40
1.0
176
1
 90
8
176
1
 62
7
176
1
 40
1.0
176
1
 90
1
176
1
 90
6
176
1
 90
2
176
1
 62
7
176
1
 90
5
176
1
 90
0
176
1
 90
0
176
1
290
0
176
1
 90
1
176
1
 40
0.0
176
1
 90
0
176
1
290
0
176
1
290
1
176
1
290
1
176
1
290
0
176
1
290
0
176
1
290
0
176
1
290
0
176
1
290
0
176
1
290
0
176
1
 90
50
176
1
 40
0.0
176
1
 40
1.0
176
1
 90
0
176
1
 62
18
420
0
176
1
 90
50
176
1
 90
3
176
1
 62
5
420
255
176
1
290
0
176
1
 90
50
176
1
 90
50
176
1
 90
50
176
1
290
0
176
1
 90
50
176
1
 62
256
176
0
 40
1.0
176
0
 90
2
176
1
  1
strokes_ogs.tif
176
1
290
0
176
1
 40
1.0
176
1
 40
1.0
176
1
  0
VISUALSTYLE
  5
6C
102
{ACAD_REACTORS
330
16
102
}
330
16
100
AcDbVisualStyle
  2
Shaded
 70
27
177
3
291
0
 70
58
 90
2
176
1
 90
2
176
1
 90
0
176
1
 90
2
176
1
 40
0.6
176
1
 40
30.0
176
1
 62
7
420
16777215
176
1
 90
1
176
1
 90
4
176
1
 62
7
176
1
 62
257
176
1
 90
1
176
1
 90
1
176
1
 40
1.0
176
1
 90
8
176
1
 62
7
176
1
 40
1.0
176
1
 90
1
176
1
 90
6
176
1
 90
2
176
1
 62
7
176
1
 90
5
176
1
 90
0
176
1
 90
0
176
1
290
0
176
1
 90
1
176
1
 40
0.0
176
1
 90
0
176
1
290
0
176
1
290
1
176
1
290
1
176
1
290
0
176
1
290
0
176
1
290
0
176
1
290
0
176
1
290
0
176
1
290
0
176
1
 90
50
176
1
 40
0.0
176
1
 40
1.0
176
1
 90
0
176
1
 62
18
420
0
176
1
 90
50
176
1
 90
3
176
1
 62
5
420
255
176
1
290
0
176
1
 90
50
176
1
 90
50
176
1
 90
50
176
1
290
0
176
1
 90
50
176
1
 62
256
176
0
 40
1.0
176
0
 90
2
176
1
  1
strokes_ogs.tif
176
1
290
0
176
1
 40
1.0
176
1
 40
1.0
176
1
  0
VISUALSTYLE
  5
6D
102
{ACAD_REACTORS
330
16
102
}
330
16
100
AcDbVisualStyle
  2
Shaded with edges
 70
26
177
3
291
0
 70
58
 90
2
176
1
 90
2
176
1
 90
0
176
1
 90
2
176
1
 40
0.6
176
1
 40
30.0
176
1
 62
7
420
16777215
176
1
 90
1
176
1
 90
4
176
1
 62
7
176
1
 62
257
176
1
 90
1
176
1
 90
1
176
1
 40
1.0
176
1
 90
8
176
1
 62
7
176
1
 40
1.0
176
1
 90
1
176
1
 90
6
176
1
 90
2
176
1
 62
7
176
1
 90
5
176
1
 90
0
176
1
 90
0
176
1
290
0
176
1
 90
1
176
1
 40
0.0
176
1
 90
0
176
1
290
0
176
1
290
1
176
1
290
1
176
1
290
0
176
1
290
0
176
1
290
0
176
1
290
0
176
1
290
0
176
1
290
0
176
1
 90
50
176
1
 40
0.0
176
1
 40
1.0
176
1
 90
0
176
1
 62
18
420
0
176
1
 90
50
176
1
 90
3
176
1
 62
5
420
255
176
1
290
0
176
1
 90
50
176
1
 90
50
176
1
 90
50
176
1
290
0
176
1
 90
50
176
1
 62
256
176
0
 40
1.0
176
0
 90
2
176
1
  1
strokes_ogs.tif
176
1
290
0
176
1
 40
1.0
176
1
 40
1.0
176
1
  0
VISUALSTYLE
  5
6E
102
{ACAD_REACTORS
330
16
102
}
330
16
100
AcDbVisualStyle
  2
Shades of Gray
 70
23
177
3
291
0
 70
58
 90
2
176
1
 90
2
176
1
 90
0
176
1
 90
2
176
1
 40
0.6
176
1
 40
30.0
176
1
 62
7
420
16777215
176
1
 90
1
176
1
 90
4
176
1
 62
7
176
1
 62
257
176
1
 90
1
176
1
 90
1
176
1
 40
1.0
176
1
 90
8
176
1
 62
7
176
1
 40
1.0
176
1
 90
1
176
1
 90
6
176
1
 90
2
176
1
 62
7
176
1
 90
5
176
1
 90
0
176
1
 90
0
176
1
290
0
176
1
 90
1
176
1
 40
0.0
176
1
 90
0
176
1
290
0
176
1
290
1
176
1
290
1
176
1
290
0
176
1
290
0
176
1
290
0
176
1
290
0
176
1
290
0
176
1
290
0
176
1
 90
50
176
1
 40
0.0
176
1
 40
1.0
176
1
 90
0
176
1
 62
18
420
0
176
1
 90
50
176
1
 90
3
176
1
 62
5
420
255
176
1
290
0
176
1
 90
50
176
1
 90
50
176
1
 90
50
176
1
290
0
176
1
 90
50
176
1
 62
256
176
0
 40
1.0
176
0
 90
2
176
1
  1
strokes_ogs.tif
176
1
290
0
176
1
 40
1.0
176
1
 40
1.0
176
1
  0
VISUALSTYLE
  5
6F
102
{ACAD_REACTORS
330
16
102
}
330
16
100
AcDbVisualStyle
  2
Sketchy
 70
24
177
3
291
0
 70
58
 90
2
176
1
 90
2
176
1
 90
0
176
1
 90
1
176
1
 40
0.6
176
1
 40
30.0
176
1
 62
7
420
16777215
176
1
 90
1
176
1
 90
4
176
1
 62
7
176
1
 62
257
176
1
 90
1
176
1
 90
1
176
1
 40
1.0
176
1
 90
8
176
1
 62
7
176
1
 40
1.0
176
1
 90
1
176
1
 90
6
176
1
 90
2
176
1
 62
7
176
1
 90
5
176
1
 90
0
176
1
 90
0
176
1
290
0
176
1
 90
1
176
1
 40
0.0
176
1
 90
0
176
1
290
0
176
1
290
1
176
1
290
1
176
1
290
0
176
1
290
0
176
1
290
0
176
1
290
0
176
1
290
0
176
1
290
0
176
1
 90
50
176
1
 40
0.0
176
1
 40
1.0
176
1
 90
0
176
1
 62
18
420
0
176
1
 90
50
176
1
 90
3
176
1
 62
5
420
255
176
1
290
0
176
1
 90
50
176
1
 90
50
176
1
 90
50
176
1
290
0
176
1
 90
50
176
1
 62
256
176
0
 40
1.0
176
0
 90
2
176
1
  1
strokes_ogs.tif
176
1
290
0
176
1
 40
1.0
176
1
 40
1.0
176
1
  0
VISUALSTYLE
  5
70
102
{ACAD_REACTORS
330
16
102
}
330
16
100
AcDbVisualStyle
  2
Thicken
 70
13
177
3
291
1
 70
58
 90
2
176
1
 90
2
176
1
 90
0
176
1
 90
2
176
1
 40
0.6
176
1
 40
30.0
176
1
 62
7
420
16777215
176
1
 90
1
176
1
 90
4
176
1
 62
7
176
1
 62
257
176
1
 90
1
176
1
 90
1
176
1
 40
1.0
176
1
 90
8
176
1
 62
7
176
1
 40
1.0
176
1
 90
1
176
1
 90
6
176
1
 90
2
176
1
 62
7
176
1
 90
5
176
1
 90
0
176
1
 90
0
176
1
290
0
176
1
 90
1
176
1
 40
0.0
176
1
 90
0
176
1
290
0
176
1
290
1
176
1
290
1
176
1
290
0
176
1
290
0
176
1
290
0
176
1
290
0
176
1
290
0
176
1
290
0
176
1
 90
50
176
1
 40
0.0
176
1
 40
1.0
176
1
 90
0
176
1
 62
18
420
0
176
1
 90
50
176
1
 90
3
176
1
 62
5
420
255
176
1
290
0
176
1
 90
50
176
1
 90
50
176
1
 90
50
176
1
290
0
176
1
 90
50
176
1
 62
256
176
0
 40
1.0
176
0
 90
2
176
1
  1
strokes_ogs.tif
176
1
290
0
176
1
 40
1.0
176
1
 40
1.0
176
1
  0
VISUALSTYLE
  5
71
102
{ACAD_REACTORS
330
16
102
}
330
16
100
AcDbVisualStyle
  2
Wireframe
 70
5
177
3
291
0
 70
58
 90
2
176
1
 90
2
176
1
 90
0
176
1
 90
0
176
1
 40
0.6
176
1
 40
30.0
176
1
 62
7
420
16777215
176
1
 90
1
176
1
 90
4
176
1
 62
7
176
1
 62
257
176
1
 90
1
176
1
 90
1
176
1
 40
1.0
176
1
 90
8
176
1
 62
7
176
1
 40
1.0
176
1
 90
1
176
1
 90
6
176
1
 90
2
176
1
 62
7
176
1
 90
5
176
1
 90
0
176
1
 90
0
176
1
290
0
176
1
 90
1
176
1
 40
0.0
176
1
 90
0
176
1
290
0
176
1
290
1
176
1
290
1
176
1
290
0
176
1
290
0
176
1
290
0
176
1
290
0
176
1
290
0
176
1
290
0
176
1
 90
50
176
1
 40
0.0
176
1
 40
1.0
176
1
 90
0
176
1
 62
18
420
0
176
1
 90
50
176
1
 90
3
176
1
 62
5
420
255
176
1
290
0
176
1
 90
50
176
1
 90
50
176
1
 90
50
176
1
290
0
176
1
 90
50
176
1
 62
256
176
0
 40
1.0
176
0
 90
2
176
1
  1
strokes_ogs.tif
176
1
290
0
176
1
 40
1.0
176
1
 40
1.0
176
1
  0
VISUALSTYLE
  5
72
102
{ACAD_REACTORS
330
16
102
}
330
16
100
AcDbVisualStyle
  2
X-Ray
 70
25
177
3
291
0
 70
58
 90
2
176
1
 90
2
176
1
 90
0
176
1
 90
2
176
1
 40
0.5
176
1
 40
30.0
176
1
 62
7
420
16777215
176
1
 90
1
176
1
 90
4
176
1
 62
7
176
1
 62
257
176
1
 90
1
176
1
 90
1
176
1
 40
1.0
176
1
 90
8
176
1
 62
7
176
1
 40
1.0
176
1
 90
1
176
1
 90
6
176
1
 90
2
176
1
 62
7
176
1
 90
5
176
1
 90
0
176
1
 90
0
176
1
290
0
176
1
 90
1
176
1
 40
0.0
176
1
 90
0
176
1
290
0
176
1
290
1
176
1
290
1
176
1
290
0
176
1
290
0
176
1
290
0
176
1
290
0
176
1
290
0
176
1
290
0
176
1
 90
50
176
1
 40
0.0
176
1
 40
1.0
176
1
 90
0
176
1
 62
18
420
0
176
1
 90
50
176
1
 90
3
176
1
 62
5
420
255
176
1
290
0
176
1
 90
50
176
1
 90
50
176
1
 90
50
176
1
290
0
176
1
 90
50
176
1
 62
256
176
0
 40
1.0
176
0
 90
2
176
1
  1
strokes_ogs.tif
176
1
290
0
176
1
 40
1.0
176
1
 40
1.0
176
1
  0
DICTIONARYVAR
  5
136
330
2D
100
DictionaryVariables
280
0
  1
1.4.4 @ 2026-07-10T09:52:02.819033+00:00
  0
ENDSEC
  0
EOF
